<?xml version="1.0" encoding="utf-8" ?>
<svg xmlns="http://www.w3.org/2000/svg" xmlns:xlink="http://www.w3.org/1999/xlink" width="500" height="499">
	<path fill="#FEFEFE" transform="matrix(1.06383 0 0 1.06397 0 6.10352e-05)" d="M0 0L469.562 0C470.07 0.895377 469.99 1.74976 469.997 2.75157L470.003 370.65L470.001 445.238C470 448.617 470.4 466.796 469.845 468.451C469.782 468.638 469.656 468.834 469.562 469L0 469L0 0Z"/>
	<path fill="#232C3E" transform="matrix(1.06383 0 0 1.06397 0 6.10352e-05)" d="M160.557 251.574C163.23 251.436 165.838 251.504 168.496 251.83Q168.403 269.439 168.758 287.045C168.886 292.97 169.253 298.852 169.282 304.793C175.334 305.054 181.358 304.631 187.43 305.058C187.742 308.077 188.813 312.753 187.005 315.401C186.233 315.828 185.717 315.729 184.844 315.733C175.974 315.573 167.089 316.265 158.228 315.897C157.335 312.455 157.735 309.097 157.665 305.585C157.525 298.536 157.494 291.544 157.511 284.496C157.536 273.73 157.186 262.858 157.6 252.108C158.574 251.886 159.572 251.743 160.557 251.574Z"/>
	<path fill="#232C3E" transform="matrix(1.06383 0 0 1.06397 0 6.10352e-05)" d="M279.136 251.768C291.117 251.63 303.199 251.595 315.168 252.135C315.606 254.044 315.896 255.886 315.937 257.848C315.967 259.292 315.944 261.156 314.809 262.217C313.274 263.651 304.968 262.99 302.623 263.01C302.071 270.655 302.479 278.62 302.66 286.283C302.8 292.235 302.729 298.202 302.72 304.155C302.647 307.881 302.807 311.849 302.182 315.517C298.459 316.198 295.008 315.917 291.291 315.405C291.257 297.997 290.683 280.387 291.801 263.014C287.492 262.747 283.158 262.939 278.862 262.582C277.904 258.87 278.481 255.469 279.136 251.768Z"/>
	<path fill="#232C3E" transform="matrix(1.06383 0 0 1.06397 0 6.10352e-05)" d="M252.706 251.344C254.221 251.214 255.812 251.181 257.329 251.28C261.413 251.548 265.145 253.612 267.799 256.69C272.077 261.651 272.05 267.736 271.599 273.897C269.746 274.285 267.754 274.306 265.862 274.332C264.305 274.353 261.973 274.446 260.823 273.217C259.853 272.18 260.515 270.43 260.524 269.161C260.536 267.381 259.967 265.526 258.661 264.269C257.459 263.112 255.796 262.632 254.152 262.757C252.664 262.87 251.044 263.451 250.074 264.635C249.312 265.565 249.093 266.678 249.216 267.856C249.851 273.929 257.38 278.756 261.624 282.388C266.519 286.577 270.983 291.095 271.459 297.886C271.765 302.235 270.455 307.734 267.534 311.064C264.613 314.393 261.092 315.381 256.812 315.701C255.23 315.795 253.643 315.901 252.059 315.939C248.173 316.033 244.979 314.673 242.208 311.991C238.428 308.332 237.705 303.101 237.609 298.065C237.587 296.876 237.57 295.011 238.605 294.195C240.529 292.678 246.288 293.68 248.7 293.937C249 295.944 248.979 298 249.162 300.022C249.317 301.718 249.767 303.668 251.179 304.77C252.235 305.595 253.619 305.795 254.915 305.573C256.636 305.279 258.281 304.248 259.278 302.813C260.782 300.649 260.317 297.764 258.983 295.636C257.622 293.467 255.446 291.824 253.518 290.187C249.711 286.954 242.311 281.404 239.711 277.458C238.567 275.722 238.007 273.707 237.719 271.667C237.075 267.097 237.891 261.271 240.734 257.525C243.573 253.785 248.17 251.921 252.706 251.344Z"/>
	<path fill="#232C3E" transform="matrix(1.06383 0 0 1.06397 0 6.10352e-05)" d="M113.63 252.092C124.876 251.76 136.349 251.849 147.598 252.086C148.071 256.04 147.922 259.784 147.44 263.722C139.956 263.796 132.471 263.394 124.997 263.511C124.707 268.358 124.123 273.628 124.93 278.428C130.129 277.93 137.304 277.935 142.461 278.581C143 282.169 142.93 285.609 142.643 289.206C136.839 289.387 130.986 289.246 125.175 289.272Q124.806 293.549 124.722 297.842C124.717 299.928 124.689 301.961 125.041 304.026C127.117 304.333 129.291 304.282 131.391 304.339C136.863 304.488 142.235 304.398 147.703 304.228C148.012 307.98 147.802 311.498 147.422 315.225C143.423 315.319 139.427 314.955 135.432 315.047C128.233 315.212 121.023 315.769 113.818 315.707C113.09 311.485 113.521 306.809 113.469 302.518C113.337 291.532 113.413 280.569 113.502 269.584C113.546 264.031 112.921 257.489 113.63 252.092Z"/>
	<path fill="#232C3E" transform="matrix(1.06383 0 0 1.06397 0 6.10352e-05)" d="M197.826 252.087C204.685 251.875 220.302 251.284 225.491 256.092C228.725 259.089 230.11 263.765 230.271 268.052C230.467 273.272 230.218 280.836 226.414 284.864C221.423 290.149 214.476 290.061 207.743 290.276C207.735 291.748 207.605 293.219 207.506 294.687L207.473 314.869C203.804 315.955 200.561 315.753 196.824 315.153C196.269 310.543 196.531 305.765 196.517 301.126C196.507 297.536 196.297 293.938 196.346 290.351C196.443 283.364 196.796 276.354 196.789 269.369C196.785 266.046 195.879 255.221 196.478 252.716C196.964 252.219 197.164 252.234 197.826 252.087Z"/>
	<path fill="#FEFEFE" transform="matrix(1.06383 0 0 1.06397 0 6.10352e-05)" d="M209.674 263.137C211.097 262.954 212.799 262.872 214.206 263.171C215.76 263.501 217.128 264.335 217.985 265.69C219.408 267.941 219.319 271.511 218.742 274.042C218.306 275.954 217.852 277.169 216.165 278.235C213.482 279.006 210.61 278.819 207.859 278.612C207.37 276.42 207.174 264.879 207.981 263.359L209.674 263.137Z"/>
	<path fill="#232C3E" transform="matrix(1.06383 0 0 1.06397 0 6.10352e-05)" d="M68.5301 252.091C71.6523 251.949 74.8386 251.858 77.8836 252.642C78.0528 255.61 77.4455 258.607 77.5099 261.585C77.6302 267.145 78.2493 272.64 78.2807 278.225C82.5053 278.338 86.7482 278.264 90.9749 278.27C91.8159 269.858 91.2813 261.02 91.2719 252.559C95.0261 251.996 98.4811 252.051 102.252 252.467L102.42 296.985C102.442 301.379 102.74 305.76 102.729 310.163C102.726 311.506 102.855 313.054 102.662 314.376C102.558 315.084 102.295 315.267 101.734 315.657C101.641 315.663 101.548 315.67 101.454 315.674C99.4827 315.756 93.1569 316.389 91.8009 315.14C90.6353 311.548 91.2621 294.785 91.2502 289.754Q85.0128 289.721 78.7755 289.753C78.3693 292.924 78.4869 296.152 78.4775 299.342L78.4526 315.65C76.0347 316.094 69.7258 316.679 67.6169 315.442C66.7733 313.637 66.8876 310.977 66.8237 308.991C66.5826 301.503 67.0399 293.992 67.0426 286.498L67.2289 262.995C67.2764 259.536 67.1432 256.056 67.3521 252.603C67.7539 252.072 67.8999 252.197 68.5301 252.091Z"/>
	<path fill="#232C3E" transform="matrix(1.06383 0 0 1.06397 0 6.10352e-05)" d="M371.021 251.858C372.176 251.637 373.767 251.635 374.883 251.976C375.762 252.245 376.577 252.79 377.089 253.563C379.074 256.563 380.343 260.8 381.733 264.139C384.976 271.929 388.093 279.774 391.799 287.359C392.183 282.168 392.074 277.048 392.061 271.851L392.033 252.071Q394.743 251.657 397.484 251.718Q400.225 251.778 402.915 252.31C403.327 262.176 402.786 272.131 402.727 282C402.66 293.06 403.037 304.115 402.954 315.169L399.812 315.482C397.058 315.544 394.296 315.344 391.546 315.206C389.959 312.106 388.697 308.647 387.409 305.409C384.199 297.346 381.264 289.076 377.144 281.418C377.359 286.24 378.163 311.707 376.786 314.542C375.941 315.189 375.207 315.434 374.149 315.569C372.496 315.78 367.619 315.924 366.415 314.765C366.028 314.393 365.827 313.84 365.786 313.311C365.692 312.093 365.975 310.815 365.985 309.588C366 307.678 365.806 305.761 365.794 303.847C365.779 301.399 365.92 298.949 365.925 296.5L366.045 252.396L371.021 251.858Z"/>
	<path fill="#232C3E" transform="matrix(1.06383 0 0 1.06397 0 6.10352e-05)" d="M339.365 251.1C343.003 250.856 346.943 252.161 349.979 254.155C353.338 256.361 355.169 260.215 355.913 264.067C356.723 268.257 356.429 277.438 356.45 281.997C356.484 289.099 358.193 303.592 353.95 309.527C350.83 313.891 345.251 315.541 340.257 316.486C335.878 316.463 332.002 315.152 328.596 312.373C324.604 309.118 323.3 305.571 322.787 300.556C322.159 294.411 322.498 287.982 322.502 281.801C322.504 276.447 322.153 266.695 323.083 261.824C323.394 260.19 323.99 259.095 325.038 257.833C328.745 253.368 333.731 251.606 339.365 251.1Z"/>
	<path fill="#FEFEFE" transform="matrix(1.06383 0 0 1.06397 0 6.10352e-05)" d="M338.415 262.524C339.349 262.485 340.244 262.445 341.151 262.726C342.556 263.162 343.89 264.035 344.503 265.424C345.241 267.092 345.642 293.906 345.495 297.5C345.441 298.834 345.396 300.629 344.797 301.834C343.938 303.564 342.316 304.221 340.587 304.746L337.476 304.748C336.056 303.921 335.02 303.096 334.417 301.511C333.334 298.667 333.225 267.57 334.238 265.421C335.028 263.747 336.793 263.1 338.415 262.524Z"/>
	<path fill="#232C3E" transform="matrix(1.06383 0 0 1.06397 0 6.10352e-05)" d="M198.855 372.349C199.716 372.416 200.708 372.611 201.528 372.298C203.266 372.274 205.035 372.184 206.764 372.384C209.858 372.623 217.769 371.908 219.995 372.733C222.593 372.115 225.733 372.011 228.365 372.388C232.163 372.632 237.14 372.936 240.879 372.361C243.494 372.137 248.35 371.722 250.752 372.73C250.814 372.712 250.876 372.692 250.939 372.676C251.042 372.648 251.147 372.624 251.25 372.596C253.591 371.955 258.467 372.63 261.28 372.385C262.989 372.257 265.571 371.905 267.176 372.469C268.368 372.495 269.585 372.574 270.775 372.51L276.01 372.521C277.535 372.508 279.071 372.534 280.59 372.385C280.989 372.345 281.391 372.308 281.792 372.291C284.741 372.164 300.58 371.713 301.947 373.086C304.086 375.235 304.28 380.678 304.27 383.51C303.429 383.869 302.557 384.135 301.687 384.416C302.389 387.568 302.999 390.787 303.915 393.882L299.38 394.01C298.253 397.805 297.241 401.652 296.21 405.475C292.177 404.306 288.052 403.679 284.041 402.346C283.066 404.073 281.822 405.705 280.702 407.342C279.103 404.51 277.076 401.916 275.638 398.99C274.117 399.261 272.667 399.246 271.128 399.213C270.428 398.823 269.624 398.435 269.043 397.874C267.622 396.503 266.066 391.837 264.473 391.269C262.78 392.847 264.264 397.317 261.977 399.817C260.251 401.703 257.61 401.742 255.256 401.813C254.544 406.309 254.353 411.171 254.201 415.724C251.875 414.569 249.524 413.452 247.278 412.146C243.981 417.504 238.586 421.294 233.922 425.391C229.891 420.818 225.496 416.497 221.274 412.097C219.602 412.902 217.974 413.782 216.343 414.665C215.346 410.14 213.771 405.805 213.159 401.188C211.38 401.246 209.667 401.182 207.934 401.652C206.358 398.538 205.119 395.255 204.542 391.801C203.119 394.221 201.69 397.429 199.219 398.943C198.315 399.497 197.646 399.537 196.64 399.265C196.066 399.11 195.643 399.028 195.05 399.026C192.83 399.848 190.325 405.17 189.026 407.252Q187.287 404.869 185.709 402.377C181.775 403.812 177.603 404.366 173.591 405.529C172.505 401.75 171.222 397.928 170.414 394.084C168.921 393.893 167.481 393.764 165.975 393.76C166.698 390.651 167.453 387.549 167.976 384.399L165.493 383.548L165.485 383.094C165.459 380.008 165.832 374.974 168.102 372.686C170.687 371.684 185.413 372.274 189.206 372.288C190.737 372.446 192.155 372.53 193.69 372.385C195.211 372.153 197.342 372.071 198.855 372.349Z"/>
	<path fill="#F6E1CE" transform="matrix(1.06383 0 0 1.06397 0 6.10352e-05)" d="M198.855 372.349C199.716 372.416 200.708 372.611 201.528 372.298Q201.314 375.126 201.166 377.958C199.973 376.093 199.289 374.529 198.855 372.349Z"/>
	<path fill="#F6E1CE" transform="matrix(1.06383 0 0 1.06397 0 6.10352e-05)" d="M182.79 383.886C183.825 383.967 184.737 384.486 185.429 385.262C185.849 385.733 185.897 386.092 185.898 386.696L185.295 387.296C184.733 387.576 184.357 387.736 183.721 387.807C183.361 387.572 183.12 387.48 182.894 387.099C182.371 386.219 182.514 384.829 182.79 383.886Z"/>
	<path fill="#F6E1CE" transform="matrix(1.06383 0 0 1.06397 0 6.10352e-05)" d="M285.553 383.905C286.042 383.92 286.328 384.021 286.77 384.229C287.049 384.66 287.208 385.023 287.174 385.552C287.119 386.419 286.775 387.45 286.136 388.053C285.179 387.667 284.317 387.117 283.434 386.589C284.11 385.673 284.842 384.795 285.553 383.905Z"/>
	<path fill="#F6E1CE" transform="matrix(1.06383 0 0 1.06397 0 6.10352e-05)" d="M267.176 372.469C268.368 372.495 269.585 372.574 270.775 372.51C270.783 372.576 270.794 372.642 270.799 372.709C270.964 374.727 270.032 375.554 268.79 376.999Q267.957 374.743 267.176 372.469Z"/>
	<path fill="#F6E1CE" transform="matrix(1.06383 0 0 1.06397 0 6.10352e-05)" d="M293.243 393.968C293.403 394.112 293.5 394.319 293.613 394.502C293.506 396.092 292.937 397.621 292.474 399.136L288.815 398.387C288.181 398.147 288.009 398.154 287.64 397.599C288.128 396.143 291.877 394.673 293.243 393.968Z"/>
	<path fill="#F6E1CE" transform="matrix(1.06383 0 0 1.06397 0 6.10352e-05)" d="M176.163 393.92C176.246 393.948 176.329 393.973 176.411 394.005C177.747 394.518 181.607 396.315 182.181 397.516L181.899 398.084C180.392 398.61 178.77 398.887 177.21 399.227C176.674 397.459 176.279 395.767 176.163 393.92Z"/>
	<path fill="#F6E1CE" transform="matrix(1.06383 0 0 1.06397 0 6.10352e-05)" d="M294.094 384.442C294.557 384.421 294.961 384.452 295.388 384.657C296.087 384.993 296.706 385.902 296.955 386.617C297.191 387.292 297.035 387.802 296.776 388.427C296.117 388.879 295.669 388.756 294.882 388.758L291.789 388.767Q291.922 387.944 292.113 387.132C292.458 385.723 292.844 385.177 294.094 384.442Z"/>
	<path fill="#F6E1CE" transform="matrix(1.06383 0 0 1.06397 0 6.10352e-05)" d="M174.486 384.426C174.916 384.429 175.286 384.452 175.705 384.565C176.503 384.78 177.09 385.59 177.467 386.277C177.886 387.041 177.87 387.587 177.639 388.402C177.113 388.884 176.784 388.754 176.086 388.767L172.375 388.719C172.816 386.971 173.031 385.631 174.486 384.426Z"/>
	<path fill="#F6E1CE" transform="matrix(1.06383 0 0 1.06397 0 6.10352e-05)" d="M188.348 391.706C189.531 391.88 190.596 392.769 191.564 393.426C190.705 394.844 189.749 396.215 188.834 397.598C187.6 396.594 186.504 394.435 185.602 393.092L188.348 391.706Z"/>
	<path fill="#F6E1CE" transform="matrix(1.06383 0 0 1.06397 0 6.10352e-05)" d="M280.412 391.678C281.791 391.628 282.959 392.484 284.096 393.159C283.37 394.457 282.322 395.677 281.432 396.875L281.091 397.281L280.687 397.224C279.692 396.137 278.958 394.746 278.189 393.489C278.914 392.868 279.67 392.279 280.412 391.678Z"/>
	<path fill="#F6E1CE" transform="matrix(1.06383 0 0 1.06397 0 6.10352e-05)" d="M276.01 372.521C277.535 372.508 279.071 372.534 280.59 372.385C281.02 374.484 281.387 376.365 281.353 378.523C278.894 376.836 277.078 375.392 276.01 372.521Z"/>
	<path fill="#F6E1CE" transform="matrix(1.06383 0 0 1.06397 0 6.10352e-05)" d="M189.206 372.288C190.737 372.446 192.155 372.53 193.69 372.385C193.246 374.648 191.685 376.159 189.847 377.433C189.307 377.808 188.984 378.083 188.311 377.955C187.931 376.283 188.816 373.931 189.206 372.288Z"/>
	<path fill="#FEC749" transform="matrix(1.06383 0 0 1.06397 0 6.10352e-05)" d="M250.752 372.73C250.814 372.712 250.876 372.692 250.939 372.676C251.042 372.648 251.147 372.624 251.25 372.596C253.591 371.955 258.467 372.63 261.28 372.385C261.937 374.022 262.513 375.639 262.997 377.336C261.735 376.574 260.402 375.683 259.03 375.139C256.363 374.083 253.463 373.763 250.752 372.73Z"/>
	<path fill="#FEC749" transform="matrix(1.06383 0 0 1.06397 0 6.10352e-05)" d="M206.764 372.384C209.858 372.623 217.769 371.908 219.995 372.733C215.708 375.146 211.418 376.755 206.47 376.812C206.707 375.353 206.708 373.859 206.764 372.384Z"/>
	<path fill="#FEC749" transform="matrix(1.06383 0 0 1.06397 0 6.10352e-05)" d="M245.037 398.404C246.787 398.34 248.414 398.913 250.064 399.422C249.93 402.018 249.66 404.612 249.388 407.197L247.589 406.313C245.488 405.241 243.348 403.976 241.1 403.252C242.357 401.588 243.58 399.901 245.037 398.404Z"/>
	<path fill="#FEC749" transform="matrix(1.06383 0 0 1.06397 0 6.10352e-05)" d="M221.301 398.282C221.565 398.245 221.826 398.212 222.092 398.197C223.844 398.102 226.516 401.617 227.846 402.795L223.581 404.991Q221.712 405.913 219.904 406.949L219.634 406.077C219.088 404.307 217.812 401.443 218.855 399.703C219.389 398.812 220.368 398.561 221.301 398.282Z"/>
	<path fill="#F6E1CE" transform="matrix(1.06383 0 0 1.06397 0 6.10352e-05)" d="M295.829 374.076C296.3 374.055 296.354 374.152 296.753 374.372C297.965 376.074 298.427 377.891 298.937 379.883C295.857 379.03 293.704 379.092 290.618 379.789C289.927 379.747 289.225 379.53 288.593 379.253C287.488 378.769 286.868 378.214 286.415 377.1C286.447 376.717 286.398 376.508 286.647 376.187C287.936 374.52 293.776 374.42 295.829 374.076Z"/>
	<path fill="#F6E1CE" transform="matrix(1.06383 0 0 1.06397 0 6.10352e-05)" d="M173.282 373.751C175.957 374.742 180.653 374.25 182.756 375.642C183.301 376.003 183.409 376.231 183.494 376.857C182.641 378.559 181.487 379.093 179.837 379.851C175.936 379.551 174.687 378.678 170.688 380.012C171.367 377.781 172.201 375.824 173.282 373.751Z"/>
	<path fill="#FEC749" transform="matrix(1.06383 0 0 1.06397 0 6.10352e-05)" d="M232.369 390.854C232.414 390.883 232.463 390.906 232.504 390.939C233.807 392.01 234.968 392.307 236.389 393.126C237.654 393.856 238.844 394.799 240.018 395.668L235.685 401.337C235.376 401.78 235.192 402.031 234.705 402.278C233.448 401.63 230.022 397.398 228.786 396.11L232.369 390.854Z"/>
	<path fill="#F6E1CE" transform="matrix(1.06383 0 0 1.06397 0 6.10352e-05)" d="M195.688 379.423C195.953 379.627 195.851 379.525 196.067 379.787C197.736 381.808 199.622 383.583 201.523 385.379C200.971 387.023 199.377 391.057 198.065 392.149L197.606 391.957C194.719 389.193 192.015 387.543 190.652 383.57C192.373 382.238 194.119 380.936 195.688 379.423Z"/>
	<path fill="#F6E1CE" transform="matrix(1.06383 0 0 1.06397 0 6.10352e-05)" d="M273.691 379.38C275.549 380.417 277.449 382.278 279.179 383.562C277.686 387.131 275.752 388.88 272.874 391.309C272.438 391.685 272.344 391.8 271.787 391.901C270.08 390.776 268.948 387.315 268.178 385.453C270.218 383.439 272.156 381.846 273.691 379.38Z"/>
	<path fill="#FEC749" transform="matrix(1.06383 0 0 1.06397 0 6.10352e-05)" d="M230.717 407.515Q230.941 407.626 231.167 407.733C233.654 408.892 235.756 408.618 238.252 407.705C239.597 408.451 240.993 409.127 242.36 409.833C240.911 412.014 239.227 413.687 237.287 415.439L234.317 417.985C231.6 415.214 228.967 412.356 226.252 409.58C227.781 408.977 229.243 408.241 230.717 407.515Z"/>
	<path fill="#FEC749" transform="matrix(1.06383 0 0 1.06397 0 6.10352e-05)" d="M228.365 372.388C232.163 372.632 237.14 372.936 240.879 372.361C240.283 376.436 237.678 381.922 234.961 385.052C230.999 381.561 229.082 377.619 228.365 372.388Z"/>
	<path fill="#FEC749" transform="matrix(1.06383 0 0 1.06397 0 6.10352e-05)" d="M223.462 377.242C224.174 377.718 224.974 380.384 225.371 381.223C226.309 383.205 227.273 384.868 228.66 386.566C227.355 388.709 225.912 390.764 224.496 392.835C220.38 392.603 218.073 393.361 214.703 395.668C213.542 395.727 212.368 395.983 211.22 396.171C209.274 391.463 208.917 386.659 210.883 381.918C215.391 381.067 219.341 379.176 223.462 377.242Z"/>
	<path fill="#FEC749" transform="matrix(1.06383 0 0 1.06397 0 6.10352e-05)" d="M245.511 376.083C247.586 377.26 249.978 378.379 252.288 378.993C254.009 379.45 255.743 379.732 257.417 380.358C257.684 380.716 257.888 381.026 258.03 381.453C258.882 384.022 258.902 393.674 257.725 396.132C256.699 396.196 254.991 395.287 253.998 394.897C246.135 392.729 246.129 393.663 239.332 388.422C242.286 384.428 243.831 380.71 245.511 376.083Z"/>
	<path fill="#232C3E" transform="matrix(1.06383 0 0 1.06397 0 6.10352e-05)" d="M74.382 325.855C75.9586 325.606 77.765 325.747 79.3647 325.741C88.8224 325.703 98.3388 326.8 107.755 327.594Q126.943 329.201 146.173 330.181Q204.202 333.06 262.297 332.221Q298.634 331.623 334.919 329.587Q346.43 328.913 357.922 327.966C369.136 326.99 390.689 324.144 400.82 326.553C402.919 327.052 404.572 327.559 405.725 329.501C406.79 331.295 407.257 333.54 407.936 335.511C409.848 341.064 411.564 346.53 413.13 352.192C413.804 354.63 414.57 357.043 414.958 359.551C415.163 360.876 415.178 362.181 414.817 363.483C413.778 367.233 410.409 369.746 407.234 371.642Q420.649 376.788 434.256 381.404C439.327 383.092 444.54 384.914 449.811 385.854C440.121 389.141 430.181 393.752 420.453 396.545C424.405 405.762 428.309 415.028 432.055 424.33C427.783 422.926 423.584 420.973 419.417 419.273Q409.863 415.383 400.184 411.813C396.586 410.486 392.957 409.177 389.266 408.13C383.748 406.565 378.118 405.796 373.199 402.624C369.948 400.527 366.598 397.464 365.759 393.555C365.646 382.696 366.314 371.821 366.269 360.946Q335.379 363.589 304.386 364.41C281.553 364.992 258.711 364.663 235.875 364.603C210.496 364.537 185.149 365.006 159.769 364.253C140.869 363.693 122.107 362.186 103.252 360.954C103.71 367.511 103.621 374.225 103.715 380.805C103.767 384.512 104.109 388.304 103.947 392C103.893 393.23 103.741 394.661 103.241 395.79C101.819 399 97.8504 402.052 94.8022 403.619C88.8345 406.687 81.4976 407.627 75.1247 409.833Q56.156 416.61 37.6039 424.456C41.7848 415.346 45.3334 405.874 49.2572 396.643C39.4084 393.273 29.6676 389.427 19.912 385.789C24.664 385.189 29.5043 383.384 34.0376 381.879C43.5876 378.708 52.9557 375.092 62.4261 371.7Q61.3193 370.936 60.2378 370.137C58.1136 368.548 55.0557 366.033 54.7617 363.2C54.1178 356.996 59.2089 343.204 61.313 337.036C62.206 334.418 63.0482 330.424 64.8215 328.302C66.6251 326.145 71.7363 326.103 74.382 325.855Z"/>
	<path fill="#FEFEFE" transform="matrix(1.06383 0 0 1.06397 0 6.10352e-05)" d="M287.528 337.807C288.827 337.712 290.166 337.766 291.47 337.762C292.052 340.089 292.974 355.202 292.151 356.984C290.632 357.033 289.104 357.003 287.583 357.003C287.477 354.073 286.258 339.302 287.528 337.807Z"/>
	<path fill="#FEFEFE" transform="matrix(1.06383 0 0 1.06397 0 6.10352e-05)" d="M343.14 334.808C343.848 334.753 344.583 334.689 345.292 334.759C347.998 335.029 346.197 346.138 348.17 348.736C349.278 349.525 355.227 348.71 356.942 348.747C357.006 349.782 357.325 351.685 356.895 352.623C356.597 353.272 356.415 353.262 355.78 353.473C352.878 353.467 349.922 354.002 347.024 354.218C345.908 354.301 344.308 354.556 343.423 353.797C343.07 352.805 342.815 351.814 342.683 350.768C342.435 348.811 341.506 337.042 341.766 336C341.94 335.301 342.57 335.129 343.14 334.808Z"/>
	<path fill="#FEFEFE" transform="matrix(1.06383 0 0 1.06397 0 6.10352e-05)" d="M274.768 338.133C276.478 338.007 279.008 337.521 280.628 338.046C281.259 338.251 281.676 338.632 281.949 339.241C282.331 340.092 282.075 341.165 281.751 341.981C280.52 343.291 277.834 342.776 276.097 342.858C276.154 347.75 276.282 352.62 276.239 357.515L271.937 357.446C270.859 356.005 271.083 345.583 270.928 343.047C269.589 343.025 267.394 343.527 266.239 342.919C265.48 342.519 265.022 341.897 264.822 341.067C264.657 340.376 264.705 339.757 265.124 339.16C266.265 337.535 272.673 338.368 274.562 338.158C274.631 338.151 274.699 338.141 274.768 338.133Z"/>
	<path fill="#FEFEFE" transform="matrix(1.06383 0 0 1.06397 0 6.10352e-05)" d="M205.753 338.765C208.58 338.74 217.594 338.175 219.609 339.298C220.007 340.564 219.781 342.192 219.739 343.522C217.315 343.481 214.137 343.082 211.791 343.596C211.256 343.713 211.015 343.884 210.744 344.376C210.513 344.795 210.433 345.532 210.563 345.991C211.096 347.868 216.36 346.364 217.955 347.459C218.491 347.828 218.454 348.212 218.583 348.803C218.522 349.704 218.601 350.237 218.089 350.995C216.087 352.16 212.821 351.525 210.544 351.506C210.509 353.094 210.791 354.821 210.517 356.38C210.382 357.146 210.103 357.494 209.492 357.943C208.367 358.097 206.992 358.157 205.945 357.681C204.671 355.491 205.678 342.41 205.753 338.765Z"/>
	<path fill="#FEFEFE" transform="matrix(1.06383 0 0 1.06397 0 6.10352e-05)" d="M315.145 336.611C315.528 336.53 315.823 336.564 316.209 336.592L316.457 336.975C316.124 339.79 311.23 353.47 309.768 356.026C308.566 356.253 306.972 356.704 305.801 356.235C304.137 355.568 300.103 345.647 299.116 343.564C298.158 341.603 297.341 339.58 296.504 337.565C297.85 337.402 299.567 337.008 300.867 337.481C302.722 338.156 306.08 347.296 307.218 349.616C309.077 345.456 309.99 340.944 311.725 336.734C312.864 336.734 314.008 336.659 315.145 336.611Z"/>
	<path fill="#FEFEFE" transform="matrix(1.06383 0 0 1.06397 0 6.10352e-05)" d="M251.55 338.308C253.657 338.106 255.62 338.426 257.453 339.531C258.808 340.347 260.074 341.544 260.437 343.126C260.349 343.55 260.367 343.878 260.056 344.202C259.226 345.065 257.774 344.781 256.681 344.741C255.883 343.975 255.074 343.104 253.981 342.789C252.898 342.477 251.985 342.501 251.014 343.076C250.738 343.564 250.718 343.576 250.794 344.128C252.427 346.315 255.844 346.546 258.123 347.96C259.61 348.882 260.694 350.247 261.035 351.988Q261.12 352.408 261.117 352.836Q261.115 353.264 261.026 353.683Q260.938 354.102 260.766 354.494Q260.594 354.886 260.346 355.235C258.876 357.326 256.447 358.08 254.057 358.474C252.114 358.591 250.171 358.363 248.432 357.43C247.185 356.761 245.741 355.537 245.41 354.087C245.268 353.466 245.404 353.164 245.695 352.626C247.747 351.252 250.686 354.075 252.788 354.27C253.803 354.364 254.906 353.928 255.691 353.315L255.722 352.852C254.242 350.951 250.717 350.429 248.619 349.228C246.395 347.954 245.614 346.738 244.951 344.358C245.206 343.179 245.409 342.099 246.134 341.098C247.476 339.243 249.4 338.667 251.55 338.308Z"/>
	<path fill="#FEFEFE" transform="matrix(1.06383 0 0 1.06397 0 6.10352e-05)" d="M327.773 335.856C328.117 335.817 328.445 335.875 328.788 335.912C330.401 337.471 337.317 351.953 337.393 354.154C337.207 354.369 337.196 354.41 336.91 354.575C336.217 354.974 334.729 355.105 333.96 354.936C332.644 354.647 331.868 353.198 331.148 352.178C329.904 352.368 328.713 352.484 327.453 352.512C326.677 352.481 325.726 352.405 324.986 352.671C323.694 353.133 323.179 354.594 322.613 355.723C320.97 355.737 319.359 355.789 317.724 355.951C319.869 349.81 321.809 341.727 324.671 336.084L327.773 335.856Z"/>
	<path fill="#232C3E" transform="matrix(1.06383 0 0 1.06397 0 6.10352e-05)" d="M326.969 343.081L327.541 343.378C328.196 344.52 329.389 346.328 329.135 347.668L328.646 347.9L326.685 347.962C326.045 347.633 326.049 347.621 325.753 346.962C325.796 345.647 326.497 344.3 326.969 343.081Z"/>
	<path fill="#FEFEFE" transform="matrix(1.06383 0 0 1.06397 0 6.10352e-05)" d="M133.051 335.985C137.952 335.946 143.043 336.528 147.954 336.795C147.822 338.371 147.652 339.918 147.392 341.478C144.249 341.064 140.935 341.151 137.761 341.013C137.725 341.9 137.647 342.788 137.584 343.674C140.202 344.108 142.86 344.232 145.505 344.414C145.529 345.2 145.621 346.089 145.532 346.867C145.467 347.436 145.305 347.87 144.845 348.236C143.422 349.369 139.792 348.468 138.038 348.234C137.553 348.381 137.628 348.4 137.356 348.785C137.392 349.492 137.401 349.801 137.835 350.396C139.513 351.515 141.959 351.122 143.892 351.19C145.066 351.231 145.973 351.178 146.82 352.094C147.062 353.386 146.753 354.746 146.578 356.038C143.237 356.057 135.231 356.112 132.39 354.885C131.811 352.736 132.668 338.841 133.051 335.985Z"/>
	<path fill="#FEFEFE" transform="matrix(1.06383 0 0 1.06397 0 6.10352e-05)" d="M154.163 337.094C156.849 337.292 164.582 337.03 166.429 337.743C167.139 338.017 167.712 338.504 167.962 339.247C168.234 340.055 168.131 340.697 167.784 341.449C165.655 343.463 162.426 341.701 159.915 342.028C159.003 342.146 158.506 342.503 157.947 343.202C157.824 343.788 157.806 343.827 158.047 344.37C159.524 345.694 161.772 345.001 163.606 345.16C164.295 345.22 165.063 345.343 165.501 345.941C166.027 346.661 165.793 348.242 165.652 349.086C164.485 350.346 159.69 349.301 157.692 349.628C157.617 349.64 157.542 349.654 157.467 349.668C157.549 350.16 157.606 350.84 157.919 351.243C159.478 353.249 163.936 351.617 166.072 352.196C166.526 352.319 166.975 352.613 167.2 353.029C167.837 354.207 167.182 355.781 166.87 356.995C164.661 357.06 154.211 357.149 152.808 355.868C152.463 354.612 152.484 353.296 152.528 352.003C152.639 348.738 152.494 341.318 153.277 338.458C153.471 337.751 153.628 337.594 154.163 337.094Z"/>
	<path fill="#FEFEFE" transform="matrix(1.06383 0 0 1.06397 0 6.10352e-05)" d="M226.562 338.796C229.799 338.74 233.079 338.588 236.313 338.693C237.49 338.731 239.161 338.852 239.973 339.82C240.361 340.283 240.39 341.016 240.321 341.604C239.851 345.555 232.559 342.314 230.293 344.036C230.243 344.281 230.113 344.735 230.144 345C230.19 345.398 230.284 345.768 230.601 346.027C231.786 346.993 234.741 346.426 236.252 346.439C236.998 346.445 237.53 346.558 238.075 347.103C238.466 348.3 238.259 349.733 238.218 350.981C235.749 351.069 232.375 350.485 230.082 351.39C230.149 352.084 230.148 352.56 230.647 353.1C233.162 354.233 237.404 353.493 240.232 353.558C240.283 354.881 240.478 356.534 239.903 357.75C239.66 357.966 239.494 358.046 239.169 358.096C237.229 358.397 226.88 358.648 225.703 357.761C224.941 355.584 224.817 342.141 225.452 339.953C225.659 339.241 225.93 339.121 226.562 338.796Z"/>
	<path fill="#FEFEFE" transform="matrix(1.06383 0 0 1.06397 0 6.10352e-05)" d="M173.529 338C176.018 337.967 178.518 337.901 181.007 337.981C183.588 338.064 186.367 338.309 188.2 340.367C189.497 341.824 190.232 344.25 190.014 346.185C189.715 348.833 187.982 350.451 186.011 351.992C186.983 353.329 188.477 354.997 189.028 356.539C189.227 357.096 189.299 357.133 189.024 357.68L187.989 357.781C181.51 357.755 183.595 354.181 179.424 351.873C179.015 351.904 178.809 351.811 178.521 352.16C177.646 353.218 177.736 355.959 177.693 357.282C176.132 357.131 174.569 357.063 173.003 356.99C172.887 351.771 172.892 343.069 173.529 338Z"/>
	<path fill="#232C3E" transform="matrix(1.06383 0 0 1.06397 0 6.10352e-05)" d="M179.009 342.536C180.847 342.468 183.39 342.266 184.794 343.77C185.154 344.155 185.475 344.708 185.406 345.26C185.294 346.154 184.579 347.053 183.939 347.638C182.704 347.718 181.095 347.976 179.897 347.734C178.972 347.547 178.492 347.147 177.984 346.375C177.777 345.161 178.349 343.554 179.009 342.536Z"/>
	<path fill="#FEFEFE" transform="matrix(1.06383 0 0 1.06397 0 6.10352e-05)" d="M111.246 334.272C115.926 334.188 122.471 334.059 126.036 337.414C126.41 338.384 126.629 339.417 126.887 340.423C126.344 342.301 125.877 343.338 124.349 344.664C125.632 345.887 126.479 346.945 127.133 348.606C126.75 350.067 126.362 351.239 125.579 352.534C124.173 353.801 122.762 354.436 120.855 354.471C118.957 354.506 111.158 354.016 110.036 352.907C109.631 349.302 110.514 337.91 111.246 334.272Z"/>
	<path fill="#232C3E" transform="matrix(1.06383 0 0 1.06397 0 6.10352e-05)" d="M115.844 339.278C117.002 339.222 118.207 339.114 119.363 339.234C120.344 339.335 120.87 339.586 121.476 340.363C121.591 341.096 121.447 341.478 121.174 342.137C120.61 342.331 120.063 342.445 119.468 342.485C118.099 342.577 117.179 342.645 116.086 341.689C115.642 340.879 115.773 340.174 115.844 339.278Z"/>
	<path fill="#232C3E" transform="matrix(1.06383 0 0 1.06397 0 6.10352e-05)" d="M115.757 346.058C117.357 346.153 119.51 346.106 120.925 346.924C121.472 347.241 121.614 347.553 121.784 348.132C121.592 348.937 121.443 349.064 120.897 349.649C119.058 349.816 117.068 349.91 115.347 349.166C115.128 348.907 114.851 348.709 114.823 348.353C114.758 347.549 115.284 346.676 115.757 346.058Z"/>
	<path fill="#FEC749" transform="matrix(1.06383 0 0 1.06397 0 6.10352e-05)" d="M393.147 357.604C396.093 357.008 403.319 357.38 406.232 358.39C407.394 358.793 408.74 359.753 409.204 360.94C409.51 361.726 409.368 362.504 408.973 363.228C405.786 369.074 389.884 373.181 383.703 374.874C379.458 375.65 375.116 377.338 371.175 379.068C371.544 372.912 371.498 366.744 371.735 360.581C378.605 359.156 386.157 358.243 393.147 357.604Z"/>
	<path fill="#FEC749" transform="matrix(1.06383 0 0 1.06397 0 6.10352e-05)" d="M68.7258 357.599C75.9186 356.423 90.1539 359.437 97.9949 360.427C98.1247 366.626 98.2489 372.867 98.5681 379.058C96.6671 378.178 94.6947 377.446 92.7448 376.682C82.8463 373.529 71.7943 372.113 63.1734 365.819C61.9172 364.902 60.4667 363.613 60.2964 361.971C60.2116 361.153 60.4887 360.46 61.0285 359.85C62.8177 357.83 66.2455 357.801 68.7258 357.599Z"/>
	<path fill="#232C3E" transform="matrix(1.06383 0 0 1.06397 0 6.10352e-05)" d="M294.97 40.8747C294.993 40.8926 295.019 40.9071 295.039 40.9283C295.922 41.8563 295.938 48.8507 296.073 50.5947C296.399 54.7745 297.675 58.8374 297.895 62.9666C298.23 69.2574 297.97 75.6894 297.97 81.9935L297.993 119.752L308.252 119.775L308.245 128.503C310.321 128.475 316.25 127.832 317.855 129.204C318.911 130.107 318.496 147.564 318.489 150.214C320.97 149.137 323.183 148.457 325.867 148.151C326.688 145.411 327.561 142.904 329.287 140.589C331.709 137.34 335.3 134.944 339.355 134.395C343.645 133.815 347.35 135.345 350.714 137.897C352.65 135.924 354.65 134.045 357.322 133.133C360.068 132.196 362.98 132.333 365.581 133.658C369.274 135.54 370.86 138.84 372.017 142.589C373.341 142.316 374.685 142.262 376.034 142.241C380.685 142.17 384.953 143.825 388.275 147.101C392.732 151.497 394.016 156.649 394.014 162.733C394.708 162.86 395.484 162.962 396.117 163.29C396.805 163.647 397.084 164.175 397.305 164.884C397.258 165.378 397.215 165.632 396.915 166.047C396.232 166.991 395.011 167.027 393.961 167.154L393.993 177.512C400.021 177.462 406.836 176.539 412.282 179.579Q413.001 179.979 413.676 180.449Q414.351 180.92 414.976 181.455Q415.6 181.99 416.169 182.585Q416.737 183.179 417.243 183.828Q417.749 184.477 418.188 185.172Q418.627 185.868 418.994 186.604Q419.361 187.34 419.653 188.109Q419.945 188.879 420.159 189.673Q420.395 190.521 420.546 191.388Q420.697 192.256 420.762 193.133Q420.827 194.011 420.805 194.891Q420.784 195.771 420.676 196.645Q420.568 197.519 420.374 198.377Q420.181 199.236 419.904 200.072Q419.627 200.907 419.269 201.712Q418.911 202.516 418.476 203.281C415.737 208.019 411.75 210.07 406.62 211.405C406.455 213.849 406.502 216.276 406.545 218.722C409.887 218.839 418.324 217.768 420.682 219.9C421.734 220.851 422.02 222.224 422.055 223.588C422.09 225.019 421.849 226.635 420.76 227.666C418.509 229.798 409.61 229.005 406.497 228.985C406.517 231.48 407.279 237.761 405.514 239.511C404.882 240.137 403.844 240.138 402.998 240.189C399.136 240.419 395.183 240.249 391.31 240.248L369.743 240.242L303.414 240.233L97.125 240.237C92.4063 240.231 67.185 240.798 64.6489 239.846C64.0731 239.63 63.8613 239.222 63.6382 238.673C62.9329 236.939 62.6541 234.798 62.5845 232.938C62.3913 227.78 62.9515 222.52 63.1489 217.359C63.3778 211.376 63.3174 205.266 63.8347 199.306C63.918 198.346 64.0613 197.424 64.4345 196.53C67.0271 194.453 73.0116 193.262 76.339 192.049C73.6316 188.859 71.7585 185.031 71.2442 180.86C70.5501 175.23 71.9722 169.486 75.5202 165.027Q75.8277 164.633 76.1543 164.254Q76.4808 163.876 76.8256 163.514Q77.1703 163.152 77.5325 162.807Q77.8947 162.462 78.2734 162.136Q78.6521 161.81 79.0464 161.502Q79.4408 161.195 79.8497 160.907Q80.2587 160.62 80.6813 160.353Q81.104 160.086 81.5392 159.84Q81.9745 159.594 82.4213 159.369Q82.8682 159.145 83.3255 158.943Q83.7829 158.741 84.2496 158.562Q84.7163 158.383 85.1913 158.227Q85.6663 158.071 86.1484 157.938Q86.6305 157.806 87.1185 157.697Q87.6065 157.589 88.0993 157.504Q88.5921 157.42 89.0884 157.36C95.8222 156.599 101.045 158.554 106.25 162.741Q106.304 149.228 106.706 135.721C106.811 131.148 106.278 126.206 107.343 121.748C108.667 121.19 110.037 120.759 111.4 120.305C113.079 116.801 122.406 98.8305 124.732 97.384C125.132 97.1349 125.266 97.1379 125.728 97.2633C126.646 97.5126 127.627 98.6241 128.193 99.3335C130.051 101.666 131.532 104.58 133.078 107.136C135.77 111.587 138.624 116.03 140.986 120.664C141.894 121.131 142.705 121.555 143.487 122.226C144.374 123.825 144.184 135.196 144.219 138.059C151.44 131.756 158.584 128.064 168.266 127.383L168.254 109.281C168.255 103.809 168.093 98.263 169.217 92.876C170.666 85.935 174.106 79.1086 180.193 75.165C185.725 71.5809 193.48 70.4534 199.875 71.8548Q200.637 70.3139 201.579 68.8755Q202.52 67.4371 203.627 66.1218Q204.734 64.8066 205.99 63.6335Q207.247 62.4604 208.635 61.4463C213.979 57.6138 220.959 56.3986 227.392 57.4884C234.03 58.6129 239.539 62.7739 243.372 68.1732Q244.017 67.8103 244.693 67.5101Q245.369 67.21 246.07 66.9753Q246.772 66.7407 247.492 66.5737Q248.213 66.4067 248.946 66.3088Q249.679 66.2109 250.418 66.1831Q251.158 66.1552 251.896 66.1977Q252.635 66.2401 253.366 66.3524Q254.097 66.4647 254.814 66.6459C259.232 67.7796 262.279 70.8065 264.53 74.6296C265.348 74.4075 266.172 74.1841 267.004 74.0177Q267.739 73.8642 268.486 73.7844Q269.233 73.7047 269.984 73.6996Q270.735 73.6944 271.483 73.764Q272.231 73.8335 272.969 73.9769Q273.706 74.1204 274.426 74.3364Q275.145 74.5524 275.839 74.8389Q276.534 75.1253 277.196 75.4793Q277.859 75.8332 278.483 76.2513C282.107 78.6831 284.366 82.4393 285.186 86.6916C286.065 91.2511 285.279 95.763 282.488 99.5111C281.509 100.825 280.338 101.956 279.423 103.322C279.376 103.392 279.331 103.463 279.285 103.533C279.205 106.651 278.879 126.771 279.317 128.065C279.411 128.342 279.8 128.513 280.061 128.587C280.6 128.739 280.99 128.549 281.431 128.271C282.221 127.121 281.78 121.411 281.775 119.756L292.028 119.748C292.222 106.611 292.031 93.4433 292.03 80.3029C292.03 73.9728 291.654 67.3686 292.26 61.0667C292.456 59.0215 293.483 57.3638 293.728 55.3879C294.32 50.6055 294.055 45.6074 294.97 40.8747Z"/>
	<path fill="#FEFEFE" transform="matrix(1.06383 0 0 1.06397 0 6.10352e-05)" d="M311.264 133.639C311.936 133.643 312.411 133.591 312.965 134.036C313.752 135.567 313.436 137.192 313.331 138.853L313.179 138.922C312.237 138.283 311.568 134.774 311.264 133.639Z"/>
	<path fill="#FEFEFE" transform="matrix(1.06383 0 0 1.06397 0 6.10352e-05)" d="M279.265 133.651L280.658 133.746L281.008 134.183C281.131 135.639 280.218 137.322 279.731 138.701L279.465 139.261L279.203 139.062C278.945 137.314 279.178 135.416 279.265 133.651Z"/>
	<path fill="#FEFEFE" transform="matrix(1.06383 0 0 1.06397 0 6.10352e-05)" d="M290.74 133.749L295.333 133.723C294.471 136.249 293.19 138.749 292.102 141.191L290.579 144.28C290.826 140.789 290.731 137.249 290.74 133.749Z"/>
	<path fill="#FEFEFE" transform="matrix(1.06383 0 0 1.06397 0 6.10352e-05)" d="M351.87 169.709C352.781 169.682 354.155 169.488 354.858 170.154C356.306 171.523 355.544 175.396 355.425 177.261L351.49 177.246C351.466 174.781 351.239 172.11 351.87 169.709Z"/>
	<path fill="#FEFEFE" transform="matrix(1.06383 0 0 1.06397 0 6.10352e-05)" d="M367.328 169.451C367.859 169.514 368.377 169.654 368.898 169.774C369.242 170.038 369.402 170.21 369.571 170.623C370.168 172.08 370.181 175.994 369.448 177.408L368.812 177.509C368.141 177.524 367.446 177.569 366.779 177.488C366.407 177.443 366.147 177.496 365.94 177.137C365.164 175.793 365.585 172.541 365.937 171.041C366.127 170.23 366.671 169.883 367.328 169.451Z"/>
	<path fill="#FEFEFE" transform="matrix(1.06383 0 0 1.06397 0 6.10352e-05)" d="M296.741 133.738L302.263 133.748Q302.327 139.144 302.208 144.539C300.618 143.111 297.807 136.024 296.741 133.738Z"/>
	<path fill="#FEFEFE" transform="matrix(1.06383 0 0 1.06397 0 6.10352e-05)" d="M377.728 223.001L385.257 222.967C385.293 225.293 385.237 227.623 385.21 229.949C382.727 230.056 380.242 230.024 377.757 230.014L377.728 223.001Z"/>
	<path fill="#FEFEFE" transform="matrix(1.06383 0 0 1.06397 0 6.10352e-05)" d="M384.254 167.245L389.755 167.253L389.745 177.236L384.253 177.264L384.254 167.245Z"/>
	<path fill="#FEFEFE" transform="matrix(1.06383 0 0 1.06397 0 6.10352e-05)" d="M291.003 124.894C295.048 124.642 299.006 124.75 303.045 125.042L302.975 128.441C301.584 128.496 300.184 128.487 298.792 128.508L287.229 128.494L287.251 125L291.003 124.894Z"/>
	<path fill="#FEFEFE" transform="matrix(1.06383 0 0 1.06397 0 6.10352e-05)" d="M125.508 105.404C128.217 108.193 130.628 113.311 132.625 116.776L126.207 116.752L119.233 116.773Q122.304 111.052 125.508 105.404Z"/>
	<path fill="#FEFEFE" transform="matrix(1.06383 0 0 1.06397 0 6.10352e-05)" d="M388.739 222.255L418.008 222.244L418.003 225.512L388.75 225.509L388.739 222.255Z"/>
	<path fill="#FEFEFE" transform="matrix(1.06383 0 0 1.06397 0 6.10352e-05)" d="M113.686 124.908C114.16 125.354 114.224 125.342 114.262 126.005C114.414 128.637 114.274 131.363 114.27 134.004L114.267 151.15C114.303 155.89 115.193 164.71 114.365 169.088C114.085 170.573 112.863 171.77 111.88 172.843L111.448 172.92C111.412 172.863 111.369 172.81 111.341 172.749C110.985 171.971 111.809 127.491 112.204 126.292C112.467 125.492 113.012 125.303 113.686 124.908Z"/>
	<path fill="#FEFEFE" transform="matrix(1.06383 0 0 1.06397 0 6.10352e-05)" d="M359.975 181.732Q364.653 181.747 369.33 181.713C367.19 183.96 365.479 186.781 364.673 189.789C363.329 194.804 364.222 199.617 366.781 204.046C367.521 205.061 368.323 206.038 369.1 207.026C366.115 207.437 363.01 207.268 360.003 207.206C359.885 198.718 359.97 190.221 359.975 181.732Z"/>
	<path fill="#FEFEFE" transform="matrix(1.06383 0 0 1.06397 0 6.10352e-05)" d="M362.147 216.305C362.479 216.266 362.792 216.231 363.127 216.249C365.747 216.388 368.124 217.662 369.795 219.671C371.236 221.403 372.262 223.915 371.967 226.197C371.753 227.85 371.186 228.931 369.873 229.932C366.422 230.119 362.945 230.027 359.49 230.008C359.525 226.567 358.917 220.131 359.657 217.098C360.387 216.531 361.262 216.463 362.147 216.305Z"/>
	<path fill="#232C3E" transform="matrix(1.06383 0 0 1.06397 0 6.10352e-05)" d="M362.297 222.699C363.341 222.715 364.313 222.948 365.055 223.738Q365.219 223.913 365.344 224.117Q365.469 224.322 365.549 224.548Q365.629 224.774 365.661 225.011Q365.693 225.249 365.675 225.488C365.597 226.648 364.85 227.294 364.006 227.987C363.58 228.009 363.154 228.038 362.729 227.978C361.934 227.865 361.285 227.483 360.827 226.818C360.417 226.223 360.312 225.563 360.468 224.862C360.72 223.733 361.348 223.275 362.297 222.699Z"/>
	<path fill="#FEFEFE" transform="matrix(1.06383 0 0 1.06397 0 6.10352e-05)" d="M135.727 124.859C136.729 125.016 137.726 125.237 138.721 125.432C138.875 141.421 139.525 157.401 139.523 173.398C138.131 172.554 136.927 171.119 135.77 169.968C135.604 164.731 135.729 159.455 135.729 154.215L135.727 124.859Z"/>
	<path fill="#FEFEFE" transform="matrix(1.06383 0 0 1.06397 0 6.10352e-05)" d="M310.327 144.946C310.422 145.052 310.529 145.149 310.611 145.266C311.555 146.596 312.891 152.456 313.124 154.274C313.605 158.037 314.084 177.141 313.156 180.207C312.43 180.614 311.869 180.505 311.046 180.508L307.49 180.5L307.458 163.25C307.453 160.106 307.2 156.714 307.632 153.607C308.023 150.791 309.061 147.498 310.327 144.946Z"/>
	<path fill="#FEFEFE" transform="matrix(1.06383 0 0 1.06397 0 6.10352e-05)" d="M282.32 144.634C282.386 144.69 282.459 144.739 282.517 144.803C283.054 145.397 283.322 146.68 283.578 147.464C284.294 149.663 284.962 151.946 285.282 154.238C285.734 157.479 285.53 160.89 285.527 164.157L285.499 180.495L283.063 180.504L279.235 180.5L279.216 163.117C279.213 160.025 278.969 156.699 279.488 153.654C280.015 150.556 281.206 147.562 282.32 144.634Z"/>
	<path fill="#FEFEFE" transform="matrix(1.06383 0 0 1.06397 0 6.10352e-05)" d="M322.644 167.031C326.034 166.905 337.68 166.253 339.866 168.444C341.701 170.282 341.047 174.847 341.012 177.257L337.375 177.264L318.487 177.251C318.471 174.94 317.935 171.339 319.066 169.252C319.839 167.824 321.166 167.411 322.644 167.031Z"/>
	<path fill="#FEFEFE" transform="matrix(1.06383 0 0 1.06397 0 6.10352e-05)" d="M344.97 211.735L402.255 211.758Q402.277 215.222 402.224 218.686L399.812 218.754C395.213 218.756 378.264 219.358 375.335 218.453C373.764 217.968 372.694 216.555 371.539 215.464C368.444 212.541 363.52 211.342 359.41 212.615C357.434 213.227 355.652 214.457 353.62 214.917C350.883 215.538 347.794 215.223 344.986 215.312L344.97 211.735Z"/>
	<path fill="#FEFEFE" transform="matrix(1.06383 0 0 1.06397 0 6.10352e-05)" d="M382.759 181.76C386.345 181.644 389.964 181.739 393.553 181.733C390.759 184.847 388.745 188.105 388.3 192.347C387.707 198.01 389.339 202.325 392.901 206.66C392.448 207.092 391.57 207.037 390.939 207.102C388.569 207.355 385.286 207.661 382.983 206.896C380.451 206.056 378.528 203.965 377.356 201.631Q376.985 200.896 376.69 200.128Q376.395 199.359 376.18 198.565Q375.964 197.771 375.83 196.958Q375.695 196.146 375.644 195.325Q375.592 194.503 375.624 193.681Q375.655 192.858 375.77 192.043Q375.884 191.228 376.081 190.429Q376.277 189.629 376.553 188.854C377.693 185.579 379.589 183.264 382.759 181.76Z"/>
	<path fill="#FEFEFE" transform="matrix(1.06383 0 0 1.06397 0 6.10352e-05)" d="M269.823 185.758C286.618 185.505 303.458 185.726 320.256 185.751L320.268 192.011L269.782 192.012C269.717 189.917 269.729 187.851 269.823 185.758Z"/>
	<path fill="#FEFEFE" transform="matrix(1.06383 0 0 1.06397 0 6.10352e-05)" d="M271.594 197.377C276.971 196.776 284.5 197.234 290.062 197.235C303.06 197.238 316.028 197.27 329.02 197.5L329.025 202.754L318.125 202.757L260.994 202.758C260.963 201.008 260.981 199.255 260.978 197.504C264.442 197.45 268.173 197.836 271.594 197.377Z"/>
	<path fill="#FEFEFE" transform="matrix(1.06383 0 0 1.06397 0 6.10352e-05)" d="M296.063 142.665C296.131 142.731 296.205 142.791 296.267 142.862C297.218 143.957 297.847 145.99 298.519 147.319C299.799 149.849 301.502 152.475 302.129 155.258C302.696 157.777 302.308 161.078 302.301 163.695L302.247 180.508L296.875 180.508L290.75 180.503C290.767 174.281 290.557 168.085 290.624 161.853C290.651 159.293 290.401 156.315 291.115 153.842C292.212 150.04 294.377 146.253 296.063 142.665Z"/>
	<path fill="#FEFEFE" transform="matrix(1.06383 0 0 1.06397 0 6.10352e-05)" d="M186.702 220.503C201.381 220.307 216.084 220.469 230.765 220.495L230.759 229.505C216.173 229.468 201.588 230.23 187.006 229.449Q186.935 224.973 186.702 220.503Z"/>
	<path fill="#FEFEFE" transform="matrix(1.06383 0 0 1.06397 0 6.10352e-05)" d="M91.1568 162.357C91.5227 162.254 91.4422 162.246 91.7673 162.249C96.3107 162.285 100.721 164.492 103.756 167.819C106.671 171.015 106.104 174.811 105.953 178.795C105.429 179.6 104.893 180.386 104.259 181.11C102.271 183.378 97.3522 185.711 94.2621 185.819C93.7742 185.836 93.9747 185.895 93.5993 185.554C93.8252 182.26 102.489 177.784 102.823 173.957C102.877 173.329 102.781 173.186 102.426 172.724C101.757 172.365 101.218 172.295 100.459 172.269C98.1128 172.186 95.3655 176.02 93.7234 177.582C93.6974 175.447 94.2579 172.845 93.5289 170.831C93.1407 169.758 92.2196 169.452 91.2718 168.979C90.86 169.088 90.3084 169.138 90.002 169.446C88.6108 170.845 89.2644 179.5 89.1645 181.913C88.034 180.719 86.9947 179.437 85.859 178.24C84.6961 177.945 83.4482 177.446 82.3319 178.027C81.804 178.931 81.9935 180.036 82.0271 181.051C84.0361 183.471 86.3029 185.681 88.5009 187.929Q85.2709 189.08 81.9926 190.085C78.741 187.26 76.6347 183.681 76.2711 179.339Q76.2046 178.574 76.2143 177.805Q76.224 177.037 76.3099 176.274Q76.3958 175.51 76.5571 174.759Q76.7183 174.008 76.9533 173.276Q77.1882 172.545 77.4946 171.84Q77.801 171.135 78.1758 170.465Q78.5506 169.794 78.9901 169.164Q79.4296 168.534 79.9294 167.95C82.7893 164.579 86.7756 162.677 91.1568 162.357Z"/>
	<path fill="#FEFEFE" transform="matrix(1.06383 0 0 1.06397 0 6.10352e-05)" d="M119.504 122Q125.001 121.963 130.497 122.004L130.493 165.032L128.723 163.342C128.113 162.702 127.503 162.018 126.822 161.453C126.121 160.871 125.207 160.455 124.276 160.564C122.34 160.791 120.647 163.339 119.455 164.739C119.841 150.533 119.474 136.217 119.504 122Z"/>
	<path fill="#232C3E" transform="matrix(1.06383 0 0 1.06397 0 6.10352e-05)" d="M124.252 130.471C125.431 130.457 126.363 130.595 127.25 131.438C129.704 133.769 128.768 140.456 128.734 143.688L126.293 143.736L121.529 143.729C121.496 140.631 120.917 137.506 121.597 134.432C122.002 132.602 122.645 131.449 124.252 130.471Z"/>
	<path fill="#FEFEFE" transform="matrix(1.06383 0 0 1.06397 0 6.10352e-05)" d="M403.082 181.773C405.533 181.587 407.95 182.066 410.102 183.272C413.004 184.898 415.216 187.784 416.104 190.982Q416.277 191.602 416.387 192.236Q416.498 192.87 416.545 193.512Q416.593 194.154 416.576 194.797Q416.559 195.441 416.479 196.08Q416.399 196.718 416.256 197.346Q416.113 197.973 415.908 198.584Q415.704 199.194 415.44 199.781Q415.176 200.368 414.855 200.926C412.779 204.511 409.828 206.173 405.921 207.232C403.488 207.391 401.039 206.896 398.904 205.695C395.937 204.026 393.836 201.131 392.925 197.874Q392.752 197.26 392.64 196.631Q392.529 196.003 392.482 195.366Q392.434 194.73 392.45 194.092Q392.466 193.453 392.546 192.82Q392.626 192.187 392.769 191.565Q392.912 190.943 393.116 190.338Q393.321 189.733 393.584 189.152Q393.848 188.571 394.169 188.019C396.236 184.49 399.21 182.754 403.082 181.773Z"/>
	<path fill="#232C3E" transform="matrix(1.06383 0 0 1.06397 0 6.10352e-05)" d="M403.898 188.522C405.277 188.452 406.472 188.555 407.713 189.214Q407.97 189.35 408.213 189.511Q408.455 189.672 408.681 189.856Q408.906 190.04 409.112 190.246Q409.318 190.452 409.502 190.677Q409.686 190.902 409.847 191.145Q410.009 191.387 410.145 191.645Q410.281 191.902 410.391 192.171Q410.5 192.441 410.583 192.72C411.059 194.287 410.893 196.059 410.074 197.481C409.147 199.09 407.834 199.728 406.113 200.238C405.079 200.297 404.055 200.286 403.06 199.957C401.587 199.469 400.386 198.48 399.718 197.072C399.02 195.603 398.986 193.783 399.597 192.28C400.456 190.169 401.906 189.347 403.898 188.522Z"/>
	<path fill="#FEFEFE" transform="matrix(1.06383 0 0 1.06397 0 6.10352e-05)" d="M404.535 192.198C405.304 192.263 406.324 192.63 406.809 193.266C407.139 193.699 407.199 194.157 407.134 194.684C407.014 195.651 406.203 196.164 405.493 196.715C405.409 196.718 405.326 196.728 405.242 196.725C404.509 196.693 403.676 196.308 403.257 195.689C402.923 195.197 402.909 194.601 403.016 194.039C403.195 193.098 403.808 192.711 404.535 192.198Z"/>
	<path fill="#FEFEFE" transform="matrix(1.06383 0 0 1.06397 0 6.10352e-05)" d="M325.487 181.749L355.49 181.751L355.506 207.253L345.038 207.264C345.023 206.967 345.002 206.671 344.984 206.374C344.928 205.496 344.907 204.733 344.366 203.999C342.519 201.497 338.833 203.636 336.255 203.218C331.97 202.525 335.762 195.792 333.732 193.166C332.371 191.407 327.894 192.344 325.836 192.07L325.492 192.022L325.487 181.749Z"/>
	<path fill="#FEFEFE" transform="matrix(1.06383 0 0 1.06397 0 6.10352e-05)" d="M250.54 208.005L293.437 207.966L339.715 208.02C339.796 210.343 339.739 212.681 339.733 215.006C310.002 215.345 280.227 215.041 250.492 215.02Q250.472 211.512 250.54 208.005Z"/>
	<path fill="#FEFEFE" transform="matrix(1.06383 0 0 1.06397 0 6.10352e-05)" d="M173.476 100.948C173.448 94.5387 175.549 86.8827 180.039 82.133C183.724 78.2352 190.163 75.8866 195.511 76.4259C197.694 76.6461 199.816 77.6922 202.022 77.6344C203.626 77.0865 206.066 71.5059 207.411 69.8221C210.846 65.5248 215.555 62.8711 221.047 62.3271Q221.63 62.2723 222.215 62.2537Q222.8 62.2351 223.385 62.2527Q223.971 62.2704 224.554 62.3242Q225.137 62.3781 225.715 62.4679Q226.294 62.5578 226.866 62.6833Q227.437 62.8088 228 62.9694Q228.563 63.1301 229.115 63.3253Q229.667 63.5205 230.206 63.7495Q230.745 63.9785 231.269 64.2404Q231.792 64.5023 232.299 64.7962Q232.805 65.09 233.292 65.4147Q233.78 65.7393 234.246 66.0935Q234.712 66.4477 235.155 66.83Q235.599 67.2124 236.018 67.6215Q236.436 68.0305 236.829 68.4648Q237.222 68.899 237.587 69.3567C238.712 70.7408 239.702 72.8392 241.113 73.9132C243.031 75.3727 247.725 71.7095 250.157 71.3513C251.821 71.1061 253.345 71.3883 254.855 72.1097C259.701 74.4256 259.07 78.3935 262.159 80.7395C263.737 81.2287 265.594 80.1156 267.071 79.5515C269.539 78.6084 271.868 78.6971 274.282 79.8465C276.785 81.0381 278.644 83.3533 279.581 85.9316C280.766 89.1925 280.407 92.2204 278.977 95.3269C276.475 91.9856 273.978 89.0815 269.599 88.3613C266.566 87.8626 263.87 88.7918 261.27 90.2505C259.959 86.692 257.918 83.7599 254.379 82.1392Q253.835 81.8896 253.27 81.696Q252.704 81.5025 252.121 81.3669Q251.539 81.2314 250.945 81.1553Q250.352 81.0791 249.754 81.0631Q249.157 81.0472 248.56 81.0915Q247.964 81.1359 247.375 81.2401Q246.786 81.3444 246.21 81.5074Q245.635 81.6705 245.079 81.8907C243.697 82.4267 242.48 83.231 241.317 84.1432Q241.082 83.6735 240.824 83.2159Q240.567 82.7583 240.287 82.3139Q240.007 81.8694 239.706 81.4392Q239.405 81.009 239.083 80.5941Q238.761 80.1791 238.419 79.7805Q238.077 79.3818 237.716 79.0003Q237.355 78.6189 236.976 78.2555Q236.597 77.8922 236.2 77.5479Q235.804 77.2036 235.391 76.8791Q234.978 76.5546 234.549 76.2508Q234.121 75.9469 233.678 75.6644Q233.236 75.3819 232.78 75.1214Q232.324 74.8609 231.855 74.623Q231.387 74.3851 230.908 74.1705Q230.428 73.9559 229.939 73.7649Q229.45 73.574 228.952 73.4073Q228.453 73.2376 227.947 73.0933Q227.44 72.9489 226.927 72.8304Q226.414 72.7118 225.896 72.6193Q225.377 72.5269 224.855 72.4607Q224.332 72.3945 223.807 72.3548Q223.282 72.315 222.755 72.3019Q222.229 72.2887 221.702 72.3022Q221.176 72.3157 220.651 72.3557Q220.126 72.3957 219.603 72.4622Q219.081 72.5287 218.562 72.6216Q218.044 72.7143 217.531 72.8332Q217.018 72.9521 216.511 73.0967Q216.005 73.2413 215.507 73.4113Q215.008 73.5814 214.519 73.7763Q214.03 73.9713 213.551 74.1907Q213.072 74.4102 212.605 74.6535C207.476 77.2992 203.997 81.7019 201.756 86.9417C195.931 85.3685 188.992 85.788 183.676 88.8025C180.028 90.8717 177.51 93.7928 175.612 97.4866C174.99 98.6977 174.472 99.9913 173.476 100.948Z"/>
	<path fill="#FEFEFE" transform="matrix(1.06383 0 0 1.06397 0 6.10352e-05)" d="M261.761 220.362C264.607 219.967 267.844 220.226 270.724 220.23L288.293 220.246L354.263 220.5L354.262 230.015C345.803 230.109 337.335 230.028 328.875 230.032L235.979 230.026L235.969 220.504C244.538 220.333 253.21 220.877 261.761 220.362Z"/>
	<path fill="#FEFEFE" transform="matrix(1.06383 0 0 1.06397 0 6.10352e-05)" d="M148.737 189.33C159.493 192.447 170.154 196.508 180.767 200.111C181.65 209.944 181.22 219.879 182.023 229.714C177.856 230.282 173.473 230.037 169.268 230.038L148.757 230.019C148.517 216.471 148.732 202.883 148.737 189.33Z"/>
	<path fill="#232C3E" transform="matrix(1.06383 0 0 1.06397 0 6.10352e-05)" d="M163.683 200.541C163.875 200.525 164.068 200.515 164.26 200.511C165.94 200.483 167.366 200.955 168.569 202.165C172.192 205.811 170.994 217.984 170.967 222.966L166.812 222.978L158.749 222.966C158.788 218.445 158.024 208.853 159.34 205.124C160.17 202.771 161.5 201.565 163.683 200.541Z"/>
	<path fill="#FEFEFE" transform="matrix(1.06383 0 0 1.06397 0 6.10352e-05)" d="M100.927 189.284L101.099 189.446C101.73 191.776 101.288 198.605 101.288 201.353C101.288 210.863 101.424 220.4 101.194 229.905C90.2277 230.47 79.0348 230.034 68.0406 230.018L67.9213 229.905C67.5609 229.019 68.7226 202.346 69.0203 200.096L100.927 189.284Z"/>
	<path fill="#232C3E" transform="matrix(1.06383 0 0 1.06397 0 6.10352e-05)" d="M83.8626 200.524C84.2018 200.499 84.5353 200.473 84.8755 200.486Q85.155 200.498 85.4321 200.537Q85.7091 200.576 85.981 200.642Q86.2529 200.708 86.5169 200.8Q86.781 200.893 87.0347 201.011Q87.2884 201.129 87.5292 201.271Q87.7701 201.413 87.9958 201.579Q88.2215 201.744 88.4298 201.931Q88.6381 202.118 88.8271 202.324C92.304 206.119 91.3917 217.841 91.133 222.949L86.1495 222.978L78.7488 222.966C78.8133 218.208 77.9548 209.213 79.4801 205.105C80.3398 202.79 81.6467 201.481 83.8626 200.524Z"/>
	<path fill="#FEFEFE" transform="matrix(1.06383 0 0 1.06397 0 6.10352e-05)" d="M165.842 132.828C166.601 132.691 167.461 132.733 168.236 132.701C168.366 138.673 167.024 148.261 171.759 152.782C174.298 155.206 177.821 154.566 181.012 154.488C181.209 167.249 181.173 180.097 180.998 192.858C180.055 193.081 179.13 193.393 178.203 193.676C174.426 192.529 170.775 191.013 166.968 189.958Q166.907 185.514 167.024 181.072C169.636 177.121 178.155 170.403 179.153 166.606C179.35 165.855 179.196 165.437 178.808 164.795C178.063 164.313 177.358 164.174 176.468 164.216C174.048 164.33 168.906 170.985 167.019 172.907C166.945 169.527 167.519 153.518 166.464 151.652C166.144 151.088 165.705 150.747 165.086 150.565C164.077 150.267 163.06 150.821 162.206 151.28C161.153 154.274 161.742 162.468 161.742 165.883C157.919 162.583 154.055 157.131 149.558 155.02C149.017 155.302 148.276 155.629 147.849 156.072C147.486 156.449 147.281 157.08 147.28 157.601C147.277 160.739 157.133 168.669 159.59 171.157C160.286 171.862 161.071 172.683 161.432 173.618C162.356 176.007 161.775 185.001 161.747 188.08C157.701 186.723 151.014 185.234 147.641 182.869C146.012 181.727 145.24 180.349 144.913 178.4C144.295 174.729 144.806 170.658 144.737 166.924L144.44 154.587C144.389 152.461 144.158 150.161 144.411 148.049C144.587 146.576 145.154 145.32 146.01 144.121C150.42 137.944 158.522 134.031 165.842 132.828Z"/>
	<path fill="#FEFEFE" transform="matrix(1.06383 0 0 1.06397 0 6.10352e-05)" d="M359.652 136.78C361 136.694 362.16 136.828 363.417 137.352C367.812 139.186 367.03 144.101 368.505 147.711C368.536 147.788 368.571 147.864 368.604 147.941C371.123 147.314 373.65 146.522 376.271 146.557C379.821 146.603 383.476 148.14 385.938 150.705C389.142 154.043 390.08 158.379 389.989 162.871C386.097 163.211 381.797 162.403 378.023 163.188C377.458 163.306 377.306 163.336 377.013 163.841C376.63 164.5 376.505 165.17 376.719 165.903C377.437 166.767 378.632 166.909 379.675 167.192C380.511 168.344 380.041 175.367 380.011 177.192C378.017 177.525 376.084 177.5 374.072 177.417C373.843 174.222 374.627 169.29 372.254 166.767C371.179 165.625 369.712 165.342 368.203 165.331C358.024 165.261 363.881 174.505 360.925 177.445C360.281 177.417 360.271 177.44 359.795 177.012C359.358 175.381 359.787 173.365 359.794 171.666C359.801 169.94 359.506 168.164 358.194 166.928C356.333 165.177 353.749 165.457 351.408 165.524Q351.089 165.628 350.775 165.744C345.324 167.781 348.875 173.496 347.135 177.322L346.422 177.55C346.154 177.416 346.088 177.399 345.833 177.19C344.356 175.98 345.07 171.941 344.939 170.167C343.999 157.444 324.144 166.344 319.426 161.875C318.642 161.132 318.322 160.148 318.354 159.084C318.412 157.202 319.352 155.247 320.749 153.994C321.786 153.064 323.413 152.212 324.848 152.378C326.925 152.617 328.071 154.795 329.285 156.241C329.755 156.802 330.52 157.772 331.335 157.758C331.944 157.747 332.585 157.42 332.947 156.922C334.404 154.922 330.646 151.585 330.306 149.397C329.971 147.238 331.001 144.948 332.272 143.252C334.153 140.742 337.068 138.92 340.2 138.534C345.524 137.879 347.51 141.804 351.099 144.681L351.332 144.864C354.713 141.482 354.38 138.591 359.652 136.78Z"/>
	<path fill="#FEFEFE" transform="matrix(1.06383 0 0 1.06397 0 6.10352e-05)" d="M124.66 166.907C124.756 166.971 124.859 167.025 124.947 167.099C126.649 168.511 142.66 185.026 143.17 186.369C144.038 188.655 143.512 224.485 143.507 230.017L125.625 230.032Q116.094 230.068 106.564 230Q106.521 229.254 106.509 228.506C106.438 222.741 105.951 188.411 106.967 186.331C108.412 183.374 121.544 170.103 124.66 166.907Z"/>
	<path fill="#232C3E" transform="matrix(1.06383 0 0 1.06397 0 6.10352e-05)" d="M123.967 190.064C124.218 190.051 124.469 190.041 124.72 190.04C127.051 190.035 129.019 190.67 130.675 192.389C132.326 194.102 133.214 196.412 133.704 198.703C134.904 204.318 134.266 216.658 134.251 222.954L126.625 222.972L116.056 222.981L116.01 209.094C116.002 205.774 115.8 202.277 116.379 199.002C116.718 197.085 117.372 195.248 118.476 193.634C119.885 191.574 121.549 190.534 123.967 190.064Z"/>
	<path fill="#F6E1CE" transform="matrix(1.06383 0 0 1.06397 0 6.10352e-05)" d="M201.756 86.9417C203.997 81.7019 207.476 77.2992 212.605 74.6535Q213.072 74.4102 213.551 74.1907Q214.03 73.9713 214.519 73.7763Q215.008 73.5814 215.507 73.4114Q216.005 73.2413 216.511 73.0967Q217.018 72.9521 217.531 72.8332Q218.044 72.7143 218.562 72.6216Q219.081 72.5287 219.603 72.4622Q220.126 72.3957 220.651 72.3557Q221.176 72.3157 221.702 72.3022Q222.229 72.2888 222.755 72.3019Q223.282 72.315 223.807 72.3548Q224.332 72.3945 224.855 72.4607Q225.377 72.5269 225.896 72.6193Q226.414 72.7118 226.927 72.8304Q227.44 72.9489 227.947 73.0933Q228.453 73.2376 228.952 73.4073Q229.45 73.574 229.939 73.7649Q230.428 73.9559 230.908 74.1705Q231.387 74.3851 231.855 74.623Q232.324 74.8609 232.78 75.1214Q233.236 75.3819 233.678 75.6644Q234.121 75.9469 234.549 76.2508Q234.978 76.5546 235.391 76.8791Q235.804 77.2036 236.2 77.5479Q236.597 77.8922 236.976 78.2555Q237.355 78.6189 237.716 79.0003Q238.077 79.3818 238.419 79.7804Q238.761 80.1791 239.083 80.5941Q239.405 81.009 239.706 81.4392Q240.007 81.8694 240.287 82.3139Q240.567 82.7583 240.824 83.2159Q241.082 83.6735 241.317 84.1432C242.48 83.231 243.697 82.4267 245.079 81.8907Q245.635 81.6705 246.21 81.5074Q246.786 81.3444 247.375 81.2401Q247.964 81.1359 248.56 81.0915Q249.157 81.0472 249.754 81.0631Q250.352 81.0791 250.945 81.1553Q251.539 81.2314 252.121 81.3669Q252.704 81.5025 253.27 81.696Q253.835 81.8896 254.379 82.1392C257.918 83.7599 259.959 86.692 261.27 90.2505C263.87 88.7918 266.566 87.8626 269.599 88.3613C273.978 89.0815 276.475 91.9856 278.977 95.3269C277.422 97.8555 275.378 99.9178 272.382 100.635C267.974 101.691 262.997 97.4987 260.759 99.3291C259.017 102.149 261.39 129.895 259.151 134.074C258.842 134.65 258.22 134.89 257.611 135.037C256.681 135.261 255.242 135.494 254.349 135.014C253.268 134.432 252.814 132.93 252.626 131.81C251.167 123.106 255.647 111.513 247.437 105.283C244.736 103.233 239.809 100.884 236.351 101.438C234.51 101.732 233.151 103.188 231.51 103.985C229.475 104.973 227.227 105.678 225.109 106.484C220.025 108.42 214.999 110.624 209.936 107.066C208.204 105.85 206.415 103.72 204.089 104.136C203.023 104.327 201.996 104.918 201.069 105.46C199.709 106.254 198.333 107.131 197.208 108.242C195.446 109.982 194.337 111.938 192.096 113.18C189.605 114.56 184.996 114.861 183.555 115.908C181.13 121.889 186.206 147.043 179.795 149.55C178.647 149.999 177.277 149.737 176.19 149.23C175.128 148.735 174.541 147.78 174.187 146.698C172.799 142.453 173.469 131.991 173.47 127.065L173.476 100.948C174.472 99.9913 174.99 98.6977 175.612 97.4866C177.51 93.7928 180.028 90.8717 183.676 88.8025C188.992 85.788 195.931 85.3685 201.756 86.9417Z"/>
	<path fill="#FEC749" transform="matrix(1.06383 0 0 1.06397 0 6.10352e-05)" d="M265.482 105.71C268.292 106.299 270.987 106.345 273.835 106.054C273.581 114.645 273.759 123.281 273.76 131.88L273.737 180.464C271.693 180.509 266.881 179.868 265.378 181.384C263.817 182.957 264.51 189.648 264.521 192.011C262.426 191.983 258.099 191.459 256.533 193.001C255.002 194.507 255.745 200.551 255.754 202.766C253.412 202.734 247.645 201.987 245.914 203.785C244.231 205.533 245.019 212.614 245.029 215.02L186.646 214.979C186.334 212.392 186.524 209.688 186.459 207.082Q186.157 196.48 186.26 185.875C186.25 175.05 185.843 164.033 186.327 153.228C186.452 150.423 187.934 147.954 188.169 145.178C188.422 142.191 188.275 139.096 188.274 136.096L188.253 120.243C190.852 119.689 193.261 118.978 195.503 117.503C197.722 116.043 201.549 110.896 203.406 110.522C204.657 110.271 209.735 112.975 211.354 113.459C213.618 114.137 216.161 114.5 218.524 114.275C222.764 113.87 228.639 111.142 232.575 109.37C234.357 108.568 236.066 107.55 237.946 106.99C238.031 106.965 238.116 106.942 238.202 106.918C240.682 107.752 243.458 108.557 245.262 110.575C250.479 116.414 243.715 131.715 249.58 138.462C250.913 139.995 252.719 140.582 254.7 140.658C257.457 140.763 260.812 140.296 262.86 138.294C264.041 137.139 264.441 135.554 264.736 133.978C265.524 129.762 265.234 125.392 265.279 121.122C265.333 115.98 265.499 110.855 265.482 105.71Z"/>
	<path fill="#232C3E" transform="matrix(1.06383 0 0 1.06397 0 6.10352e-05)" d="M254.333 144.214C254.677 144.222 255.031 144.219 255.37 144.288C256.236 144.465 257.07 144.954 257.512 145.735C258.024 146.639 258.131 181.009 257.621 182.429C257.272 183.4 256.649 183.806 255.787 184.3C254.753 184.211 253.573 184.16 252.88 183.273C252.441 182.71 252.415 182.049 252.365 181.368C251.86 174.443 252.249 167.245 252.252 160.279C252.254 155.893 251.833 151.018 252.33 146.668C252.468 145.456 253.442 144.889 254.333 144.214Z"/>
	<path fill="#232C3E" transform="matrix(1.06383 0 0 1.06397 0 6.10352e-05)" d="M202.96 127.648C203.206 127.627 203.227 127.617 203.513 127.646C204.472 127.742 205.341 128.048 205.879 128.88C206.702 130.148 206.268 142.793 206.268 145.013L206.254 182.556C206.265 186.561 206.776 196.477 206.112 199.66C205.932 200.521 205.249 200.834 204.555 201.249C204.144 201.273 203.75 201.293 203.34 201.235C202.557 201.126 201.937 200.879 201.484 200.186C201.342 199.97 201.268 199.623 201.221 199.376C200.816 197.236 200.738 130.803 201.241 129.148C201.465 128.413 202.34 128.029 202.96 127.648Z"/>
	<path fill="#232C3E" transform="matrix(1.06383 0 0 1.06397 0 6.10352e-05)" d="M229.418 127.546C230.512 127.879 231.463 128.167 231.979 129.267C232.534 130.449 232.447 191.878 232.245 197.693C232.22 198.39 232.224 199.195 231.929 199.838C231.516 200.737 230.749 201.038 229.887 201.408C228.824 201.183 227.887 201.129 227.289 200.108C226.692 199.088 226.81 196.998 226.779 195.827C226.603 189.148 226.391 131.086 227.06 129.297C227.474 128.19 228.414 127.954 229.418 127.546Z"/>
</svg>
