<?xml version="1.0" encoding="UTF-8"?>
<svg xmlns="http://www.w3.org/2000/svg" viewBox="0 0 937.28 935.43">
  <defs>
    <style>
      .cls-1 {
        fill: #fff;
        stroke: #212b3e;
        stroke-linecap: round;
        stroke-linejoin: round;
        stroke-width: 10px;
      }

      .cls-2 {
        fill: #212b3e;
      }

      .cls-2, .cls-3, .cls-4 {
        stroke-width: 0px;
      }

      .cls-3 {
        fill: #ffc748;
      }

      .cls-4 {
        fill: #f5e1cd;
      }
    </style>
  </defs>
  <g id="Layer_2" data-name="Layer 2">
    <g>
      <path class="cls-3" d="m741.32,757.34c.3-12.68.58-25.03.88-37.63,2.25-.3,4.28-.56,6.31-.85,8.45-1.21,16.91-2.4,25.36-3.66,12.65-1.9,25.27-2.24,37.91.15,1.85.35,3.3,1.02,4.35,2.59.49.73,1,1.45,1.58,2.11,1.54,1.73,1.46,3.5.02,5.15-1.62,1.85-3.26,3.74-5.14,5.31-3.51,2.94-7.58,5.02-11.72,6.95-10.47,4.86-21.49,8.12-32.63,11.02-6.02,1.56-12.01,3.29-17.94,5.17-2.65.84-5.12,2.22-7.68,3.34-.28.12-.59.17-1.29.38Z"/>
      <path class="cls-3" d="m195.28,719.73c.29,12.63.58,24.98.87,37.39-.44,0-.72.08-.9-.01-8.38-4.33-17.44-6.6-26.53-8.82-10.33-2.53-20.47-5.66-30.22-9.98-4.83-2.14-9.52-4.55-13.7-7.83-2.15-1.68-4.08-3.56-5.49-5.95-.81-1.38-1-2.66.09-3.95.05-.06.09-.13.13-.2,1.83-3.27,4.48-4.93,8.33-5.5,12.87-1.91,25.62-1.32,38.41.71,8.75,1.39,17.55,2.48,26.32,3.71.78.11,1.56.25,2.68.44Z"/>
      <path class="cls-3" d="m477.1,775.61c6.69-7.08,9.55-15.75,12.6-24.67.82.36,1.52.65,2.2.96,3.5,1.56,6.98,3.14,10.5,4.66,1.99.86,4.07,1.26,6.28,1.24,4.58-.05,7.36,2.38,7.41,6.95.09,8.22-.11,16.43-.27,24.65-.03,1.77-.63,2.43-1.84,2.69-1.65.35-2.79-.21-3.7-1.63-.26-.41-.78-.79-1.25-.91-5.17-1.36-10.35-2.67-15.52-3.99-.08-.02-.16-.05-.23-.04-3.19.44-5.37-1.42-7.62-3.24-2.72-2.2-5.52-4.3-8.57-6.67Z"/>
      <path class="cls-3" d="m421.31,791.2c-1.57-2.88-2.23-5.76-2.77-8.65-1.13-6.08-.59-12.09.96-18.03.27-1.04.6-1.87,1.92-2.09,5.79-1,11.2-3.16,16.5-5.63,2.82-1.31,5.64-2.61,8.55-3.95,1.39,3.49,2.48,6.99,4.14,10.21,1.67,3.24,3.88,6.19,5.99,9.46-2.71,3.94-5.56,8.08-8.53,12.4-3.09-.8-6.15-.42-9.19.31-3.24.78-6.17,2.12-8.67,4.38-.5.46-1.18.89-1.83.97-2.29.29-4.6.42-7.07.62Z"/>
      <path class="cls-3" d="m475.24,813.87c2.88,1.48,5.78,2.96,8.89,4.55-4.15,7.14-10.57,11.65-16.56,16.83-5.44-5.69-10.73-11.21-16.3-17.03,3.1-1.53,5.92-2.95,8.78-4.29.34-.16.94.02,1.34.21,4.63,2.28,9.22,2.31,13.85-.27Z"/>
      <path class="cls-4" d="m395.28,784.35c-2.47-2.28-4.58-4.23-6.69-6.18-.7-.65-1.31-1.48-2.12-1.94-3.97-2.28-4.95-6.43-6.59-10.12,3.66-2.94,7.25-5.81,10.92-8.76,1.57,2.01,3.05,4.1,4.75,5.99,1.15,1.28,2.53,2.42,3.96,3.39,2.24,1.53,3.07,3.28,1.92,5.72-1.84,3.89-3.94,7.65-6.15,11.89Z"/>
      <path class="cls-4" d="m546.77,757.42c3.53,2.83,7.05,5.67,10.87,8.74-1.03,2.26-2.17,4.77-3.32,7.28-.09.21-.3.37-.47.53-3.57,3.18-7.15,6.36-10.73,9.53-.17.15-.39.26-.72.47-.33-.43-.71-.81-.96-1.27-1.71-3.15-3.49-6.28-5.06-9.5-1.58-3.23-.97-4.87,2.16-6.72,1.29-.76,2.45-1.61,3.33-2.92,1.37-2.05,3-3.93,4.52-5.88.09-.12.25-.18.38-.26Z"/>
      <path class="cls-3" d="m469.73,782.93c3.15,2.44,6.35,4.91,9.62,7.43-3.57,4.71-6.98,9.21-10.59,13.97-4.4-4.29-8.27-8.78-12.51-13.18,2.51-3.65,4.94-7.18,7.58-11,.83.84,1.53,1.53,2.21,2.25,1.54,1.62,1.56,1.63,3.7.54Z"/>
      <path class="cls-4" d="m591.74,746.34c3.01,3.3,5.26,9.15,4.93,12.98-.22-.01-.49.05-.66-.05-4.72-2.84-9.61-2.67-14.45-.56-1.53.67-2.66.51-3.98-.24-1.79-1.03-3.65-1.95-5.5-2.92v-6.4c3.42-.26,6.76-.34,10.05-.81,3.21-.46,6.37-1.31,9.61-2.01Z"/>
      <path class="cls-4" d="m340.59,759.27c.27-4.9,2.13-9.15,5.18-13.23,6.27,2.47,12.88,2.69,19.59,3.04v6.49c-2.25,1.17-4.54,2.46-6.92,3.53-.57.26-1.51-.07-2.19-.34-4.38-1.73-8.76-2.41-13.22-.3-.64.3-1.29.6-1.94.89-.06.03-.15-.02-.5-.08Z"/>
      <path class="cls-3" d="m455.05,804.87c-5.63,2.8-10.95,5.45-16.58,8.25-1.1-4.18-2.55-7.98-2.67-12.06-.07-2.45,1.1-4.35,3.48-5.19,1.49-.52,3.06-.9,4.63-1.09.69-.09,1.67.23,2.16.72,2.97,2.98,5.84,6.07,8.97,9.37Z"/>
      <path class="cls-3" d="m499.48,797.55c-.46,5.54-.9,10.75-1.37,16.44-5.86-2.99-11.31-5.77-17.04-8.69.93-1.32,1.71-2.48,2.55-3.6,1.06-1.4,2.2-2.75,3.24-4.16,1.31-1.76,3.08-2.26,5.1-1.84,2.42.5,4.8,1.17,7.52,1.85Z"/>
      <path class="cls-4" d="m369.59,784.83c2.14-.97,3.93-1.81,5.74-2.6,1.21-.53,2.37-.28,3.35.55,1.21,1.02,2.37,2.1,3.68,3.28-1.87,2.91-3.66,5.7-5.69,8.86-2.46-3.39-4.61-6.59-7.08-10.08Z"/>
      <path class="cls-4" d="m355.4,776.78h-11.64c.48-2.98.86-5.68,2.32-8.09.84-1.39,2.25-1.77,3.75-1.42,1.43.33,3.11.43,3.62,2.24.66,2.36,1.27,4.73,1.95,7.27Z"/>
      <path class="cls-4" d="m582.08,776.77c.68-2.52,1.26-4.98,2.02-7.39.59-1.86,2.43-1.87,3.94-2.15,1.45-.27,2.7.3,3.45,1.6,1.38,2.38,1.69,5.04,2.25,7.94h-11.67Z"/>
      <path class="cls-4" d="m567.84,784.89c-2.37,3.38-4.57,6.53-7.03,10.04-2.01-3.12-3.8-5.9-5.55-8.61.14-.29.18-.45.29-.57,3.92-4.42,4.66-4.57,9.98-2.02.64.31,1.27.64,2.3,1.16Z"/>
      <path class="cls-4" d="m353.3,797.59c-1.02-3.64-1.95-6.98-2.91-10.44,2.04-.45,3.49-.15,4.95,1.23,1.23,1.16,2.86,2.21,4.48,2.56,2.28.49,3.32,1.91,4.38,3.88-3.48,1.5-7.05,2.04-10.9,2.77Z"/>
      <path class="cls-4" d="m587.13,787.08c-1.01,3.58-1.95,6.92-2.95,10.46-3.75-.59-7.29-1.26-10.81-2.65.85-1.97,1.85-3.35,4.11-3.9,1.69-.41,3.4-1.45,4.69-2.65,1.41-1.31,2.82-1.57,4.96-1.26Z"/>
      <path class="cls-4" d="m571.84,775.55c-2.07-.94-3.99-1.81-6.06-2.74.8-1.57.68-3.42,2.85-4.08.62-.19.82-1.75,1.29-2.89,1.31.65,2.56,1.28,4.01,2-.47,2.59-1.09,5.08-2.09,7.72Z"/>
      <path class="cls-4" d="m363.52,767.85c1.45-.74,2.65-1.34,4.03-2.04.27.7.48,1.26.71,1.81.18.43.35,1.16.62,1.21,2.18.39,1.94,2.43,2.89,3.9-2.02.94-3.94,1.84-6.12,2.86-.99-2.54-1.54-5.04-2.13-7.74Z"/>
    </g>
    <g>
      <path class="cls-4" d="m550.58,744.1c.16.33.38.67.48,1.04,1.42,5.57,6.35,7.84,10.38,11.5,1.44-4.59-.09-8.42-1.2-12.49.14-.02.27-.04.4-.06h-10.06Z"/>
      <path class="cls-4" d="m540.61,744.1h-7.84c1.3,3.14,2.55,6.16,3.89,9.4,1.9-1.7,3.07-3.68,4.38-5.53.25-.36.05-1.07-.02-1.62-.08-.69-.24-1.37-.4-2.26Z"/>
      <path class="cls-4" d="m396.66,744.1c0,.49.12.92-.02,1.23-.82,1.81-.14,3.18,1.04,4.56,1.22,1.43,2.29,2.98,3.73,4.87.34-3.88.63-7.23.93-10.66h-5.67Z"/>
      <path class="cls-3" d="m498.66,744.1c.74.16,1.45.41,2.15.77.93.47,1.9.85,2.85,1.27,2.13.94,4.28,1.54,6.68,1.6,3.67.09,7.03,1.36,9.93,3.73,1.86,1.52,1.93,1.52,5.05,1.35-1.09-2.83-2.15-5.6-3.34-8.71h-23.31Z"/>
      <path class="cls-3" d="m412.41,744.1c-.21,2.86-.41,5.65-.64,8.72,1.01.07,1.85.19,2.69.18,4.46-.06,8.72-1.11,12.82-2.76,3.41-1.37,6.79-2.82,10.08-4.46,1.62-.8,3.24-1.37,4.93-1.68h-29.89Z"/>
      <path class="cls-4" d="m376.87,744.1c.06.02.12.04.2.06-.49,1.94-1.06,3.89-1.44,5.88-.39,2.02-.52,4.08.25,6.35.8-.51,1.52-.84,2.09-1.34,2.17-1.89,4.34-3.78,6.41-5.78.65-.63,1.01-1.6,1.4-2.46.39-.85.65-1.75,1-2.71h-9.9Z"/>
      <path class="cls-3" d="m455.44,744.1c.31,1.47.61,2.8.87,4.14,1.41,7.33,4.29,13.88,10.01,18.92.48.42.97.83,1.48,1.22.31.24.65.45,1.17.8.72-.75,1.46-1.44,2.11-2.22,2.32-2.8,3.98-6,5.28-9.36,1.35-3.5,2.55-7.07,3.81-10.6.33-.92.68-1.83,1.08-2.91h-25.8Z"/>
    </g>
  </g>
  <g id="Layer_1" data-name="Layer 1">
    <path class="cls-4" d="m552.56,199.64h6.43c-1.13-13.37-11.63-23.85-24.42-23.85-4.9,0-9.46,1.54-13.29,4.2-3.03-10.81-12.4-18.7-23.49-18.7-6.1,0-11.67,2.39-15.96,6.33-7.62-14.19-21.91-23.76-38.3-23.76-18.57,0-34.46,12.28-40.98,29.67-3.59-1.48-7.48-2.22-11.56-2.3-43.17-.86-46.91,40.66-46.91,52.81,0,.82.04,1.63.1,2.44l-.1-.02v73.66h28.21v-44.95c.3,0,.6.02.9.02,10.99,0,20.56-6.52,25.51-16.15,3.88-1.02,7.49-2.8,10.67-5.18,5.87,6.06,13.86,9.8,22.67,9.8,6.67,0,12.87-2.15,18.05-5.82,7.65-1.22,14.65-4.54,20.49-9.39.97.24,1.87.48,2.69.72,13.99,4.07,22.02,8.59,22.44,23.97.14,5.26-.3,11.83-.37,18.18h24.81c.03-1.4.05-2.88.08-4.45.21-12.46.21-29.58.16-43.44,4.01,3.06,8.9,4.87,14.2,4.87,7.11,0,13.51-3.24,17.99-8.41v-20.24Z"/>
    <path class="cls-3" d="m495.26,434.3l.33-23.45,18.83-3.3-.99-18.5,19.49-1.98-.66-21.8h19.81v-163.09c-3.78,2.37-8.19,3.74-12.89,3.74-5.52,0-10.62-1.89-14.79-5.07.06,14.44.06,32.29-.16,45.26-.44,25.61-.44,27.64-15.16,28.59-14.72.94-9.94-26.86-10.38-42.89s-8.81-20.74-23.38-24.98c-.85-.25-1.79-.5-2.8-.75-6.08,5.05-13.38,8.51-21.35,9.78-5.39,3.83-11.85,6.07-18.8,6.07-9.17,0-17.49-3.89-23.61-10.21-3.32,2.48-7.07,4.33-11.12,5.4-5.16,10.03-15.13,16.83-26.58,16.83-.31,0-.63-.02-.94-.03v50.22c0,7.19-1.5,11.73-3.96,14.54v136.62h177.91l-48.77-1.01Z"/>
    <g>
      <path class="cls-2" d="m594.99,238.58h20.39v17.68c.97.07,1.66.16,2.36.16,4.08.01,8.16-.01,12.24.01,4.08.03,5.81,1.78,5.82,5.88.01,11.59,0,23.19,0,34.78v2.82c2.58-1.08,4.9-2.28,7.36-3.01,2.51-.74,5.15-1.01,7.95-1.53.16-.58.37-1.34.57-2.1,2.02-7.74,5.93-14.28,12.27-19.26,9.65-7.58,22.07-8.22,32.48-1.7,1.35.85,2.63,1.8,4.15,2.85.52-.54,1.06-1.08,1.57-1.65,2.7-3,5.79-5.49,9.5-7.17,9.11-4.14,19.24-1.73,25.48,6.08,2.17,2.72,3.72,5.77,4.68,9.11.26.91.54,1.82.88,2.98,12.21-2.37,23.21-.28,32.34,8.69,8.81,8.66,12.69,19.16,11.77,31.61.88.08,1.56.16,2.24.2,2.7.19,4.04,1.38,4.12,3.7.08,2.49-1.16,3.78-3.96,4.12-.7.09-1.41.15-2.22.23v21.14h2.7c5.6,0,11.2.11,16.79-.02,19.44-.45,34.59,15.54,33.84,35.27-.58,15.3-11.23,28.56-26.07,31.52-.62.12-1.23.32-2.19.58-.12,4.93-.05,9.91-.04,15.12,1.07.05,1.92.12,2.77.12,6.32,0,12.63,0,18.95.01.95,0,1.93.04,2.86.22,3.41.67,5.55,2.89,5.87,6.35.2,2.14.2,4.32,0,6.46-.37,3.81-2.36,5.92-6.18,6.55-1.88.31-3.81.32-5.73.33-5.51.03-11.03-.02-16.54-.02-.62,0-1.24.1-2.01.17-.04.88-.11,1.66-.12,2.44-.02,4.48-.02,8.95-.05,13.43-.03,4.12-2.22,6.32-6.37,6.43-.72.02-1.44,0-2.16,0-223.05,0-446.1,0-669.15,0-1.27,0-2.57.02-3.82-.2-2.73-.48-4.52-2.57-4.63-5.33-.05-1.37-.16-2.63-.93-3.86-.46-.75-.56-1.84-.53-2.76.36-10.86.77-21.73,1.19-32.59.23-6.07.49-12.14.73-18.21.27-6.71.59-13.42.76-20.13.08-3.1,1.54-4.82,4.41-5.76,6.23-2.03,12.41-4.18,18.61-6.29.68-.23,1.34-.48,2.32-.83-9.11-10.55-12.62-22.6-10.14-36.16,1.6-8.75,5.81-16.2,12.32-22.28,8.01-7.48,17.6-11.25,28.52-11.22,10.8.03,20.25,3.88,28.51,11.44.11-1.08.22-1.68.23-2.29.2-10.79.38-21.58.56-32.37.25-14.47.51-28.93.77-43.4.06-3.18,1.13-4.59,4.2-5.58,1.44-.47,2.89-.91,4.34-1.38.15-.05.27-.15.28-.16.82-1.61,1.53-3.12,2.34-4.58,7.03-12.64,14.08-25.27,21.11-37.91.97-1.75,2.13-3.19,4.31-3.38,2.24-.19,3.84.77,4.98,2.65,2.4,3.96,4.82,7.92,7.23,11.88,5.49,9.01,10.99,18.01,16.44,27.05.93,1.54,1.59,3.23,2.56,5.22.23.08.89.35,1.57.57,3.27,1.08,4.31,2.48,4.36,5.98.08,5.84.12,11.67.22,17.51.05,3.12.16,6.23.27,9.35.01.44.11.87.23,1.72,13.52-13.47,29.53-20.72,48.35-21.97.04-.93.11-1.71.11-2.49,0-16.47-.04-32.94.02-49.41.04-11.07,1.89-21.81,6.58-31.92,8.01-17.3,21.66-26.49,40.62-28.03,5.29-.43,10.52-.18,15.77.91,8.88-16.81,22.13-27.67,41.36-29.36,19.27-1.69,34.17,6.71,45.57,22.07,7.6-4.28,15.55-5.4,23.86-2.81,8.31,2.59,14.15,8.14,18.31,15.8.47-.1.93-.15,1.36-.3,16.75-6.05,34.47,3.94,39.09,21.3,3.53,13.24.21,24.82-9.88,34.26-.94.88-1.47,1.69-1.47,3.04.03,15.75,0,31.5-.01,47.25,0,.62.06,1.25.1,2.04h5.81v-17.67h20.38v-121.77c1.07-.16,1.84-.28,2.85-.44.42-6.1.73-12.14,1.26-18.17.52-5.89.56-11.83,1.69-17.69,1.13,3.85.93,7.83,1.32,11.73.39,3.97.51,7.98.78,11.96.27,3.98.57,7.96.87,12.11.89.16,1.72.31,2.87.52v121.74Zm-105.57,190.75c0-1.22,0-2.09,0-2.96,0-4.8.15-9.6-.05-14.39-.18-4.24,1.44-7.4,6.97-7.09,3.91.22,7.83.04,11.75.04.78,0,1.56,0,2.56,0,.06-1.1.15-1.95.15-2.81.01-4.32-.01-8.63.01-12.95.02-3.89,1.84-5.76,5.7-5.82,3.12-.05,6.24,0,9.36-.02.77,0,1.53-.09,2.43-.14.05-1.13.12-2,.13-2.87.01-4.64-.02-9.27.02-13.91.03-4.62,1.76-6.3,6.44-6.33,3.12-.02,6.24.01,9.36-.02.84,0,1.68-.14,2.62-.22v-149.35c-5.78,1.21-11.38,1.14-17.17-.65,0,1.17,0,2.04,0,2.9-.16,15.11-.26,30.21-.52,45.32-.06,3.34-.46,6.71-1.09,9.99-1.23,6.45-5.27,10.22-11.76,11.29-2.05.34-4.12.52-6.19.71-5.61.53-10.01-1.5-13.05-6.29-1.65-2.61-2.48-5.53-3-8.54-1.18-6.9-.94-13.85-.72-20.8.14-4.71.31-9.43.13-14.14-.27-7.13-3.71-12.26-10.44-14.98-2.29-.93-4.66-1.68-6.96-2.6-1.56-.63-2.8-.41-4.2.58-5.09,3.59-10.74,5.94-16.79,7.41-1.21.3-2.42.79-3.51,1.41-8.24,4.69-16.96,6.37-26.33,4.55-5.51-1.07-10.55-3.24-14.99-6.64-1.53-1.17-2.72-1.32-4.27-.28-.78.53-1.71.89-2.62,1.17-1.54.47-2.53,1.43-3.43,2.75-5.43,7.92-12.76,13.1-22.25,15.05-.76.16-1.5.41-2.4.66,0,1.07,0,2.02,0,2.97,0,13.83,0,27.66,0,41.49,0,1.6-.01,3.2-.14,4.79-.28,3.53-.93,7-2.68,10.12-.86,1.54-1.14,3.07-1.14,4.79.03,31.18-.03,62.36.05,93.54.02,9.91.36,19.82.57,29.73.02.84.2,1.68.31,2.51h117.13Zm-143.63-188.11h.04c0,13.67,0,27.34,0,41.01,0,1.12-.03,2.24.07,3.36.28,3.36.87,6.66,2.42,9.71.94,1.85,2.29,3.04,4.54,2.85,1.11-.09,2.24.01,3.35-.05,4.91-.26,7.37-2.23,8.3-7.03.47-2.41.65-4.92.66-7.38.06-16.23.08-32.46-.02-48.68-.02-3.06,2.04-5.9,5.54-5.76,3.37.13,6.67-.58,9.79-1.96,5.47-2.42,9.57-6.33,12.41-11.54.95-1.73,2.22-2.85,4.12-3.36,3.12-.84,5.91-2.37,8.57-4.19,2.67-1.83,4.76-1.61,7.12.59.35.33.68.67,1.04,1,5.23,4.79,11.42,7.36,18.47,7.46,5.47.08,10.56-1.5,15.18-4.51.98-.64,2.09-1.27,3.22-1.48,6.82-1.27,12.96-4.01,18.33-8.4,1.57-1.28,3.28-1.69,5.15-1.22,6.28,1.61,12.47,3.49,18,7.03,5.12,3.28,8.72,7.78,10.21,13.7.79,3.15,1.32,6.44,1.4,9.68.14,5.27-.26,10.54-.26,15.82,0,4.63.08,9.27.43,13.88.16,2.1.96,4.18,1.64,6.21.48,1.44,1.68,2.13,3.2,2,1.99-.17,3.97-.43,5.95-.65,2.03-.22,3.21-1.37,3.46-3.37.36-2.85.81-5.7.9-8.57.23-7.03.33-14.06.39-21.09.09-10.55.09-21.1.13-31.65,0-1.36-.12-2.72.02-4.07.26-2.62,2.24-4.27,4.86-4.34,1.66-.05,2.86.84,4.13,1.68,7.76,5.14,17.54,4.24,24.25-2.21,9.13-8.76,9.49-23.73.75-32.87-4.13-4.32-9.21-6.53-15.24-6.29-3.43.13-6.69,1.07-9.44,3.11-3.17,2.35-7.56,1.09-8.44-3-.25-1.15-.77-2.28-1.32-3.33-4.04-7.61-10.13-12-19.01-11.83-4.5.09-8.35,1.85-11.83,4.64-.91.73-1.98,1.44-3.08,1.7-2.37.55-4.09-.43-5.48-2.87-2.23-3.92-4.86-7.52-8.18-10.59-10.44-9.66-22.66-13.27-36.53-9.89-11.48,2.8-19.85,9.96-25.68,20.13-1.19,2.07-2.04,4.33-3.07,6.49-1.2,2.52-3.57,3.73-6.14,2.74-5.84-2.25-11.82-2.42-17.94-1.76-14.23,1.54-24.44,8.74-30.53,21.67-4.12,8.75-5.83,18.06-5.87,27.68-.06,13.27-.01,26.54-.01,39.81Zm413.23,91.88c-1.14-.14-2.1-.19-3.03-.37-2.23-.44-3.28-1.83-3.17-4.08.09-2.06,1.29-3.3,3.48-3.57.63-.08,1.28-.04,1.92-.04,6.16,0,12.32,0,18.47,0,.84,0,1.68-.08,2.47-.12.57-4.11.09-8.3-.91-11.67-3.12-10.6-9.67-17.86-20.6-20.68-5.08-1.31-10.14-.95-15.15.5-1.23.35-2.44.78-3.7,1-2.05.35-3.24-.47-3.62-2.52-.26-1.41-.18-2.88-.46-4.29-.41-2.1-.73-4.29-1.56-6.23-3.44-8.1-12.34-10.99-20.01-6.64-3.39,1.92-5.73,4.79-7.41,8.25-.52,1.08-1.03,2.17-1.69,3.17-1.47,2.22-3.03,2.41-4.93.59-.92-.88-1.68-1.93-2.5-2.9-3.41-4.06-7.53-6.96-12.94-7.49-9.86-.96-18.91,4.64-22.89,13.69-2.24,5.08-2.27,9.69,1.38,14.09.51.61.93,1.31,1.33,1.99.56.96,1.24,1.91,1.56,2.95.31,1.03.5,2.23.28,3.26-.35,1.62-1.69,2.48-3.27,2.8-1.47.3-2.44-.3-3.44-2.01-.88-1.52-1.58-3.16-2.63-4.55-3.06-4.04-7.8-5.43-12.13-3.73-6.88,2.69-10.17,11.77-6.68,18.3.87,1.64,1.95,2.39,3.95,2.37,10.24-.11,20.47-.08,30.71-.02,1.82.01,3.7.15,5.45.62,6.68,1.78,11.27,7.65,11.59,14.8.16,3.51.07,7.03.12,10.55.01.93.1,1.85.16,2.8h5.18c0-1.05,0-1.92,0-2.78.03-3.92-.06-7.84.11-11.75.21-4.95,3.54-8.58,8.29-9.04,2.22-.22,4.49-.2,6.71-.01,4.33.36,7.58,3.41,8.36,7.67.2,1.09.31,2.22.32,3.33.04,3.52,0,7.04.02,10.55,0,.68.12,1.36.19,2h4.31c0-1.1,0-1.97,0-2.84.01-3.6-.04-7.2.05-10.79.15-6.06,3.95-9.84,9.96-9.99,1.44-.04,2.88-.05,4.32.01,4.9.2,8.28,3.04,9.23,7.83.23,1.17.3,2.38.31,3.57.04,3.36,0,6.72.02,10.07,0,.69.1,1.39.14,2.03,2.59.52,10.49.44,12.34-.11v-20.55Zm-472.76,126c.05-.92.13-1.7.13-2.48,0-27.66,0-55.33.03-82.99,0-1.56-.44-2.68-1.54-3.8-11.62-11.9-23.18-23.85-34.76-35.78-.55-.57-1.14-1.09-1.79-1.7-.49.43-.94.76-1.3,1.15-11.32,12.18-22.62,24.38-33.96,36.55-.83.89-1.14,1.8-1.14,2.99.02,28.06.02,56.13.03,84.19,0,.61.14,1.21.21,1.86h74.09Zm74.92-74.39v-77.04c-.62,0-1.08-.02-1.55,0-2.63.12-5.26.38-7.89.36-4.26-.04-7.79-1.81-10.29-5.24-1.3-1.78-2.37-3.8-3.19-5.86-1.66-4.2-2.33-8.63-2.36-13.13-.03-5.75,0-11.51-.01-17.27,0-.84-.08-1.67-.12-2.51-1.03,0-1.75-.07-2.46.01-18.45,2.14-33.24,10.64-44.41,25.48-1.12,1.49-1.55,3.01-1.51,4.87.32,14.94.57,29.88.85,44.82.11,6.07.24,12.14.31,18.22.02,1.42.32,2.59,1.47,3.6,1.44,1.26,2.65,2.78,4.06,4.08.74.68,1.63,1.31,2.56,1.63,8,2.77,16.02,5.47,24.03,8.18.58.2,1.18.3,1.92.49.09-.73.2-1.27.2-1.8.01-8.79-.03-17.59.05-26.38.01-1.4-.67-2.21-1.54-3.06-8.55-8.41-17.09-16.82-25.63-25.24-.62-.61-1.28-1.23-1.75-1.96-1.04-1.61-1.06-3.34-.13-5,.93-1.67,2.41-2.48,4.35-2.48,1.65,0,2.85.81,3.97,1.92,6.2,6.12,12.41,12.23,18.64,18.33.52.51.9,1.32,2.05,1.23v-2.7c0-7.11,0-14.23,0-21.34,0-.72-.03-1.44.03-2.16.23-2.6,2.19-4.41,4.76-4.45,2.6-.04,4.61,1.69,4.91,4.28.09.79.07,1.6.07,2.39,0,11.83,0,23.66,0,35.49,0,.85,0,1.69,0,2.54,1.02-.36,1.58-.86,2.1-1.41,4.43-4.72,8.85-9.45,13.28-14.18.44-.47.86-.96,1.34-1.37,1.68-1.42,3.98-1.61,5.8-.51,1.82,1.1,2.83,3.29,2.17,5.38-.34,1.09-1.09,2.13-1.88,2.98-7.07,7.62-14.17,15.21-21.3,22.76-1.06,1.12-1.57,2.25-1.54,3.82.09,4.71.03,9.43.04,14.15,0,.77.09,1.55.15,2.38,7.27,2.47,14.36,4.89,21.48,7.26.57.19,1.29.18,1.88.02,1.68-.46,3.33-1.04,5.08-1.59Zm346.61,55.04c-2.97-.54-235.53-.41-237.2.11v19.25h237.2v-19.36Zm-573.43,19.29c4.24.48,65.75.3,67.52-.16v-81.98c-21.86,7.41-43.45,14.73-65.22,22.11-.77,20.04-1.54,39.97-2.31,60.03Zm162.2-81.84c-.16.54-.28.77-.28,1-.02,26.46-.02,52.91-.02,79.37,0,.39.09.79.16,1.18.01.07.07.14.12.19.05.06.13.1.19.15,4.29.47,64.58.27,66.47-.28-.77-19.89-1.54-39.82-2.31-59.79-21.54-7.3-42.84-14.53-64.32-21.81Zm203.01,51.79c.55.1.86.2,1.17.2,58.92,0,117.83,0,176.75,0,.31,0,.63-.09.94-.14.07-.01.14-.07.19-.12.06-.05.1-.12.14-.17v-13.58c-.47-.08-.78-.18-1.09-.18-58.92,0-117.83,0-176.75,0-.31,0-.63.08-.94.13-.07.01-.13.07-.19.13-.06.05-.1.12-.21.25v13.49Zm149.97-66.64c.09,2.27.22,4.4.24,6.53.04,4,0,7.99.02,11.99,0,.83.11,1.67.18,2.63,3.96,0,7.64.14,11.3-.04,3.69-.19,6.39,1.95,6.19,6.09-.21,4.39-.05,8.79-.04,13.19,0,.7.09,1.39.15,2.23.92.04,1.69.11,2.47.11,4.4.01,8.8-.01,13.2.01,3.62.02,5.42,1.83,5.53,5.45.03,1,.09,2.01.15,3.17,7.25,0,14.24.01,21.19,0,.49-3.79.32-49.58-.16-51.36h-60.41Zm-473.23,12.79c-.76-.88-1.26-1.49-1.79-2.06-3.71-3.98-7.46-7.91-11.12-11.93-1.78-1.96-1.7-4.58,0-6.26,1.76-1.73,4.53-1.68,6.43.23,1.91,1.93,3.72,3.96,5.59,5.93.52.55,1.1,1.06,1.96,1.89.07-1.18.15-1.94.15-2.7.01-5.84,0-11.67,0-17.51,0-.64-.04-1.29.06-1.91.32-2.05,2.07-3.59,4.13-3.71,1.97-.11,3.79,1.1,4.36,3.06.24.83.31,1.73.32,2.6.04,2.96,0,5.92.02,8.87,0,.76.08,1.52.14,2.69.93-.82,1.59-1.35,2.19-1.94,2.06-2.01,4.09-4.05,6.14-6.06.91-.89,1.79-1.84,2.8-2.62,1.79-1.38,4.11-1.19,5.69.35,1.57,1.53,1.81,3.85.53,5.69-.36.52-.84.96-1.29,1.41-4.83,4.78-9.58,9.64-14.55,14.27-1.99,1.86-1.8,3.76-1.37,6.14,2.75-.91,5.32-1.75,7.88-2.63,2.94-1.01,6.18-1.59,8.71-3.24,2.54-1.65,4.37-4.39,6.51-6.65.05-.06.11-.12.17-.17.84-.72,1.16-1.61,1.17-2.74.03-4.23.22-8.47.21-12.7,0-1.15-.3-2.4-.82-3.42-6.37-12.26-20.98-18.95-34.49-15.88-16.51,3.76-27.09,19.22-24.46,35.94,1.16,7.36,4.66,13.53,10.21,18.53.67.61,1.28,1.04,2.33.67,3.9-1.4,7.85-2.68,12.18-4.15Zm196.75,83.15c3.62.6,85.73.4,87.52-.22,0-6.06.03-12.17-.01-18.22-.56-.14-.79-.25-1.01-.25-28.6-.01-57.2-.02-85.8-.02-.32,0-.63.07-.95.12-.07.01-.13.09-.18.14-.06.05-.11.12-.29.31.24,5.97.49,12.08.73,18.13Zm284.38-64.59c-3.01-.52-134.73-.4-136.61.14,0,1.78-.03,3.61,0,5.44.04,1.88-.19,3.78.18,5.66h136.42v-11.24Zm150.45-31.43c-2.41-.11-4.97.4-7.48,1.3-9.72,3.5-16.61,13.18-16.87,23.74-.26,10.51,6.14,20.55,15.68,24.56,4.72,1.99,9.55,2.42,14.53,1.11,14.44-3.81,22.48-20.01,17.03-34.3-3.75-9.82-12.8-16.39-22.89-16.41Zm-204.29-2.09c.07-.67.14-1.06.14-1.45,0-16.29.02-32.59-.02-48.88,0-.92-.27-1.9-.67-2.73-3.53-7.34-7.12-14.64-10.7-21.95-.26-.52-.62-.99-1.05-1.65-.33.57-.55.9-.72,1.25-3.34,7.25-6.7,14.49-9.96,21.77-.44.97-.57,2.15-.58,3.24-.04,15.97-.03,31.95-.02,47.92,0,.78.07,1.56.11,2.49h23.48Zm-365.58-117.21c-.05.77-.12,1.32-.12,1.86.02,27.64.06,55.29.09,82.93,0,.06.08.13.13.17.06.05.14.07.63.31.39-.51.82-1.19,1.35-1.78,1.44-1.6,2.88-3.21,4.41-4.74,2.21-2.21,4.97-2.24,7.25-.1,1.22,1.15,2.34,2.4,3.52,3.6,1.5,1.52,3.01,3.04,4.58,4.63.62-1.94.7-84.44.13-86.89h-21.97Zm300.53,127.32c-.13,4.52-.14,8.79-.02,13.08h101.31v-13.08h-101.3Zm247.65,43.06c-.87-1-1.31-1.53-1.77-2.04-7.48-8.47-10.01-18.4-8.33-29.42,1.01-6.66,4.24-12.34,8.66-17.36.55-.62,1.07-1.26,1.85-2.18-1.2-.05-1.91-.11-2.61-.11-5.76,0-11.52.05-17.27-.03-2.02-.03-3.76.54-5.41,1.59-3.69,2.35-6.33,5.62-8.12,9.56-4.19,9.24-4.24,18.57-.29,27.89,1.52,3.58,3.78,6.67,6.88,9.08,2.31,1.8,4.91,3.26,7.83,3.31,5.99.11,11.98-.16,18.59-.28Zm-97.27,16.23c4.29,0,8.29-.15,12.27.04,4.01.2,7.54-.55,11.06-2.74,5.43-3.37,11.56-4,17.81-2.74,6.91,1.39,12.35,5.08,16.31,10.88.89,1.31,1.81,1.8,3.33,1.7,2.07-.13,4.15-.08,6.23-.08,15.02,0,30.05,0,45.07-.01,1,0,2.01-.11,2.97-.17v-14.42h-115.05v7.53Zm-7.61-75.72c0-4.54.34-8.95-.09-13.29-.51-5.14-4.56-7.68-8.62-7.59-6.07.14-12.14,0-18.21,0-3.51,0-7.03.08-10.54.04-3.68-.04-7.94,3.2-7.87,7.45.04,2.07-.16,4.15-.16,6.22,0,2.36.09,4.73.15,7.17h45.33Zm-111.34,6.36c.06-.85.13-1.4.13-1.96,0-16.77,0-33.54,0-50.31,0-.79-.03-1.62-.26-2.36-1.79-5.88-3.63-11.73-5.47-17.6-.09-.27-.24-.52-.5-1.07-.35.74-.63,1.19-.79,1.69-1.9,5.67-3.79,11.35-5.64,17.04-.26.82-.38,1.72-.38,2.58-.02,16.61-.02,33.22,0,49.83,0,.69.11,1.37.18,2.17h12.74Zm55.9-.03c.05-1.01.13-1.86.13-2.72,0-16.22.03-32.43-.03-48.65,0-1.64-.32-3.34-.82-4.91-1.47-4.72-3.1-9.4-4.68-14.09-.22-.64-.49-1.26-.84-2.18-.32.64-.55.96-.67,1.33-1.66,5.17-3.32,10.33-4.93,15.51-.26.82-.39,1.72-.39,2.58-.02,17.02-.02,34.03,0,51.05,0,.68.12,1.36.19,2.08h12.05Zm-347.99-13.76c.2-.08.4-.17.61-.25-.55-32.02-1.09-64.04-1.64-96.15-2.3-.66-4.31-1.55-6.72-1.82,0,1.21,0,2.16,0,3.12,0,28.23,0,56.45,0,84.68,0,.64-.05,1.29.03,1.92.06.45.19.99.49,1.29,2.39,2.43,4.82,4.82,7.24,7.21Zm460.34,16.04h-19.35c-.5,3.05-.36,49.25.12,50.97,2.98.43,17.02.32,19-.23-7.06-6.94-10.65-15.22-10.7-25.08-.04-9.98,3.7-18.28,10.92-25.65Zm-516.97-16.45c.15.08.31.15.46.23,1.62-1.75,3.18-3.56,4.88-5.23,1.06-1.04,1.43-2.14,1.42-3.61-.04-28.78-.03-57.55-.03-86.33v-2.46c-.7.12-1.1.15-1.47.26q-3.58.97-3.78,4.69c-.02.4-.04.8-.05,1.2-.32,18.94-.64,37.87-.96,56.81-.16,9.19-.32,18.38-.47,27.57-.04,2.29,0,4.58,0,6.88Zm496.67,113.27h2.47c5.91,0,11.81-.07,17.72.04,1.79.03,2.71-.6,3.42-2.2,4.57-10.25-1.34-22.5-12.24-25.16-3.9-.95-7.73-.79-11.37.86v26.46Zm58.19-9.13c2.98.49,57.37.38,59.18-.08v-6.6h-59.18v6.67ZM236.86,232.78h27.75c-.92-2.56-13.14-22.45-14.56-23.68-4.35,7.8-8.68,15.58-13.19,23.68Zm368.55,16.02c-3.03-.54-30.69-.4-32.37.13v7.02c2.83.56,30.61.43,32.37-.14v-7Zm161.98,84.35v20.39c2.82.47,9.54.37,11.22-.14v-20.25c-1.01,0-1.87,0-2.73,0-2.77,0-5.54,0-8.49,0Zm-13.01,125.82c3.32.53,13.54.38,15.27-.21,0-2.27.03-4.58,0-6.89-.03-2.27.15-4.57-.14-6.94-5.2-.07-10.11-.08-15.12-.02v14.06Zm-150.79-192.63h-11.32c.72,2.78,10.12,21.77,11.32,22.96v-22.96Zm135.31,87.69c0-1.05,0-1.83,0-2.61,0-2.79,0-5.59,0-8.38,0-4.78-.25-5.1-5.45-5.07-.32,0-.64.05-.95.11-1.57.31-2.2.81-2.21,2.34-.05,4.38.04,8.77.09,13.15,0,.12.18.24.36.46h8.16Zm-28.66-.13c.4-4.81.25-9.41.05-14.01-.05-1.18-.75-1.71-1.84-1.78-1.19-.08-2.39-.17-3.58-.14-2.1.05-2.88.83-2.9,2.91-.04,3.18-.01,6.37-.01,9.55,0,1.1,0,2.19,0,3.47h8.28Zm-130.13-66.46c.17.04.35.08.52.11,3.16-6.99,6.49-13.89,9.63-21.21-2.01,0-3.6-.01-5.19,0-1.64.02-3.28.06-4.96.09v21Zm197.72,171.64h26.39c-.11-.78-.19-1.36-.28-1.99h-26c-.04.68-.07,1.22-.11,1.99Zm-152.36-179.13c.67-2.02.72-11.26.16-13.51h-4.62c1.5,4.54,2.93,8.88,4.45,13.51Zm-68.31,0c.15.03.31.05.46.08,1.47-4.47,2.95-8.93,4.46-13.53h-4.92v13.45Zm56.62-13.52v11.64c.14.03.29.06.43.09,1.22-3.85,2.45-7.69,3.73-11.72h-4.16Zm-47.54.03c.28,2.67,2.69,10.06,3.69,11.38v-11.38h-3.69Z"/>
      <path class="cls-2" d="m813.13,742.59c27.94,10.11,55.14,20.95,83.88,28.31-19.22,7.13-38.2,14.17-57.39,21.29,7.7,18.39,15.3,36.54,23.09,55.14-1.37-.53-2.24-.85-3.1-1.21-23.62-9.77-47.3-19.39-71.46-27.76-7.7-2.67-15.47-5.05-23.48-6.71-8.31-1.72-15.99-5.02-22.73-10.29-3.42-2.68-6.36-5.81-8.85-9.39-1.76-2.54-2.54-5.26-2.44-8.34.21-6.31.32-12.63.46-18.94.28-13.11.56-26.21.83-39.32.03-1.5,0-3,0-4.73-1.21.06-2.31.08-3.4.16-9.16.75-18.32,1.6-27.49,2.25-11.56.82-23.14,1.53-34.71,2.2-7.18.42-14.37.78-21.56,1.02-16.3.56-32.6,1.24-48.91,1.49-25.27.39-50.54.58-75.8.64-16.87.04-33.74-.45-50.61-.43-24.07.03-48.14.46-72.21.43-20.63-.03-41.26-.31-61.88-.76-17.58-.39-35.17-1.03-52.74-1.83-15.01-.69-30.01-1.68-45.01-2.68-9.81-.66-19.6-1.59-29.4-2.39-.85-.07-1.71,0-2.8,0,0,.84-.01,1.54,0,2.23.32,14.06.64,28.13.96,42.19.14,6.07.21,12.15.45,18.22.14,3.35-.77,6.26-2.7,8.98-5.35,7.55-12.52,12.75-21.04,16.06-3.85,1.5-7.88,2.66-11.92,3.54-9.24,2.01-18.16,5.04-27.03,8.2-22.35,7.96-44.34,16.86-66.26,25.94-.86.36-1.74.69-3.12,1.23,7.79-18.61,15.39-36.76,23.09-55.16-19.18-7.11-38.17-14.16-57.59-21.36,3.4-.84,6.35-1.49,9.25-2.31,15.54-4.38,30.71-9.87,45.9-15.31,8.87-3.18,17.68-6.53,26.52-9.8.65-.24,1.29-.53,2.25-.92-.84-.61-1.49-1.03-2.09-1.51-2.66-2.17-5.44-4.21-7.92-6.57-2.7-2.56-4.67-5.71-5.46-9.41-.33-1.53-.5-3.23-.18-4.73,2.56-12.2,5.32-24.36,9.46-36.13,3.05-8.66,6.57-17.16,8.8-26.1.36-1.44,1.45-2.26,2.61-2.99,2.47-1.57,5.25-2.33,8.08-2.87,5.59-1.06,11.25-1.42,16.94-1.46,12.57-.09,25.09.7,37.6,1.78,14.17,1.23,28.34,2.5,42.53,3.55,14.91,1.1,29.83,2.07,44.75,2.87,17.32.94,34.66,1.79,51.99,2.4,22.85.81,45.71,1.55,68.57,1.96,27.5.49,55.01.88,82.51.79,26.62-.09,53.25-.75,79.86-1.33,17.03-.37,34.05-.93,51.07-1.6,16.54-.66,33.07-1.47,49.59-2.4,14.45-.81,28.89-1.77,43.31-2.87,11.87-.9,23.72-2.13,35.58-3.13,14.5-1.22,29.01-2.32,43.58-1.99,5.6.13,11.2.45,16.63,1.92,2.21.6,4.32,1.62,6.39,2.63,1.34.65,1.99,1.91,2.44,3.38,1.79,5.8,3.48,11.64,5.66,17.3,4.79,12.41,8.22,25.2,11.1,38.15.36,1.64.6,3.31,1.07,4.92.92,3.19.33,6.16-1.02,9.07-1.54,3.33-3.84,6.09-6.58,8.45-1.81,1.56-3.79,2.93-5.7,4.37-.62.47-1.25.91-2.27,1.65Zm-71.8,14.81c.71-.2,1.02-.25,1.29-.38,2.56-1.12,5.03-2.51,7.68-3.34,5.93-1.88,11.91-3.61,17.94-5.17,11.15-2.89,22.16-6.15,32.63-11.02,4.14-1.92,8.21-4.01,11.72-6.95,1.88-1.57,3.51-3.46,5.14-5.31,1.44-1.65,1.52-3.42-.02-5.15-.58-.65-1.1-1.38-1.58-2.11-1.04-1.57-2.5-2.24-4.35-2.59-12.64-2.39-25.26-2.05-37.91-.15-8.45,1.27-16.9,2.45-25.36,3.66-2.03.29-4.06.55-6.31.85-.29,12.6-.58,24.96-.88,37.63Zm-546.04-37.61c-1.12-.18-1.9-.33-2.68-.44-8.77-1.23-17.57-2.31-26.32-3.71-12.78-2.04-25.54-2.62-38.41-.71-3.85.57-6.5,2.23-8.33,5.5-.04.07-.08.14-.13.2-1.09,1.29-.91,2.57-.09,3.95,1.41,2.39,3.34,4.27,5.49,5.95,4.18,3.28,8.87,5.69,13.7,7.83,9.74,4.31,19.89,7.45,30.22,9.98,9.09,2.22,18.14,4.49,26.53,8.82.18.09.45.01.9.01-.29-12.41-.58-24.76-.87-37.39Zm52.89-31.3c.64-.68,1.06-1.23,1.58-1.68,3.85-3.35,3.85-10.89.18-14.49-2.78-2.72-6.42-3.44-10.04-3.84-5.22-.58-10.48-.83-15.72-1.23-2.63-.21-3.03.04-3.28,2.77-.43,4.68-.78,9.37-1.14,14.05-.51,6.64-.99,13.28-1.5,19.92-.12,1.56.15,2.03,1.72,2.27,1.56.24,3.15.36,4.72.52,2.69.28,5.37.6,8.06.81,2.93.24,5.87.58,8.8.52,4.73-.09,8.44-2.36,10.45-6.61,1.52-3.21,2.03-7.76-1.83-11.12-.59-.52-1.14-1.08-2.01-1.91Zm123.48,14.54c.71-.67,1.22-1.3,1.85-1.74,3.85-2.68,5.4-6.49,5.7-11.03.15-2.29-.67-4.32-1.07-6.46-.44-2.35-2.05-3.96-3.53-5.31-2.4-2.19-5.57-3.31-8.91-3.43-5.79-.2-11.59-.28-17.38-.43-2.34-.06-2.64.12-2.76,2.47-.17,3.26-.23,6.53-.31,9.8-.13,5.15-.23,10.31-.37,15.46-.09,3.16-.28,6.32-.32,9.49,0,.5.46,1.31.89,1.46,1.52.51,3.11.67,4.71.23.34-.1.77-.26,1.06-.15,2.47.98,3.58.31,3.71-2.34.07-1.35.08-2.71.11-4.07.07-3.15,1.26-4.06,4.19-2.91.89.35,1.68,1.22,2.26,2.04,1.51,2.13,2.91,4.35,4.29,6.57.8,1.28,1.93,1.82,3.37,1.89,2.45.11,4.9.28,7.36.29.67,0,1.35-.49,2.24-.84-2.44-3.77-4.67-7.24-7.08-10.97Zm-96.74-21.59c1.99,0,3.5-.06,5,.01,4.2.19,8.39.47,12.59.62,1.62.06,1.98-.37,2.11-1.87.15-1.67.28-3.33.4-5,.17-2.41-.33-2.95-2.78-3.06-4.05-.18-8.11-.3-12.15-.54-4.21-.25-8.4-.65-12.61-.91-2.13-.13-2.63.22-2.84,2.3-.25,2.46-.26,4.94-.35,7.41-.1,2.59-.14,5.19-.28,7.78-.13,2.46-.38,4.91-.56,7.36-.11,1.49-.18,2.99-.26,4.48-.15,2.68-.32,5.36-.44,8.05-.05,1.15.52,1.73,1.73,1.78,1.99.08,3.97.29,5.95.42,6.2.42,12.39.84,18.59,1.24.71.05,1.43-.1,2.14-.11,1.1,0,1.63-.63,1.7-1.62.14-2.21.24-4.43.27-6.64.01-.9-.57-1.45-1.51-1.55-.48-.05-.95-.12-1.43-.15-4.77-.3-9.55-.6-14.32-.9-1.86-.11-2.6-.97-2.28-2.8.1-.6.43-1.16.71-1.86,4.3.26,8.5.45,12.7.79,2.34.19,3.1-.35,3.14-2.65.03-1.56.07-3.13.08-4.69,0-.52-.07-1.05-.11-1.62-5.22-1-10.49-.29-15.76-1.78.21-1.59.39-2.97.58-4.49Zm40.19,6.83c.1-1.5.05-2.63.3-3.68.11-.46.8-1.05,1.28-1.11,1.17-.15,2.38-.06,3.58-.01,4.28.16,8.56.38,12.84.48,1.59.04,1.99-.4,2.1-1.89.13-1.83.23-3.66.28-5.49.05-1.87-.45-2.41-2.35-2.5-2.93-.14-5.87-.23-8.81-.33-1.35-.05-2.71-.03-4.06-.11-4.21-.23-8.42-.52-12.63-.72-1.72-.08-2.28.46-2.54,2.18-.09.55-.07,1.12-.1,1.67-.25,5.69-.17,11.38-.58,17.07-.39,5.33-.51,10.68-.73,16.02-.07,1.75.31,2.11,2.17,2.34.47.06.95.11,1.42.14,6.21.31,12.42.63,18.63.9,2.06.09,4.12.06,6.18.08,1.34.02,1.83-.78,1.88-1.98.05-1.35.05-2.71.11-4.06.16-3.55-.1-3.83-3.6-3.96-4.62-.18-9.25-.37-13.87-.57-1.5-.06-2.23-.76-2.17-2.24.03-.75.34-1.49.52-2.24.62-.03,1.01-.09,1.4-.07,3.9.15,7.81.28,11.71.47,2.11.1,2.85-.45,2.89-2.48.03-1.64-.18-3.3,0-4.91.16-1.46-.39-1.83-1.68-1.88-3.22-.12-6.43-.28-9.64-.5-1.4-.09-2.78-.37-4.51-.61Zm144.9-1.5c1.89-.16,3.31-.36,4.73-.38,4.35-.06,8.71-.01,13.06-.1,1.36-.03,1.8-.62,1.83-1.96.04-1.83.07-3.65.07-5.48,0-1.82-.61-2.46-2.43-2.46-8.52.02-17.05.06-25.57.12-1.74.01-2.25.48-2.52,2.19-.1.63-.09,1.28-.06,1.91.11,2.55.33,5.1.36,7.64.06,4.5,0,9.01,0,13.51,0,3.88-.01,7.75.01,11.63.01,1.98.37,2.32,2.37,2.48.32.03.64.06.96.06,6.23,0,12.45.02,18.68-.02,2.07-.01,4.15-.04,6.2-.25,1.77-.19,2.12-.73,2.12-2.49,0-1.1-.13-2.21-.07-3.31.2-3.61-.3-4.14-3.97-4.12-4.47.02-8.94.04-13.42.05-2.07,0-2.8-.74-2.6-2.74.06-.6.36-1.18.6-1.9,4.42,0,8.72,0,13.02,0,2.15,0,2.69-.53,2.62-2.68-.06-1.64-.25-3.29-.18-4.92.06-1.33-.5-1.67-1.69-1.66-3.25.02-6.5,0-9.75-.02-1.49,0-3.01.12-4.65-.85.08-1.3.17-2.69.27-4.23Zm50.13,18.59c-.87.58-1.72,1.6-2.69,1.72-2.72.34-5.46.21-7.57-1.97-1.31-1.35-2.77-1.96-4.71-1.65-1.38.22-2.81.1-4.21.15-1.39.05-1.89.66-1.78,2.11.22,3.09,1.71,5.51,4.25,7.13,7.07,4.52,14.5,4.24,21.95,1.12,1.37-.57,2.6-1.62,3.66-2.94,1.73-2.16,2.17-4.53,2.22-7.07.05-2.71-1.22-5.09-2.87-7.04-1.25-1.47-3.12-2.54-4.89-3.41-2.47-1.21-5.11-2.08-7.68-3.1-1.33-.53-2.66-1.07-3.99-1.6-.91-.36-1.57-1.07-1.35-1.99.16-.66.77-1.44,1.38-1.72,3.1-1.43,6.43-.88,8.37,2.08.62.94,1.22,1.45,2.19,1.48,1.83.06,3.67.03,5.5-.06,2.19-.11,2.85-1.12,2.16-3.14-.13-.37-.31-.73-.41-1.11-1.04-3.84-3.7-6.17-7.25-7.57-4.27-1.69-8.69-1.81-13.15-.85-3.05.66-5.67,2.1-7.73,4.44-2.37,2.68-3.62,7.49-1.49,11.84,1.63,3.31,4.35,5.22,7.6,6.52,2.92,1.17,5.92,2.14,8.87,3.25,1.58.59,3.1,1.29,3.61,3.41Zm142.71-34.76c0,.06,0,.12,0,.18-1.2,0-2.39-.01-3.59,0-1.05.01-1.69.39-2.07,1.54-1.36,4.14-2.93,8.21-4.31,12.35-1.4,4.18-2.66,8.42-4.02,12.62-.61,1.88-1.32,3.73-1.99,5.59-.66,1.85-1.36,3.68-2,5.54-.66,1.96-.12,2.71,1.93,2.64,1.35-.05,2.71-.38,4.05-.3,3.07.2,4.97-.88,5.48-4.11.2-1.26,1.07-2.06,2.51-2.13,3.5-.15,7-.25,10.48-.61,2.1-.21,3.1.78,3.8,2.48.12.3.24.59.35.89.55,1.47,1.64,2.11,3.17,2,2.21-.16,4.43-.29,6.63-.54,1.41-.16,1.9-1.03,1.34-2.36-.43-1.02-1.1-1.93-1.56-2.94-2.22-4.92-4.39-9.86-6.61-14.78-1.02-2.25-2.11-4.45-3.18-6.67-1.34-2.78-2.69-5.57-4.05-8.34-1.05-2.14-2.42-3.78-5.19-3.06-.37.1-.8.01-1.19.01Zm-39.18,26.52c-.17-.01-.34-.02-.52-.04-.18-.33-.37-.66-.53-1-3.1-6.96-6.31-13.88-9.22-20.92-.66-1.61-1.69-1.85-2.89-1.88-2.05-.05-4.11.19-6.16.32-2.28.15-2.71.74-1.8,2.85,1.37,3.21,2.84,6.39,4.32,9.56,2.05,4.39,4.16,8.75,6.22,13.13,1.77,3.77,3.47,7.58,5.3,11.33.26.53,1,.92,1.6,1.17,2.39.96,4.85,0,7.27.14,1.41.08,2.13-.66,2.59-1.97,1.48-4.27,3.08-8.5,4.57-12.77,1.36-3.89,2.62-7.82,3.96-11.72,1.25-3.62,2.61-7.21,3.8-10.85.66-2-.14-2.79-2.28-2.59-1.41.13-2.83.26-4.24.29-3.31.07-3.65.01-4.89,3.66-1.63,4.77-3.02,9.61-4.58,14.4-.76,2.32-1.67,4.6-2.52,6.89Zm-193.4,5.51c.72-.16,1.26-.37,1.8-.37,3.87-.01,7.74-.08,11.59.1,1.3.06,2.24-.28,2.35-1.38.25-2.57.59-5.2-.55-7.79-1.39-.1-2.71-.23-4.04-.27-2.79-.08-5.59-.17-8.38-.15-1.1,0-2.02-.2-2.85-1.03.06-1.11.09-2.22.19-3.33.17-1.77.52-2.13,2.2-2.12,2.94.01,5.88.14,8.81.12,2.35-.02,4.71-.2,7.22-.32.19-2.58.44-4.99.52-7.4.05-1.43-.62-2.11-1.94-2.19-2.21-.15-4.43-.23-6.65-.29-.87-.02-1.75.16-2.63.14-5.03-.09-10.05-.26-15.07-.31-2.41-.03-2.64.29-2.78,2.83-.17,3.23.24,6.45-.07,9.69-.22,2.27.02,4.58-.03,6.87-.04,2.2.02,4.38-.15,6.6-.28,3.8.06,7.64.04,11.47,0,.99.26,1.6,1.23,1.66,2.44.15,4.89.31,7.34.28.82,0,1.66-.46,1.66-1.65,0-2.78.12-5.56.17-8.34.02-.92,0-1.85,0-2.81Zm120.24-17.1c.17.92.32,1.38.33,1.85.14,4.05.27,8.1.39,12.16.13,4.29.22,8.59.39,12.88.05,1.37.65,1.92,2.13,1.98,1.91.08,3.82.04,5.73,0,2.13-.05,2.6-.6,2.54-2.77-.07-2.38-.16-4.76-.22-7.14-.06-2.38-.06-4.76-.12-7.14-.08-3.25-.26-6.5-.26-9.74,0-2.52.48-2.83,3.01-2.81,2.39.02,4.78-.06,7.17-.12.87-.02,1.71-.34,1.7-1.31-.01-2.46-.08-4.93-.31-7.38-.08-.93-.87-1.5-1.92-1.36-.78.1-1.55.33-2.33.35-2.44.04-4.88-.02-7.32,0-2.71.03-5.42.09-8.12.17-4.29.12-8.57.24-12.86.42-1.35.06-1.9.6-1.92,1.93-.03,1.98.02,3.96.16,5.94.12,1.71.74,2.22,2.44,2.17,1.42-.04,2.84-.19,4.27-.2,1.65-.01,3.31.07,5.11.11Zm168.09,20.67s0,.04,0,.06c.96,0,1.92.08,2.87-.02,1.62-.17,2.07-.68,2.05-2.33-.02-1.34-.2-2.67-.29-4.01-.28-3.93-.28-3.96-4.24-3.68-4.12.29-8.23.66-12.35.93-1.7.11-2.44-.54-2.56-2.1-.21-2.77-.35-5.54-.54-8.32-.38-5.51-.76-11.03-1.17-16.54-.11-1.48-.42-1.84-1.88-1.87-1.74-.03-3.49,0-5.21.2-2.07.25-2.73.92-2.88,3.08-.12,1.72.08,3.47.18,5.2.18,3.1.47,6.19.57,9.28.11,3.13.8,6.18.69,9.36-.12,3.4.45,6.82.77,10.23.18,1.9.55,2.27,2.33,2.18,3.34-.16,6.69-.36,10.02-.62,3.88-.3,7.76-.69,11.64-1.04Zm-129.93,7.28c0-.05,0-.1.01-.15.86.05,1.72.12,2.58.13,2.13.02,2.99-.92,2.89-3.05-.19-3.97-.39-7.94-.52-11.91-.25-7.45-.45-14.89-.69-22.34-.05-1.42-.53-1.91-2.1-1.96-2.13-.07-4.26-.05-6.39.05-1.33.06-1.9.68-1.92,1.97-.03,1.87.01,3.75.1,5.63.19,4.04.51,8.08.65,12.13.2,5.62.25,11.24.43,16.86.06,2.01.85,2.66,2.81,2.64.71,0,1.43,0,2.14,0Z"/>
      <path class="cls-2" d="m377.02,812.87c-2.37-3.36-4.53-6.41-6.76-9.56-7.66,3.26-15.82,4.06-23.93,6.3-2.18-7.69-4.3-15.19-6.49-22.92-2.8-.13-5.57-.25-8.63-.39,1.4-6.08,2.77-12.03,4.19-18.22-1.72-.84-3.41-1.67-5.25-2.57.2-7.04.83-13.99,4.33-20.36.46-.83.97-1.33,2.03-1.32,13.28.04,26.55.04,39.83.06.15,0,.3.08.76.21-.49,1.94-1.06,3.89-1.44,5.88-.39,2.02-.52,4.08.25,6.35.8-.51,1.52-.84,2.09-1.34,2.17-1.89,4.34-3.78,6.41-5.78.65-.63,1.01-1.6,1.4-2.46.39-.87.66-1.79,1.02-2.77h9.87c0,.52.13.96-.02,1.29-.82,1.81-.14,3.18,1.04,4.56,1.22,1.43,2.29,2.98,3.73,4.87.34-3.91.63-7.28.93-10.73h10.08c-.21,2.89-.42,5.7-.64,8.79,1.01.07,1.85.19,2.69.18,4.46-.06,8.72-1.11,12.82-2.76,3.41-1.37,6.79-2.82,10.08-4.46,2.72-1.35,5.46-2.06,8.52-1.9,3.1.17,6.21.04,9.51.04.33,1.55.64,2.93.91,4.32,1.41,7.33,4.29,13.88,10.01,18.92.48.42.97.83,1.48,1.22.31.24.65.45,1.17.8.72-.75,1.46-1.44,2.11-2.22,2.32-2.8,3.98-6,5.28-9.36,1.35-3.5,2.55-7.07,3.81-10.6.35-.97.72-1.93,1.15-3.1,1.63,0,3.21,0,4.79,0,3.44,0,6.88.05,10.32-.02,1.57-.03,3,.27,4.39.97.93.47,1.9.85,2.85,1.27,2.13.94,4.28,1.54,6.68,1.6,3.67.09,7.03,1.36,9.93,3.73,1.86,1.52,1.93,1.52,5.05,1.35-1.1-2.85-2.17-5.65-3.38-8.79,3.75-.21,7.2-.05,10.76-.1,1.33,3.21,2.6,6.29,3.96,9.59,1.9-1.7,3.07-3.68,4.38-5.53.25-.36.05-1.07-.02-1.62-.09-.69-.24-1.38-.41-2.27h9.97c.16.34.39.68.49,1.06,1.42,5.57,6.35,7.84,10.38,11.5,1.44-4.59-.09-8.42-1.2-12.49.78-.1,1.37-.23,1.96-.23,12.72-.01,25.43.01,38.15-.04,1.4,0,2.18.44,2.8,1.68,1.99,3.98,3.24,8.16,3.66,12.58.23,2.45.38,4.92.56,7.39-1.86.91-3.55,1.75-5.33,2.62,1.41,6.12,2.78,12.09,4.24,18.43-2.27,0-4.26-.04-6.24,0-2.43.06-2.45.09-3.09,2.38-1.8,6.38-3.59,12.76-5.39,19.15-.11.38-.23.75-.44,1.44-4.06-.89-8.09-1.7-12.08-2.68-3.94-.96-7.84-2.09-12.07-3.23-1.97,2.81-4.12,5.87-6.49,9.24-3.71-5.41-6.97-10.85-10.53-16.17-1.18.27-2.24.61-3.33.73-5.04.55-8.91-1.44-11.55-5.69-1.81-2.92-3.42-5.96-5.12-8.95-.39-.68-.79-1.35-1.18-2.02-2.08.56-2.72,1.82-2.65,3.76.07,1.99-.12,3.99-.27,5.99-.54,7.23-5.85,12-13.09,11.8-1.1-.03-2.2-.15-3.54-.25-.77,9.21-1.53,18.32-2.33,27.82-4.7-2.38-9.08-4.6-13.49-6.83-.33.38-.57.59-.73.85-2.97,5.01-6.92,9.18-11.31,12.95-4.73,4.07-9.48,8.09-14.49,12.36-8.38-8.75-16.76-17.48-25.22-26.3-3.25,1.58-6.39,3.12-9.87,4.81-2.06-8.9-5.17-17.35-6.34-26.57-3.55.16-7.03.32-10.49.47-2.13-2.93-4.74-10.23-6.9-19.32-.41.5-.79.84-1.03,1.26-1.37,2.35-2.78,4.67-4.03,7.09-2.63,5.08-8.03,8.39-14.72,6.2-.22-.07-.46-.07-.88-.13-3.39,5.25-6.8,10.54-10.43,16.18Zm100.08-37.21c3.04,2.36,5.84,4.47,8.57,6.67,2.25,1.82,4.43,3.68,7.62,3.24.07-.01.16.02.23.04,5.18,1.32,10.36,2.63,15.52,3.99.47.12.99.5,1.25.91.91,1.43,2.05,1.98,3.7,1.63,1.21-.25,1.81-.92,1.84-2.69.15-8.22.36-16.44.27-24.65-.05-4.57-2.83-7-7.41-6.95-2.21.02-4.29-.38-6.28-1.24-3.51-1.52-7-3.1-10.5-4.66-.69-.31-1.38-.6-2.2-.96-3.05,8.93-5.91,17.59-12.6,24.67Zm-55.79,15.59c2.47-.2,4.78-.33,7.07-.62.65-.08,1.33-.52,1.83-.97,2.49-2.27,5.42-3.61,8.67-4.38,3.04-.73,6.1-1.11,9.19-.31,2.97-4.32,5.82-8.46,8.53-12.4-2.1-3.27-4.32-6.22-5.99-9.46-1.65-3.21-2.75-6.71-4.14-10.21-2.9,1.34-5.73,2.64-8.55,3.95-5.3,2.47-10.71,4.64-16.5,5.63-1.32.23-1.65,1.06-1.92,2.09-1.56,5.94-2.09,11.96-.96,18.03.54,2.89,1.2,5.77,2.77,8.65Zm53.93,22.67c-4.63,2.58-9.21,2.55-13.85.27-.4-.19-1-.37-1.34-.21-2.86,1.34-5.68,2.76-8.78,4.29,5.57,5.82,10.85,11.34,16.3,17.03,5.99-5.18,12.41-9.69,16.56-16.83-3.11-1.59-6.01-3.08-8.89-4.55Zm-79.97-29.52c2.21-4.24,4.31-8,6.15-11.89,1.16-2.44.32-4.19-1.92-5.72-1.43-.98-2.8-2.11-3.96-3.39-1.7-1.89-3.18-3.98-4.75-5.99-3.67,2.94-7.26,5.82-10.92,8.76,1.64,3.69,2.62,7.84,6.59,10.12.81.46,1.41,1.29,2.12,1.94,2.11,1.95,4.21,3.89,6.69,6.18Zm151.49-26.93c-.13.08-.29.14-.38.26-1.52,1.95-3.15,3.83-4.52,5.88-.88,1.31-2.04,2.16-3.33,2.92-3.13,1.85-3.74,3.48-2.16,6.72,1.57,3.22,3.35,6.35,5.06,9.5.25.45.63.84.96,1.27.33-.21.55-.31.72-.47,3.58-3.17,7.16-6.35,10.73-9.53.18-.16.38-.32.47-.53,1.16-2.51,2.3-5.02,3.32-7.28-3.82-3.07-7.35-5.9-10.87-8.74Zm-77.04,25.51c-2.14,1.09-2.16,1.08-3.7-.54-.68-.72-1.38-1.41-2.21-2.25-2.63,3.83-5.06,7.35-7.58,11,4.23,4.4,8.11,8.89,12.51,13.18,3.61-4.76,7.02-9.26,10.59-13.97-3.26-2.52-6.46-5-9.62-7.43Zm122.01-36.59c-3.24.69-6.4,1.55-9.61,2.01-3.29.47-6.63.55-10.05.81v6.4c1.85.98,3.7,1.9,5.5,2.92,1.32.75,2.44.91,3.98.24,4.85-2.11,9.74-2.29,14.45.56.17.1.44.04.66.05.33-3.83-1.93-9.68-4.93-12.98Zm-251.15,12.93c.35.06.44.11.5.08.65-.29,1.29-.59,1.94-.89,4.46-2.1,8.84-1.43,13.22.3.68.27,1.62.6,2.19.34,2.38-1.08,4.67-2.36,6.92-3.53v-6.49c-6.71-.35-13.32-.57-19.59-3.04-3.05,4.07-4.9,8.33-5.18,13.23Zm114.46,45.59c-3.14-3.3-6-6.39-8.97-9.37-.49-.49-1.47-.8-2.16-.72-1.57.19-3.14.57-4.63,1.09-2.39.84-3.56,2.74-3.48,5.19.12,4.09,1.57,7.88,2.67,12.06,5.64-2.81,10.95-5.45,16.58-8.25Zm44.43-7.31c-2.72-.68-5.1-1.35-7.52-1.85-2.02-.42-3.79.08-5.1,1.84-1.05,1.41-2.19,2.75-3.24,4.16-.84,1.12-1.62,2.28-2.55,3.6,5.73,2.92,11.17,5.7,17.04,8.69.47-5.69.91-10.9,1.37-16.44Zm-129.89-12.73c2.48,3.49,4.63,6.69,7.08,10.08,2.03-3.16,3.82-5.94,5.69-8.86-1.31-1.17-2.47-2.26-3.68-3.28-.99-.83-2.14-1.08-3.35-.55-1.81.79-3.6,1.63-5.74,2.6Zm-14.19-8.05c-.68-2.54-1.28-4.91-1.95-7.27-.51-1.82-2.19-1.92-3.62-2.24-1.5-.34-2.91.03-3.75,1.42-1.46,2.41-1.83,5.11-2.32,8.09h11.64Zm226.68-.01h11.67c-.56-2.91-.87-5.57-2.25-7.94-.76-1.3-2-1.87-3.45-1.6-1.52.28-3.35.29-3.94,2.15-.76,2.41-1.34,4.87-2.02,7.39Zm-14.24,8.12c-1.03-.52-1.66-.85-2.3-1.16-5.32-2.55-6.06-2.4-9.98,2.02-.1.11-.14.28-.29.57,1.75,2.71,3.53,5.49,5.55,8.61,2.45-3.5,4.66-6.66,7.03-10.04Zm-214.54,12.7c3.85-.73,7.42-1.27,10.9-2.77-1.07-1.98-2.1-3.39-4.38-3.88-1.62-.35-3.25-1.4-4.48-2.56-1.46-1.38-2.91-1.67-4.95-1.23.97,3.46,1.9,6.8,2.91,10.44Zm233.83-10.51c-2.14-.31-3.54-.04-4.96,1.26-1.3,1.2-3,2.24-4.69,2.65-2.25.55-3.25,1.93-4.11,3.9,3.52,1.39,7.06,2.07,10.81,2.65,1-3.55,1.94-6.89,2.95-10.46Zm-15.3-11.53c1-2.64,1.62-5.12,2.09-7.72-1.45-.72-2.7-1.34-4.01-2-.48,1.14-.67,2.7-1.29,2.89-2.16.66-2.05,2.51-2.85,4.08,2.07.94,3.99,1.81,6.06,2.74Zm-208.32-7.7c.59,2.7,1.14,5.2,2.13,7.74,2.18-1.02,4.1-1.91,6.12-2.86-.96-1.48-.71-3.52-2.89-3.9-.27-.05-.44-.78-.62-1.21-.23-.55-.44-1.11-.71-1.81-1.38.7-2.57,1.3-4.03,2.04Z"/>
      <path class="cls-2" d="m731.49,504.1c6.01-1.07,11.95-1.44,17.95-.98,1.78.14,3,.96,3.59,2.67.03.07.07.14.11.22,2.5,5.87,5,11.73,7.49,17.6,1.24,2.94,2.43,5.91,3.66,8.85,4,9.58,7.97,19.17,12.03,28.72,1.5,3.53,3.23,6.95,4.87,10.42.3.63.69,1.21,1.3,2.29.2-1.22.38-1.95.42-2.69.35-6.14.98-12.27.38-18.43-.12-1.27-.07-2.56-.07-3.83-.02-14.31-.03-28.61-.05-42.92,0-.78,0-1.56,0-2.44,7.29-1.32,14.28-1.58,21.49.54,0,1.93-.02,3.75,0,5.58.07,5.03.19,10.07.22,15.1.01,2.47-.19,4.95-.21,7.42-.07,6.23-.11,12.46-.15,18.69-.1,14.62-.26,29.24-.25,43.87,0,5.11.47,10.21.66,15.32.08,2.07-.03,4.15-.05,6.23-.03,3.51-.1,7.03-.08,10.54.01,2.19-.19,2.46-2.38,2.56-6.71.29-13.42.49-20.31-.62-2.84-6.75-5.88-13.61-8.63-20.58-5.8-14.7-11.33-29.51-18.38-43.69-.52-1.04-.91-2.13-1.76-3.17-.09.49-.26.97-.25,1.45.22,14.62.46,29.24.68,43.86.03,2.15.02,4.31-.06,6.46-.18,4.47-.47,8.93-.59,13.4-.03,1.27-.55,2.02-1.61,2.32-1.68.47-3.4.94-5.14,1.08-4.97.4-9.88-.08-14.97-1.19-.16-.79-.46-1.63-.46-2.46,0-2.46.18-4.91.17-7.37,0-3.11-.16-6.22-.18-9.32-.03-3.59,0-7.18.03-10.78.01-1.36.14-2.71.13-4.07-.06-8.23-.22-16.46-.2-24.69.03-13.18.19-26.36.29-39.54.06-8.07.08-16.14.14-24.21,0-.71.11-1.41.17-2.22Z"/>
      <path class="cls-2" d="m181.8,504.56c7.34-1.95,14.35-1.56,21.31-.28.15.46.32.69.29.9-.79,7.16-.47,14.34-.45,21.51.02,5.91.39,11.82.45,17.74.13,12.23.18,24.46.2,36.69.01,5.03-.12,10.07-.18,15.1,0,.56-.08,1.14.04,1.68,1.37,6.01.67,12.1.74,18.15.04,4,.05,7.99.02,11.99-.02,1.94-.53,2.37-2.42,2.36-4.63-.03-9.26-.04-13.88-.08-1.2-.01-2.4-.06-3.59-.17-1.96-.18-2.68-.88-2.83-2.84-.09-1.19.02-2.4.02-3.59.04-14.62.08-29.25.12-43.87,0-.46-.1-.93-.18-1.65h-25.12c-.1.97-.28,1.98-.3,3-.13,5.19-.23,10.38-.31,15.58-.1,6.55-.21,13.11-.25,19.66-.01,2.07.22,4.14.27,6.21.06,2.12.11,4.25.03,6.37-.05,1.2-1.02,1.49-2.07,1.5-4.79.08-9.59.19-14.38.24-1.2.01-2.39-.13-3.59-.22-1.84-.14-2.19-.47-2.28-2.33-.21-4.15-.48-8.3-.53-12.46-.09-6.55-.35-13.12.02-19.65.79-13.9.27-27.8.39-41.7.02-2.63-.3-5.27-.31-7.9-.01-2.87.15-5.75.23-8.62.08-2.79.16-5.59.22-8.38.12-5.35.24-10.7.32-16.05.04-3.03,0-6.06,0-9.43,1.73-.29,3.75-.9,5.77-.91,3.98-.02,7.97.27,11.95.47.63.03,1.25.27,1.87.43,1.08.28,1.56.95,1.46,2.11-.22,2.55-.26,5.11-.56,7.65-.8,6.8-.16,13.58.3,20.35.45,6.54,1.07,13.06.85,19.63-.02.62.08,1.24.14,1.93h25.62c.93-17.04.93-33.95.62-51.09Z"/>
      <path class="cls-2" d="m711.62,552.07c0,6.31,0,12.61,0,18.92,0,.64,0,1.29.11,1.91,1.19,6.98.69,14,.41,20.99-.17,4.29-1,8.55-1.51,12.82-.17,1.42-.04,2.92-.44,4.26-1.35,4.47-4.01,8.12-7.61,11.08-4.24,3.48-8.87,6.24-14.23,7.64-2.24.59-4.49,1.15-6.75,1.61-2.28.46-4.58.61-6.88-.06-.68-.2-1.42-.31-2.13-.27-2.83.16-5.32-.85-7.78-2.06-4.86-2.39-9.18-5.59-12.77-9.58-3.58-3.98-6.05-8.71-6.63-14.11-.68-6.41-1.66-12.77-1.16-19.31.49-6.43.09-12.93.11-19.4.04-9.91.07-19.82.17-29.73.04-4.07.09-8.16.41-12.21.3-3.74,1.71-7.11,4.42-9.82,1.3-1.3,2.65-2.54,3.91-3.87,2.13-2.25,4.64-3.87,7.51-5,2.15-.85,4.22-1.91,6.37-2.73,1.18-.45,2.46-.66,3.71-.88,4.41-.77,8.84-1.44,13.34-.77.55.08,1.14.1,1.64.3,5.7,2.28,11.53,4.32,16.4,8.2,1.03.82,1.83,2.01,2.53,3.16,4.2,6.87,6.9,14.17,6.64,22.4-.17,5.51-.03,11.03-.03,16.54.07,0,.14,0,.22,0Zm-45.49,8.98c-.05,0-.1,0-.15,0,0,3.52-.04,7.03.01,10.55.03,2.07.23,4.15.29,6.22.13,4.78.63,9.54.25,14.36-.37,4.65.17,9.24,2.78,13.37,1.04,1.65,2.25,2.92,4.22,3.13,1.9.2,3.85.45,5.72.2,6.73-.91,9.96-4.71,10.76-10.65.46-3.38.53-6.85.42-10.27-.22-7.07.23-14.17-.83-21.21-.11-.71-.08-1.43-.09-2.15-.12-9.18-.24-18.36-.35-27.54-.02-1.28.08-2.56.03-3.83-.18-5.06-4.77-8.7-9.09-9.33-2.86-.42-5.79.13-8.39,1.45-3.28,1.66-5.27,4.27-5.3,8.16-.06,9.18-.18,18.37-.28,27.55Z"/>
      <path class="cls-2" d="m293.54,503.25c2.21,8,1.53,15.46-.1,23.09-14.93-.18-29.68-.36-44.23-.53-.3.43-.46.55-.46.68-.29,7.25-.61,14.51-.84,21.76-.08,2.57.38,5.08,1.33,7.81,11.37-.43,22.75-.47,34.26.05,1.44,7.04,1.81,13.88.29,21h-34.57c-.77,10.17-1.2,20.1-.47,30.31,15.08.22,29.94,1.5,44.73-.03,2.22,4.75,1.35,16.88-.31,21.98-5.88-.66-11.77-.16-17.64-.53-7.38-.46-14.69.44-22.03.75-8.06.34-16.14.38-24.22.49-2.41.03-2.77-.37-2.82-2.8-.17-8.47-.34-16.94-.42-25.41-.08-7.91-.31-15.84.03-23.73.28-6.48-.28-12.91-.36-19.36-.06-4.55.29-9.1.3-13.65.04-12.38,0-24.77-.02-37.16,0-.56-.01-1.12,0-1.68.08-2.21.63-2.86,2.82-2.9,8.47-.15,16.94-.27,25.42-.35,5.75-.05,11.51-.05,17.27-.02,4.55.03,9.11.15,13.66.2,2.78.03,5.57,0,8.37,0Z"/>
      <path class="cls-2" d="m541.92,546.6c-1.17.18-2.17.43-3.19.48-2.71.14-5.44.08-8.14.34-3.01.28-5.87-.39-8.77-.93-1.67-.31-2.01-.77-1.96-2.45.04-1.36.14-2.71.24-4.07.22-3.08-.41-6.05-1.13-9-.45-1.82-1.39-3.4-2.75-4.7-.83-.79-1.72-1.39-2.97-1.32-.54.03-1.13-.09-1.62-.31-2.11-.91-4.18-.84-6.29.02-.96.39-1.98.61-2.96.96-3.42,1.22-5.28,3.92-5.12,7.53.16,3.83,1.27,7.36,3.46,10.56,3.79,5.53,8.48,10.15,13.91,14.08,2.19,1.59,4.26,3.37,6.28,5.18,3.27,2.92,6.49,5.89,9.66,8.93,3.49,3.35,6.3,7.2,8.11,11.74.38.96.93,1.86,1.37,2.8.24.5.51,1.02.6,1.55,1.32,7.31,1.53,14.56-.89,21.75-1.13,3.36-2.19,6.66-4.65,9.33-1.12,1.22-1.95,2.74-3.17,3.84-4.42,4.02-9.61,6.54-15.6,7.03-5.17.43-10.36.77-15.54.77-3.41,0-6.79-.67-9.73-2.8-2.11-1.52-4.49-2.67-6.55-4.24-1.49-1.14-2.79-2.61-3.92-4.13-3.11-4.2-4.71-8.96-5.23-14.18-.54-5.41-1.31-10.77-.45-16.22.23-1.43.75-2.2,2.18-2.32,2.54-.21,5.09-.61,7.62-.57,3.43.05,6.86.42,10.29.68,1.45.11,1.89.56,1.92,2.15.06,3.04-.09,6.08.09,9.11.13,2.13.5,4.29,1.04,6.36.59,2.25,1.86,4.06,4.4,4.57.46.09.9.31,1.35.49,4.12,1.69,7.82.9,11.19-1.87.62-.51,1.16-1.11,1.81-1.57,2.36-1.67,3-4.1,2.79-6.76-.44-5.66-2.1-10.76-6.72-14.57-4.81-3.96-9.52-8.04-14.2-12.14-5.86-5.13-11.79-10.21-17.44-15.57-2.92-2.77-4.79-6.43-5.62-10.41-1.41-6.77-1.89-13.6-.13-20.41.52-2,.94-4.05,1.71-5.96,2.5-6.28,7.01-10.79,12.92-13.91,7.39-3.89,15.22-5.7,23.61-4.59,1.74.23,3.55.14,5.22.59,1.65.44,3.18,1.37,4.75,2.1.29.13.52.4.81.51,3.19,1.12,5.5,3.44,7.96,5.62,4.16,3.68,6.59,8.33,8.25,13.51,1.86,5.81,2.35,11.72,1.51,17.76-.2,1.42-.2,2.86-.31,4.67Z"/>
      <path class="cls-2" d="m414.44,579.14c-1.18,16.52-.44,32.8-.72,49.05-6.79,2.98-13.63,2.3-20.71.78-.16-.92-.45-1.92-.48-2.93-.11-3.83-.15-7.66-.2-11.49-.11-8.62-.22-17.25-.32-25.87-.03-2.4-.07-4.79-.06-7.19.02-4.55.05-9.11.13-13.66.06-3.35.27-6.7.32-10.06.09-5.59.13-11.18.13-16.78,0-6.47,0-12.94-.08-19.41-.03-2.23-.31-4.45-.37-6.68-.09-3.35-.12-6.71-.1-10.06,0-1.1.8-1.73,2.37-1.81,1.75-.08,3.51.02,5.27.07,3.99.12,7.97.27,11.96.37,5.35.14,10.71.04,16.04.4,6.41.44,12.59,2.06,18.44,4.75,1.27.59,2.52,1.46,3.47,2.48,6,6.41,9.48,13.87,9.66,22.82.14,7.37-.05,14.71-1.51,21.94-.57,2.8-1.5,5.55-2.55,8.21-.54,1.36-1.53,2.64-2.6,3.67-5.89,5.67-12.66,9.81-20.94,10.7-4.68.5-9.41.49-14.11.7-.94.04-1.88,0-3.03,0Zm-.37-53.69c.5,10.41-1.18,20.5.25,30.82,2.2.24,4.24.55,6.29.67,3.93.22,7.78-.22,11.54-1.53,1.57-.55,2.69-1.56,3.22-2.98.65-1.76.95-3.65,1.31-5.51.21-1.09.15-2.22.33-3.31.84-5.11.27-9.96-2.16-14.62-.94-1.81-2.19-2.79-4.09-3.26-5.45-1.36-10.91-.85-16.7-.27Z"/>
      <path class="cls-2" d="m582.51,524.52c-2.46,0-4.6.02-6.74,0-5.03-.06-10.07-.15-15.1-.23-.08,0-.16,0-.24,0-3.52-.22-3.79-.53-4.3-4.05-.75-5.15-.19-10.2,1.07-15.2.21-.84.56-1.63.87-2.51,2.22,0,4.29-.03,6.36,0,7.59.13,15.18.33,22.77.41,7.19.07,14.39-.02,21.58.06,4.47.05,8.94.35,13.41.43,1.97.04,3.95-.19,6.04-.31,3.33,4.36,3.32,15.68-.04,21.39h-23.75c-.1.44-.37,1.1-.4,1.77-.09,2.07-.12,4.15-.14,6.23-.04,4.23-.09,8.47-.07,12.7,0,2.31.24,4.63.21,6.94-.03,2.63-.33,5.26-.33,7.89,0,2.86.19,5.73.34,8.59.11,2.14.44,4.29.42,6.43-.1,12.54-.22,25.09-.43,37.63-.09,5.43-.4,10.86-.63,16.28,0,.22-.14.44-.23.7-7.21,1.97-14.31,1.52-21.45-.47-.05-.83-.1-1.37-.1-1.91,0-3.35-.02-6.71.03-10.06.09-6.07.33-12.14.32-18.21-.02-13.58-.16-27.16-.23-40.74-.01-2.95.08-5.91.14-8.86.05-2.24.13-4.47.2-6.71.13-4.15.29-8.3.4-12.45.05-1.75,0-3.49,0-5.74Z"/>
      <path class="cls-2" d="m337.44,608.85c1.41.08,2.67.23,3.92.2,5.43-.13,10.86-.46,16.29-.43,5.18.04,10.35.44,15.7.69,1.03,6.45,2.39,12.62.36,18.91-.7,2.18-1.25,2.53-3.48,2.17-1.25-.2-2.53-.44-3.79-.42-7.91.15-15.82.47-23.73.55-9.03.1-18.06.02-26.72.02-1.86-1.82-1.88-3.66-1.79-5.57.2-4.31.43-8.62.47-12.94.03-3.03-.25-6.06-.36-9.09-.06-1.75-.04-3.51-.08-5.26-.08-3.43-.19-6.86-.28-10.29-.05-1.99-.15-3.99-.11-5.98.05-2.39.33-4.78.33-7.17.02-14.87-.04-29.73-.02-44.6,0-7.91.1-15.82.16-23.73.02-2.11.39-2.72,2.51-3.05,2.36-.37,4.76-.57,7.14-.6,3.11-.04,6.23.17,9.35.26,2.49.07,2.73.32,2.55,2.77-.02.32-.02.64-.02.96,0,9.67-.04,19.33,0,29,.02,4.55.28,9.1.3,13.65.03,5.19-.1,10.38-.13,15.57-.01,1.43.04,2.87.08,4.3.07,2.54.13,5.09.23,7.63.04,1.04.19,2.07.25,3.1.23,3.66.57,7.32.63,10.98.09,5.51-.03,11.03-.05,16.54,0,.47.12.94.23,1.81Z"/>
      <path class="cls-2" d="m411.45,328.31c0,21.65,0,43.31,0,64.96,0,1.2.02,2.41-.14,3.59-.35,2.57-2.39,4.32-4.93,4.35-2.43.03-4.46-1.57-4.99-4-.17-.77-.2-1.58-.2-2.38,0-44.51,0-89.01,0-133.52,0-.87.04-1.77.25-2.61.57-2.28,2.64-3.83,4.93-3.79,2.41.04,4.49,1.74,4.89,4.14.19,1.17.18,2.39.18,3.58,0,21.89,0,43.79,0,65.68Z"/>
      <path class="cls-2" d="m452.94,328.06c0-21.97,0-43.95,0-65.92,0-.8-.04-1.6.03-2.4.28-2.87,2.57-4.94,5.29-4.83,2.68.11,4.68,2.14,4.86,4.98.05.72.03,1.44.03,2.16,0,44.03,0,88.06,0,132.09,0,.88.03,1.76-.07,2.63-.28,2.44-2.19,4.25-4.61,4.44-2.42.19-4.63-1.29-5.24-3.66-.26-.99-.27-2.05-.27-3.08-.01-22.13-.01-44.27-.01-66.4Z"/>
      <path class="cls-2" d="m504.09,327.64c0-10.86,0-21.72,0-32.58,0-.8-.03-1.6.05-2.39.24-2.27,1.93-4.02,4.13-4.34,2.51-.37,4.78.83,5.58,3.11.31.88.43,1.87.43,2.81.02,22.28.02,44.56,0,66.84,0,.94-.13,1.93-.45,2.81-.77,2.15-3.13,3.49-5.35,3.17-2.31-.33-4.1-2.13-4.34-4.46-.08-.79-.05-1.6-.05-2.39,0-10.86,0-21.72,0-32.58Z"/>
      <path class="cls-2" d="m267.12,444.67h-35.71c-.07-.66-.2-1.26-.2-1.87-.01-13.59-.11-27.18.04-40.77.06-5.61,1.73-10.9,4.94-15.55,3.18-4.61,7.49-7.38,13.28-7.29,4.61.07,8.29,2.15,11.26,5.55,3.37,3.85,4.98,8.52,5.88,13.45.34,1.87.49,3.81.49,5.71.04,12.63.02,25.26.02,37.9v2.87Z"/>
      <path class="cls-2" d="m180.92,444.64h-24.02c-.05-.89-.13-1.66-.13-2.44,0-8.55,0-17.1,0-25.66,0-3.34.79-6.5,2.32-9.45.65-1.26,1.49-2.48,2.47-3.51,4.12-4.3,10.3-4.33,14.54-.14,2.67,2.64,3.87,6.01,4.59,9.58.25,1.25.37,2.54.38,3.81.03,8.47.02,16.94.01,25.42,0,.78-.09,1.56-.14,2.38Z"/>
      <path class="cls-2" d="m340.66,444.64h-23.96c-.05-.89-.12-1.67-.13-2.45,0-8.55,0-17.1,0-25.66,0-3.85.97-7.45,3-10.7,4.53-7.28,13.47-7.33,18.11-.13,2.09,3.24,3.1,6.87,3.15,10.67.11,8.79.04,17.58.03,26.37,0,.62-.13,1.24-.2,1.89Z"/>
      <path class="cls-2" d="m820.49,387.87c.02,6.37-4.95,11.41-11.31,11.48-6.44.07-11.64-5.03-11.65-11.42,0-6.36,5.28-11.62,11.59-11.56,6.29.07,11.35,5.19,11.36,11.5Zm-6.8.02c-.01-2.44-2.12-4.54-4.6-4.56-2.53-.03-4.58,1.96-4.62,4.48-.05,2.59,2.12,4.79,4.66,4.73,2.42-.05,4.58-2.25,4.57-4.65Z"/>
      <path class="cls-2" d="m255.93,286.48c-4.29,0-8.44,0-12.59,0-.38,0-.77-.08-1.05-.11-.14-.17-.24-.24-.24-.3-.02-5.74-.2-11.5.03-17.23.08-1.89.92-3.93,1.95-5.56,2.5-3.97,7.46-3.94,10.18-.1,1.23,1.73,1.93,3.71,1.95,5.83.06,5.51.02,11.03,0,16.54,0,.22-.11.45-.24.94Z"/>
      <path class="cls-2" d="m720.09,449.76c.05-2.84,2.28-4.96,5.12-4.87,2.66.08,4.87,2.34,4.87,4.97,0,2.74-2.33,5.03-5.09,5.01-2.8-.02-4.96-2.28-4.9-5.12Z"/>
      <path class="cls-2" d="m229.45,697.73c-.16-2.09-.56-3.73.29-5.32.34-.64.65-1.26,1.59-1.13,2.91.39,5.84.66,8.74,1.12,1.94.31,2.65,1.33,2.52,3.11-.12,1.58-1.34,2.93-2.97,2.87-3.33-.12-6.65-.42-10.16-.66Z"/>
      <path class="cls-2" d="m237.49,683.69c-1.82-.15-3.65-.3-5.47-.45-.23-.02-.52-.03-.69-.16-1.44-1.11-.8-2.6-.67-3.98.11-1.14.8-1.72,1.95-1.63,2.2.17,4.41.33,6.6.62,2.27.3,3.21,2.17,2.25,4.23-.41.89-1.03,1.38-2.05,1.33-.64-.04-1.28,0-1.92,0,0,.02,0,.04,0,.07Z"/>
      <path class="cls-2" d="m356.04,694.31c-.24-.91-.63-1.73-.65-2.55-.04-1.74.08-3.49.21-5.24.14-1.79.61-2.35,2.38-2.2,2.51.21,5.06-.39,7.55.42,2.58.84,3.76,2.64,3.45,5.46-.26,2.34-1.96,3.99-4.47,4.09-2.77.1-5.54.02-8.47.02Z"/>
      <path class="cls-2" d="m657.55,693.82c-2.29,1.58-4.56.7-7,.91.25-3.52,1.43-6.36,2.85-9.72,1.8,3.05,2.74,5.87,4.14,8.82Z"/>
    </g>
    <line class="cls-1" x1="406.19" y1="259.73" x2="406.19" y2="395.91"/>
    <line class="cls-1" x1="457.97" y1="259.73" x2="457.97" y2="395.91"/>
    <line class="cls-1" x1="509.05" y1="293.02" x2="509.05" y2="361.77"/>
  </g>
</svg>