<?xml version="1.0" encoding="UTF-8"?> <svg xmlns="http://www.w3.org/2000/svg" viewBox="0 0 352.24 147.88"><defs><style>.cls-1{fill:#4a4644;}.cls-2{fill:#878787;}</style></defs><g id="Layer_2" data-name="Layer 2"><g id="Layer_1-2" data-name="Layer 1"><path class="cls-1" d="M116.4,144.42l-2.31-8.52-2.31,8.52H111l-2.45-9.78h.78l2.07,8.5,2.27-8.5h.77l2.28,8.5,2.06-8.5h.79l-2.45,9.78Z"></path><path class="cls-1" d="M121.39,134.64h.74v9.78h-.74Z"></path><path class="cls-1" d="M125.9,135.91v8.51h-.74v-9.78h.74l5.65,8.47v-8.47h.74v9.78h-.74Z"></path><path class="cls-1" d="M141.05,143.52a3.3,3.3,0,0,1-2.45.9h-3.28v-9.78h3.28a3.33,3.33,0,0,1,2.45.89c1,1,.95,2.54.95,3.86S142,142.54,141.05,143.52Zm-.53-7.47a2.74,2.74,0,0,0-2.1-.75h-2.36v8.46h2.36a2.74,2.74,0,0,0,2.1-.76c.77-.81.73-2.51.73-3.61S141.29,136.86,140.52,136.05Z"></path><path class="cls-1" d="M150.05,143.5a3.49,3.49,0,0,1-4.89,0c-.89-.9-.91-1.78-.91-4s0-3.08.91-4a3.46,3.46,0,0,1,4.89,0c.89.89.91,1.75.91,4S150.94,142.6,150.05,143.5Zm-.59-7.53a2.64,2.64,0,0,0-3.71,0c-.7.7-.75,1.47-.75,3.56s.05,2.85.75,3.55a2.64,2.64,0,0,0,3.71,0c.7-.7.76-1.47.76-3.55S150.16,136.67,149.46,136Z"></path><path class="cls-1" d="M160.05,144.42l-2.31-8.52-2.31,8.52h-.76l-2.44-9.78H153l2.06,8.5,2.28-8.5h.77l2.28,8.5,2.06-8.5h.79l-2.45,9.78Z"></path><path class="cls-1" d="M167.49,144.5a4.15,4.15,0,0,1-3.26-1.29l.52-.52a3.44,3.44,0,0,0,2.78,1.15c1.55,0,2.51-.74,2.51-2a1.66,1.66,0,0,0-.54-1.37,2.34,2.34,0,0,0-1.41-.52l-1.14-.18a3.38,3.38,0,0,1-1.75-.72,2.26,2.26,0,0,1-.77-1.8c0-1.65,1.16-2.68,3-2.68a3.87,3.87,0,0,1,2.82,1.06l-.48.48a3.12,3.12,0,0,0-2.38-.9c-1.43,0-2.27.76-2.27,2a1.58,1.58,0,0,0,.51,1.28,3.29,3.29,0,0,0,1.46.61l1.06.16a3,3,0,0,1,1.74.65,2.41,2.41,0,0,1,.85,1.89C170.78,143.46,169.53,144.5,167.49,144.5Z"></path><path class="cls-1" d="M172.9,143.48h.94v1.87l-.94.94Z"></path><path class="cls-1" d="M185.89,143.52a3.3,3.3,0,0,1-2.45.9h-3.28v-9.78h3.28a3.33,3.33,0,0,1,2.45.89c1,1,1,2.54,1,3.86S186.88,142.54,185.89,143.52Zm-.52-7.47a2.76,2.76,0,0,0-2.1-.75H180.9v8.46h2.37a2.77,2.77,0,0,0,2.1-.76c.76-.81.73-2.51.73-3.61S186.13,136.86,185.37,136.05Z"></path><path class="cls-1" d="M194.89,143.5a3.43,3.43,0,0,1-2.44,1,3.47,3.47,0,0,1-2.45-1c-.89-.9-.9-1.78-.9-4s0-3.08.9-4a3.44,3.44,0,0,1,2.45-1,3.4,3.4,0,0,1,2.44,1c.9.89.91,1.75.91,4S195.79,142.6,194.89,143.5ZM194.3,136a2.63,2.63,0,0,0-3.7,0c-.71.7-.76,1.47-.76,3.56s0,2.85.76,3.55a2.63,2.63,0,0,0,3.7,0c.7-.7.76-1.47.76-3.55S195,136.67,194.3,136Z"></path><path class="cls-1" d="M203.86,143.5a3.5,3.5,0,0,1-4.9,0c-.89-.9-.9-1.78-.9-4s0-3.08.9-4a3.48,3.48,0,0,1,4.9,0c.89.89.9,1.75.9,4S204.75,142.6,203.86,143.5Zm-.59-7.53a2.6,2.6,0,0,0-1.86-.76,2.56,2.56,0,0,0-1.85.76c-.7.7-.76,1.47-.76,3.56s.06,2.85.76,3.55a2.56,2.56,0,0,0,1.85.76,2.6,2.6,0,0,0,1.86-.76c.7-.7.75-1.47.75-3.55S204,136.67,203.27,136Z"></path><path class="cls-1" d="M210.84,139.91h-2.69v4.51h-.74v-9.78h3.72a2.65,2.65,0,0,1,.55,5.26l2.36,4.52h-.86Zm.19-4.61h-2.88v3.95H211c1.27,0,2.16-.62,2.16-2S212.3,135.3,211,135.3Z"></path><path class="cls-1" d="M218.89,144.5a4.15,4.15,0,0,1-3.26-1.29l.52-.52a3.44,3.44,0,0,0,2.78,1.15c1.55,0,2.51-.74,2.51-2a1.66,1.66,0,0,0-.54-1.37,2.34,2.34,0,0,0-1.41-.52l-1.14-.18a3.31,3.31,0,0,1-1.74-.72,2.23,2.23,0,0,1-.77-1.8c0-1.65,1.15-2.68,3-2.68a3.87,3.87,0,0,1,2.82,1.06l-.48.48a3.12,3.12,0,0,0-2.38-.9c-1.43,0-2.27.76-2.27,2a1.58,1.58,0,0,0,.51,1.28,3.34,3.34,0,0,0,1.46.61l1.05.16a3,3,0,0,1,1.75.65,2.41,2.41,0,0,1,.85,1.89C222.18,143.46,220.93,144.5,218.89,144.5Z"></path><path class="cls-1" d="M233.7,143.26a4.27,4.27,0,0,1-3,1.24,2.78,2.78,0,0,1-3-2.79c0-1.55,1.1-2.25,2.24-3a3.62,3.62,0,0,1-1.09-2.17,2,2,0,0,1,4,0,2.13,2.13,0,0,1-1.12,1.76l-.73.49,2.8,3.39a3.74,3.74,0,0,0,.58-2.43h.73a4.55,4.55,0,0,1-.85,3l1.4,1.71h-.95Zm-5.3-1.59a2.12,2.12,0,0,0,2.28,2.17,3.72,3.72,0,0,0,2.61-1.09l-3-3.58C229.4,139.8,228.4,140.4,228.4,141.67Zm2.4-6.46a1.23,1.23,0,0,0-1.25,1.27c0,.49.2.89,1,1.8l.22-.15a2.26,2.26,0,0,0,.35-.24c.51-.34,1-.73,1-1.37A1.26,1.26,0,0,0,230.8,135.21Z"></path><path class="cls-1" d="M244.74,144.5a3.47,3.47,0,0,1-2.45-1c-.89-.9-.9-1.78-.9-4s0-3.08.9-4a3.44,3.44,0,0,1,2.45-1,3.26,3.26,0,0,1,3.33,2.86h-.76a2.61,2.61,0,0,0-4.42-1.44c-.7.7-.76,1.47-.76,3.56s.06,2.85.76,3.55a2.56,2.56,0,0,0,1.85.76,2.59,2.59,0,0,0,2.6-2.2h.73A3.28,3.28,0,0,1,244.74,144.5Z"></path><path class="cls-1" d="M256.05,143.5a3.5,3.5,0,0,1-4.9,0c-.89-.9-.9-1.78-.9-4s0-3.08.9-4a3.48,3.48,0,0,1,4.9,0c.89.89.9,1.75.9,4S256.94,142.6,256.05,143.5Zm-.6-7.53a2.56,2.56,0,0,0-1.85-.76,2.6,2.6,0,0,0-1.86.76c-.7.7-.75,1.47-.75,3.56s0,2.85.75,3.55a2.6,2.6,0,0,0,1.86.76,2.56,2.56,0,0,0,1.85-.76c.7-.7.76-1.47.76-3.55S256.15,136.67,255.45,136Z"></path><path class="cls-1" d="M260.34,135.91v8.51h-.75v-9.78h.75l5.64,8.47v-8.47h.75v9.78H266Z"></path><path class="cls-1" d="M272.2,144.5a4.17,4.17,0,0,1-3.26-1.29l.53-.52a3.41,3.41,0,0,0,2.77,1.15c1.55,0,2.51-.74,2.51-2a1.69,1.69,0,0,0-.53-1.37,2.37,2.37,0,0,0-1.42-.52l-1.14-.18a3.31,3.31,0,0,1-1.74-.72,2.23,2.23,0,0,1-.77-1.8c0-1.65,1.15-2.68,3-2.68a3.85,3.85,0,0,1,2.82,1.06l-.48.48a3.12,3.12,0,0,0-2.38-.9c-1.42,0-2.27.76-2.27,2a1.56,1.56,0,0,0,.52,1.28,3.25,3.25,0,0,0,1.45.61l1.06.16a3,3,0,0,1,1.75.65,2.41,2.41,0,0,1,.84,1.89C275.49,143.46,274.24,144.5,272.2,144.5Z"></path><path class="cls-1" d="M277.82,134.64h5.94v.66h-5.2v3.85H283v.67h-4.43v3.94h5.2v.66h-5.94Z"></path><path class="cls-1" d="M289.48,139.91h-2.69v4.51h-.74v-9.78h3.72a2.65,2.65,0,0,1,.54,5.26l2.37,4.52h-.87Zm.18-4.61h-2.87v3.95h2.87c1.27,0,2.16-.62,2.16-2S290.93,135.3,289.66,135.3Z"></path><path class="cls-1" d="M296.91,144.42l-3.21-9.78h.78l2.75,8.47,2.75-8.47h.78l-3.21,9.78Z"></path><path class="cls-1" d="M306.84,142h-4.56l-.85,2.38h-.8l3.6-9.78h.66l3.6,9.78h-.8Zm-4.33-.66h4.1l-2.05-5.75Z"></path><path class="cls-1" d="M311.94,144.42h-.74V135.3h-2.91v-.66h6.57v.66h-2.92Z"></path><path class="cls-1" d="M321.93,143.5a3.48,3.48,0,0,1-4.88,0c-.9-.9-.91-1.78-.91-4s0-3.08.91-4a3.45,3.45,0,0,1,4.88,0c.9.89.91,1.75.91,4S322.83,142.6,321.93,143.5Zm-.59-7.53a2.56,2.56,0,0,0-1.85-.76,2.6,2.6,0,0,0-1.86.76c-.7.7-.75,1.47-.75,3.56s.05,2.85.75,3.55a2.6,2.6,0,0,0,1.86.76,2.56,2.56,0,0,0,1.85-.76c.71-.7.76-1.47.76-3.55S322.05,136.67,321.34,136Z"></path><path class="cls-1" d="M328.92,139.91h-2.7v4.51h-.73v-9.78h3.72a2.65,2.65,0,0,1,.55,5.26l2.36,4.52h-.87Zm.19-4.61h-2.89v3.95h2.89a1.88,1.88,0,0,0,2.15-2C331.26,135.91,330.37,135.3,329.11,135.3Z"></path><path class="cls-1" d="M334.52,134.64h.74v9.78h-.74Z"></path><path class="cls-1" d="M338.28,134.64h5.94v.66H339v3.85h4.43v.67H339v3.94h5.2v.66h-5.94Z"></path><path class="cls-1" d="M349,144.5a4.15,4.15,0,0,1-3.26-1.29l.53-.52a3.41,3.41,0,0,0,2.77,1.15c1.55,0,2.51-.74,2.51-2a1.69,1.69,0,0,0-.53-1.37,2.37,2.37,0,0,0-1.42-.52l-1.13-.18a3.31,3.31,0,0,1-1.75-.72,2.23,2.23,0,0,1-.77-1.8c0-1.65,1.15-2.68,3-2.68a3.85,3.85,0,0,1,2.82,1.06l-.48.48a3.1,3.1,0,0,0-2.37-.9c-1.43,0-2.27.76-2.27,2a1.57,1.57,0,0,0,.5,1.28,3.34,3.34,0,0,0,1.47.61l1,.16a3,3,0,0,1,1.74.65,2.38,2.38,0,0,1,.85,1.89C352.24,143.46,351,144.5,349,144.5Z"></path><path class="cls-1" d="M124.69,125a19,19,0,0,1-14-5.69,15,15,0,0,1-4.23-7.8,71.09,71.09,0,0,1-.87-12.9,71.29,71.29,0,0,1,.87-12.91,14.69,14.69,0,0,1,4.23-7.79,19,19,0,0,1,14-5.69c10,0,17.35,5.83,19.1,16.4H133.51c-1.1-4.44-3.86-7.36-8.75-7.36A8,8,0,0,0,118.27,84c-2.11,2.27-2.55,4.6-2.55,14.66s.44,12.39,2.55,14.65a8,8,0,0,0,6.49,2.7c4.89,0,7.65-2.92,8.75-7.36h10.28C142,119.18,134.6,125,124.69,125Z"></path><path class="cls-1" d="M180.25,124.57V102.85H162.68v21.72H152.55V72.67h10.13V93.88h17.57V72.67h10.13v51.9Z"></path><path class="cls-1" d="M233.91,119.32a20.14,20.14,0,0,1-28.06,0c-5.25-5.25-5.11-11.73-5.11-20.7s-.14-15.46,5.11-20.7a20.14,20.14,0,0,1,28.06,0c5.25,5.24,5.18,11.73,5.18,20.7S239.16,114.07,233.91,119.32ZM226.4,84a8.4,8.4,0,0,0-6.48-2.77A8.58,8.58,0,0,0,213.35,84c-2,2.19-2.48,4.59-2.48,14.58s.52,12.39,2.48,14.58a8.58,8.58,0,0,0,6.57,2.77,8.4,8.4,0,0,0,6.48-2.77c2-2.19,2.55-4.59,2.55-14.58S228.37,86.23,226.4,84Z"></path><path class="cls-1" d="M249.45,124.57V72.67h10.13v51.9Z"></path><path class="cls-1" d="M289,125a19,19,0,0,1-14-5.69,15.05,15.05,0,0,1-4.23-7.8,70.9,70.9,0,0,1-.88-12.9,71.1,71.1,0,0,1,.88-12.91A14.76,14.76,0,0,1,275,77.92a19,19,0,0,1,14-5.69c10,0,17.35,5.83,19.1,16.4H297.86c-1.1-4.44-3.86-7.36-8.75-7.36A8,8,0,0,0,282.62,84c-2.11,2.27-2.55,4.6-2.55,14.66s.44,12.39,2.55,14.65a8,8,0,0,0,6.49,2.7c4.89,0,7.65-2.92,8.75-7.36h10.28C306.39,119.18,299,125,289,125Z"></path><path class="cls-1" d="M316.89,124.57V72.67h34.19v9H327V93.88h20.48v9H327v12.61h24.05v9Z"></path><path class="cls-2" d="M350.79,60.1H107.89V57A50.87,50.87,0,0,0,6.15,57H0A57,57,0,0,1,114,54H350.79Z"></path><path class="cls-2" d="M40.49,57a16.53,16.53,0,1,1,33.06,0V68.67H92V57a35,35,0,0,0-69.9,0V68.67H40.49Z"></path><rect class="cls-2" x="43.94" y="72.13" width="26.16" height="35.38"></rect><path class="cls-2" d="M57,44A13.09,13.09,0,0,0,43.94,57V68.67H70.1V57A13.09,13.09,0,0,0,57,44Z"></path><rect class="cls-2" x="22.07" y="72.13" width="18.42" height="35.38"></rect><rect class="cls-2" x="22.07" y="110.96" width="18.42" height="36.92"></rect><rect class="cls-2" x="73.55" y="72.13" width="18.42" height="35.38"></rect><rect class="cls-2" x="43.94" y="110.96" width="26.16" height="36.92"></rect><rect class="cls-2" x="73.55" y="110.96" width="18.42" height="36.92"></rect></g></g></svg> 