<?xml version="1.0" encoding="UTF-8"?>
<svg xmlns="http://www.w3.org/2000/svg" width="298.713" height="83.724" viewBox="0 0 298.713 83.724">
  <g id="Oakham-logo" transform="translate(149.357 41.862)">
    <g id="Group_1270" data-name="Group 1270" transform="translate(-149.357 -41.862)">
      <path id="Path_2330" data-name="Path 2330" d="M46.475,47.629a1.023,1.023,0,1,1,1.006-1.023,1.014,1.014,0,0,1-1.006,1.023m0-3.813a2.791,2.791,0,1,0,2.742,2.79,2.765,2.765,0,0,0-2.742-2.79m0-12.331a1.024,1.024,0,1,1,1.006-1.023,1.014,1.014,0,0,1-1.006,1.023m0-3.813a2.791,2.791,0,1,0,2.742,2.79,2.765,2.765,0,0,0-2.742-2.79m0-12.331a1.023,1.023,0,1,1,1.006-1.023,1.014,1.014,0,0,1-1.006,1.023m0-3.813a2.791,2.791,0,1,0,2.742,2.79,2.765,2.765,0,0,0-2.742-2.79M51.407,14.4V46.62a25.427,25.427,0,0,0,0-32.221M31.285,57.781A27.273,27.273,0,1,1,58.814,30.509,27.4,27.4,0,0,1,31.285,57.781M51.407,7.092V1.663H41.541v0A32.211,32.211,0,0,0,31.285,0C14.005,0,0,13.547,0,30.256S14.005,60.514,31.285,60.514a32.181,32.181,0,0,0,10.256-1.665h9.866V53.422a29.622,29.622,0,0,0,0-46.331M10.131,30.515A21.2,21.2,0,0,1,31.285,9.264,20.985,20.985,0,0,1,41.9,12.137V7.573A25.166,25.166,0,0,0,6.1,30.515a25.241,25.241,0,0,0,25.184,25.3A24.983,24.983,0,0,0,41.9,53.453V48.89a20.965,20.965,0,0,1-10.618,2.875,21.2,21.2,0,0,1-21.154-21.25m26.9,13.546a14.712,14.712,0,1,1-5.758-28.272,14.567,14.567,0,0,1,5.758,1.18Zm-24.8-13.545a19.082,19.082,0,0,0,19.04,19.125A18.883,18.883,0,0,0,41.9,46.383l.012-31.727A18.89,18.89,0,0,0,31.271,11.39a19.081,19.081,0,0,0-19.04,19.125M117.1,25.469c-3.975-3.739-6.315-5.331-11.76-5.022s-10.81,2.681-13.479,7.693-4.394,10.808.15,13.322,9.721,4.292,13.956,3.917,10.975-1.093,13.8-3.289c2.355-1.837,4.9-3,4.314-5.1s-.713-5.617-6.978-11.521M104.09,16.531c6.739-.161,13.321,3.916,18.025,7.215a27.108,27.108,0,0,1,4.84,5.9c1.036,1.936,3.154,5.531,2.844,8.931-.266,2.975-3.29,6.329-5.644,7.893s-8.622,4.549-17.4,4.549-26.94-5.487-26.94-17.086S97.342,16.688,104.09,16.531m56.883,14.582a33.4,33.4,0,0,0-1.858-5.41L145.762,26.72c-2.706.391-9.692,1.939-8.12,5.436,1.057,2.361,7.523,2.8,9.216,2.875,2.8.122,10.9-1.678,14.382-2.49Zm-24-5.179a64.194,64.194,0,0,1,11.455-2.507l9.292-.618a11.262,11.262,0,0,0-3.176-4.082c-2.355-1.384-8.008-1.924-12.415-1.569-4.811.386-8.693,1.849-8.751-.268-.057-1.859,5.645-3.026,11.969-3.026S158.3,16.89,161.125,19.3s5.018,9.144,5.9,13.062a70.79,70.79,0,0,0,3.507,11.761c1.255,2.665,1.318,2.821-.625,3.131s-4.085-.152-6.272-3.131c-1.47-2-1.751-5.324-2.053-8.528a49.756,49.756,0,0,1-14.634,2.57c-1.706.066-1.13.491-4.66-.1s-3.2-.149-5.7-1.079-4.962-3.284-5.408-6.036c-.159-1-.237-1.352,1.282-2.669a12.2,12.2,0,0,1,4.509-2.349m34.1,1.888a91.611,91.611,0,0,0,2.355,15.21c.778,2.973,1.1,3.443,3.766,3.29s2.456.432,2.03-2.924l-.771-6.106,4.538,1.506A37.011,37.011,0,0,0,191,39.806s3.075-.1,1.108-1.485-7.237-2.822-7.237-2.822c-2.512-.924-6.245-4.516-7.353-5.626l-.014-.128-.023-.109a58.5,58.5,0,0,0,5.662-4.953,18.389,18.389,0,0,0,4.926-4.818c2.692-4.14,4.6-6.69,3.447-9.262-1.02-2.268-4.355,1.745-4.355,1.745a80.883,80.883,0,0,1-5.269,6.846,71.13,71.13,0,0,1-5.137,5.028,41.159,41.159,0,0,0-.82-5.186c-.628-2.5-.232-4.392-1.953-4.392s-1.815-.723-2.285,1.447a60.093,60.093,0,0,0-.624,11.731m22.792-18.5,2.146,18.105c1.094,7.626,1.561,10.5,2.1,12.424s.743,2.128,1.16,2.547c1.571,1.569,3.919-.309,3.919-.309s-.786-5.806-.159-7.993,3.141-5.807,5.646-6.591,3.925.015,5.8,3.139,2.2,6.266,3.293,9.248.7,4.075,3.4,3.917,5.213-1.411,3.336-2.189c-1.161-.484-1.428-.311-1.462-.094l.048.266a.548.548,0,0,1-.048-.266,59.281,59.281,0,0,0-1.874-7.763c-1.059-2.966-3.414-9.392-8.037-10.175s-6.742-.627-8.028.627l-2.414,2.5-1.709-9.245c-.466-3.292-.466-10.35-2.036-10.35s-5.321,0-5.091,2.2m65.87,34.337s2.984.779,4.244.15-.8-6.265-1.6-10.658a31.648,31.648,0,0,1,0-9.563c.121-1.88.805-.944,2.851.532s3.3,4.327,4.71,7.15,4.383,8.78,6.266,8.464,2.664-6.778,3.845-10.5,1.171-4.306,3.677-5.645,3.3,1.339,4.359,3.743.352,8.324.8,12.252,2.685,5.8,5.042,6.422,3.8-1.094,4.6-2.507-1.152-1.1-1.152-1.1a2.158,2.158,0,0,1-2.195,1.1c-1.412-.315-.477-6.113-.477-9.253s-2.187-8.936-3.407-11.443a7.755,7.755,0,0,0-7.091-3.765c-2.277.316-4.553,3.3-6.115,5.8A38.4,38.4,0,0,0,275.1,31.9l-3.45-6.429c-1.253-2.2-4.542-6.165-7.676-6.275s-3.613,0-6.424,1.714-1.872,5.322-1.245,11.912a24.641,24.641,0,0,0,1.187,5.768Zm-14.227-7.684c-.268-2.1-.2-5.322-.715-8.174a30.922,30.922,0,0,0-5.711.489,10.287,10.287,0,0,0-7.057,5.172c-1.253,2.355,1.252,3.924,3.609,4.551,2.253.6,6.682.044,10.088-.69Zm7.451,2.614-2.443.243a2.032,2.032,0,0,0,.479.751,5.98,5.98,0,0,0,1.725,1.253s-1.749,3.06-3.693,1.764a6.578,6.578,0,0,1-2.619-2.954,35.131,35.131,0,0,1-9.841,1.5c-7.206.157-10.037-3.919-10.189-6.9s2.824-5.8,7.216-7.836c3.364-1.563,8.389-1.282,10.551-1.065a5.552,5.552,0,0,0-2.556-3.17c-4.079-2.073-5.8-2.5-10.351-.944s-7.771,3.452-9.527,2.983-3.1-1.253,0-2.824S229.359,17,236.727,17s9.878,2.824,11.132,6.9,1.276,7.688,1.965,10.665l.345,1.892,2.131-.31s2.14-.137,2.263.831-1.606,1.612-1.606,1.612"></path>
      <g id="tagline" transform="translate(0.871 71.359)">
        <path id="Path_2331" data-name="Path 2331" d="M5.673,79.794c-2.972,0-4.85-1.452-4.85-4.134v-4.1c0-2.681,1.878-4.133,4.85-4.133,2.9,0,4.56,1.247,4.56,3.757v.547a.453.453,0,0,1-.478.494H7.979a.435.435,0,0,1-.461-.477v-.58c0-1.214-.461-1.76-1.845-1.76a1.681,1.681,0,0,0-1.912,1.9v4.612a1.681,1.681,0,0,0,1.912,1.9c1.383,0,1.845-.546,1.845-1.759v-.718a.435.435,0,0,1,.461-.478H9.755a.453.453,0,0,1,.478.5v.684c0,2.51-1.656,3.757-4.56,3.757" transform="translate(-0.823 -67.429)" fill="#41b8d4"></path>
        <path id="Path_2332" data-name="Path 2332" d="M24.966,79.066l-2.545-3.928a1.477,1.477,0,0,1-.29-.871v-.239a.521.521,0,0,1,.58-.6h.461c.957,0,1.469-.393,1.469-1.214V70.645c0-.82-.512-1.195-1.486-1.195H21.379v8.231h.786a.4.4,0,0,1,.443.411v1.058a.417.417,0,0,1-.443.428H17.724a.432.432,0,0,1-.461-.428V78.093a.419.419,0,0,1,.461-.411h.785V69.518h-.785a.419.419,0,0,1-.461-.411V68.049a.431.431,0,0,1,.461-.426h5.618c2.749,0,4.184,1.007,4.184,3.006v1.332a2.521,2.521,0,0,1-2.2,2.682l2.067,3.006a1.305,1.305,0,0,1-.462,1.912,1.445,1.445,0,0,1-1.963-.494" transform="translate(0.135 -67.418)" fill="#41b8d4"></path>
        <path id="Path_2333" data-name="Path 2333" d="M37.707,79.58H34.324a.408.408,0,0,1-.443-.428V78.095a.4.4,0,0,1,.443-.411H34.8l2.7-9.189c.188-.632.512-.9,1.058-.9H40.7c.547,0,.871.273,1.059.9l2.682,9.189h.477a.4.4,0,0,1,.444.411v1.058a.409.409,0,0,1-.444.428h-4.2a.409.409,0,0,1-.444-.428V78.128a.4.4,0,0,1,.444-.41H41.5l-.477-1.743H37.4l-.478,1.743h.786a.4.4,0,0,1,.443.41v1.024a.408.408,0,0,1-.443.428m2.835-5.4-1.332-4.868L37.9,74.183Z" transform="translate(1.104 -67.42)" fill="#41b8d4"></path>
        <path id="Path_2334" data-name="Path 2334" d="M51.742,79.151V78.093a.418.418,0,0,1,.461-.411h.785V69.518H52.2a.419.419,0,0,1-.461-.411V68.049a.431.431,0,0,1,.461-.426h8.078a.686.686,0,0,1,.768.768v2.493a.62.62,0,0,1-.649.684h-.9a.62.62,0,0,1-.649-.684V69.433h-2.99v3.246h2.186a.858.858,0,0,1,.923.871v.239a.858.858,0,0,1-.923.871H55.858v3.022h.906a.418.418,0,0,1,.46.411v1.058a.431.431,0,0,1-.46.428H52.2a.432.432,0,0,1-.461-.428" transform="translate(2.145 -67.418)" fill="#41b8d4"></path>
        <path id="Path_2335" data-name="Path 2335" d="M75.16,79.577H70.617a.417.417,0,0,1-.443-.428V78.092a.4.4,0,0,1,.443-.411h.837V69.4H69.831v1.963a.614.614,0,0,1-.648.667h-.82a.606.606,0,0,1-.65-.667V68.39a.686.686,0,0,1,.768-.768h8.813a.7.7,0,0,1,.786.768v2.972a.619.619,0,0,1-.667.667h-.8a.606.606,0,0,1-.65-.667V69.4H74.323v8.282h.837a.411.411,0,0,1,.461.411V79.15a.423.423,0,0,1-.461.428" transform="translate(3.076 -67.418)" fill="#41b8d4"></path>
        <path id="Path_2336" data-name="Path 2336" d="M97.855,79.578H92.149a.431.431,0,0,1-.46-.428V78.093a.418.418,0,0,1,.46-.411h.786V69.518h-.786a.418.418,0,0,1-.46-.411V68.049a.43.43,0,0,1,.46-.426h5.568c2.767,0,4.134.991,4.134,2.972v.512c0,1.281-.734,2.033-2.118,2.356,1.5.326,2.3,1.145,2.3,2.529v.58c0,1.981-1.383,3.007-4.183,3.007m-2.05-6.9h1.708c1.11,0,1.469-.428,1.469-1.23v-.82c0-.8-.359-1.229-1.469-1.229H95.8ZM97.649,77.8c1.127,0,1.5-.426,1.5-1.264v-.889c0-.819-.478-1.264-1.5-1.264H95.8V77.8Z" transform="translate(4.473 -67.418)" fill="#41b8d4"></path>
        <path id="Path_2337" data-name="Path 2337" d="M116.525,79.066l-2.545-3.928a1.477,1.477,0,0,1-.29-.871v-.239a.521.521,0,0,1,.581-.6h.461c.956,0,1.468-.393,1.468-1.214V70.645c0-.82-.512-1.195-1.486-1.195h-1.776v8.231h.785a.4.4,0,0,1,.444.411v1.058a.418.418,0,0,1-.444.428h-4.441a.431.431,0,0,1-.46-.428V78.093a.418.418,0,0,1,.46-.411h.786V69.518h-.786a.418.418,0,0,1-.46-.411V68.049a.43.43,0,0,1,.46-.426H114.9c2.749,0,4.184,1.007,4.184,3.006v1.332a2.522,2.522,0,0,1-2.2,2.682l2.067,3.006a1.3,1.3,0,0,1-.461,1.912,1.446,1.446,0,0,1-1.964-.494" transform="translate(5.472 -67.418)" fill="#41b8d4"></path>
        <path id="Path_2338" data-name="Path 2338" d="M134.686,79.577H126.4a.431.431,0,0,1-.46-.428V78.092a.418.418,0,0,1,.46-.411h.786V69.517H126.4a.418.418,0,0,1-.46-.411V68.048a.431.431,0,0,1,.46-.426h8.284a.686.686,0,0,1,.768.768V70.85a.612.612,0,0,1-.649.684h-.889a.624.624,0,0,1-.666-.684V69.433h-3.228v3.074h2.186a.856.856,0,0,1,.922.871v.255a.866.866,0,0,1-.922.871h-2.186v3.264h3.228V76.213a.624.624,0,0,1,.666-.684h.889a.611.611,0,0,1,.649.684v2.6a.686.686,0,0,1-.768.768" transform="translate(6.47 -67.418)" fill="#41b8d4"></path>
        <path id="Path_2339" data-name="Path 2339" d="M147.518,79.611h-1.93a.93.93,0,0,1-.991-.888l-1.52-9.206H142.6a.4.4,0,0,1-.444-.41V68.048a.408.408,0,0,1,.444-.426h4.031a.407.407,0,0,1,.443.426v1.025a.4.4,0,0,1-.443.41h-.751l1.178,7.942,1.691-7.84c.17-.785.529-1.144,1.213-1.144h.751c.7,0,1.024.359,1.195,1.144l1.691,7.891,1.2-7.993h-.768a.4.4,0,0,1-.444-.41V68.048a.417.417,0,0,1,.444-.426h3.314a.421.421,0,0,1,.46.426v1.059a.409.409,0,0,1-.46.41h-.478l-1.5,9.206a.945.945,0,0,1-1.007.888h-1.863c-.649,0-1.008-.256-1.178-1.041l-1.3-6.029-1.3,6.029c-.17.785-.529,1.041-1.195,1.041" transform="translate(7.415 -67.418)" fill="#41b8d4"></path>
        <path id="Path_2340" data-name="Path 2340" d="M171.35,79.577a.432.432,0,0,1-.461-.428V78.092a.419.419,0,0,1,.461-.411h.785V69.517h-.785a.419.419,0,0,1-.461-.411V68.048a.431.431,0,0,1,.461-.426h4.56a.431.431,0,0,1,.461.426v1.058a.419.419,0,0,1-.461.411h-.9v8.25h2.955V75.922a.614.614,0,0,1,.649-.666h.9a.606.606,0,0,1,.65.666v2.887a.686.686,0,0,1-.768.768Z" transform="translate(9.089 -67.418)" fill="#41b8d4"></path>
        <path id="Path_2341" data-name="Path 2341" d="M195.656,79.577h-8.284a.431.431,0,0,1-.46-.428V78.092a.418.418,0,0,1,.46-.411h.786V69.517h-.786a.418.418,0,0,1-.46-.411V68.048a.431.431,0,0,1,.46-.426h8.284a.686.686,0,0,1,.768.768V70.85a.612.612,0,0,1-.65.684h-.888a.624.624,0,0,1-.666-.684V69.433h-3.228v3.074h2.186a.856.856,0,0,1,.922.871v.255a.866.866,0,0,1-.922.871h-2.186v3.264h3.228V76.213a.624.624,0,0,1,.666-.684h.888a.612.612,0,0,1,.65.684v2.6a.686.686,0,0,1-.768.768" transform="translate(10.023 -67.418)" fill="#41b8d4"></path>
        <path id="Path_2342" data-name="Path 2342" d="M208.673,79.794c-3.04,0-4.919-1.434-4.919-4.1V71.562c0-2.681,1.9-4.133,4.9-4.133,2.905,0,4.56,1.264,4.56,3.587v.256a.413.413,0,0,1-.426.428h-1.9a.382.382,0,0,1-.393-.411v-.273c0-1.093-.478-1.622-1.863-1.622-1.332,0-1.964.632-1.964,1.9v4.629c0,1.264.65,1.913,2.016,1.913s1.9-.564,1.9-1.657v-.94h-1.417a.709.709,0,0,1-.785-.751v-.546a.714.714,0,0,1,.785-.769h3.279a.69.69,0,0,1,.786.785v2.221c0,2.323-1.708,3.62-4.56,3.62" transform="translate(11.005 -67.429)" fill="#41b8d4"></path>
        <path id="Path_2343" data-name="Path 2343" d="M229.1,79.577h-8.284a.432.432,0,0,1-.46-.428V78.092a.419.419,0,0,1,.46-.411h.786V69.517h-.786a.418.418,0,0,1-.46-.411V68.048a.431.431,0,0,1,.46-.426H229.1a.686.686,0,0,1,.768.768V70.85a.612.612,0,0,1-.649.684h-.889a.624.624,0,0,1-.666-.684V69.433h-3.228v3.074h2.186a.856.856,0,0,1,.922.871v.255a.866.866,0,0,1-.922.871h-2.186v3.264h3.228V76.213a.624.624,0,0,1,.666-.684h.889a.611.611,0,0,1,.649.684v2.6a.686.686,0,0,1-.768.768" transform="translate(11.973 -67.418)" fill="#41b8d4"></path>
        <path id="Path_2344" data-name="Path 2344" d="M246.321,79.611h-1.707a1.193,1.193,0,0,1-1.35-.94l-3.074-8.3v7.309h.786a.411.411,0,0,1,.461.411V79.15a.422.422,0,0,1-.461.428h-3.638a.431.431,0,0,1-.46-.428V78.092a.418.418,0,0,1,.46-.411h.786V69.517h-.786a.418.418,0,0,1-.46-.41V68.048a.431.431,0,0,1,.46-.426H241.2a1.126,1.126,0,0,1,1.264.9l2.92,8.319V69.517H244.6a.409.409,0,0,1-.46-.41V68.048a.421.421,0,0,1,.46-.426h3.638a.421.421,0,0,1,.46.426v1.059a.409.409,0,0,1-.46.41h-.786V78.5a.99.99,0,0,1-1.127,1.109" transform="translate(12.936 -67.418)" fill="#41b8d4"></path>
        <path id="Path_2345" data-name="Path 2345" d="M255.714,79.578a.432.432,0,0,1-.461-.428V78.093a.418.418,0,0,1,.461-.411h.786V69.518h-.786a.419.419,0,0,1-.461-.411V68.049a.431.431,0,0,1,.461-.426h4.851c3.227,0,5.243,1.434,5.243,4.27v3.415c0,2.835-2.016,4.27-5.243,4.27Zm4.833-1.862c1.538,0,2.34-.633,2.34-2.119v-4c0-1.486-.8-2.118-2.34-2.118H259.37v8.232Z" transform="translate(14.007 -67.418)" fill="#41b8d4"></path>
        <path id="Path_2346" data-name="Path 2346" d="M281.972,70.64v.41a.4.4,0,0,1-.428.444h-1.793a.381.381,0,0,1-.429-.428v-.393c0-.9-.477-1.314-1.793-1.314-1.3,0-1.81.393-1.81,1.314V71c0,.7.359.94,1.075,1.094l2.562.58c1.794.411,2.767,1.111,2.767,3.108v.394c0,2.2-1.452,3.62-4.681,3.62-3.3,0-4.507-1.178-4.507-3.228v-.443a.422.422,0,0,1,.425-.462h1.828a.4.4,0,0,1,.41.444v.428c0,.922.5,1.331,1.863,1.331s1.912-.41,1.912-1.331v-.325c0-.718-.359-.922-1.092-1.093l-2.562-.581c-1.795-.41-2.751-1.11-2.751-3.108v-.376c0-2.2,1.418-3.62,4.578-3.62,3.246,0,4.425,1.178,4.425,3.211" transform="translate(15.037 -67.429)" fill="#41b8d4"></path>
      </g>
    </g>
  </g>
</svg>
