<?xml version="1.0" encoding="UTF-8"?><svg width="310" height="120" id="a" xmlns="http://www.w3.org/2000/svg" viewBox="0 0 104.9 21.62"><path d="m2.77,6.62c.07.03.12.05.15.07l.16.07c.12.06.24.12.34.17.26.14.49.29.67.44.49.42.74.92.74,1.52,0,.65-.22,1.16-.66,1.53-.44.38-1.04.57-1.8.57-.56,0-1.08-.12-1.58-.37-.17-.09-.34-.19-.49-.3-.06-.04-.11-.08-.16-.13-.04-.03-.07-.06-.11-.1-.04-.03-.04-.07,0-.1l.6-.57s.06-.03.1,0c.02.02.05.04.08.07.04.03.07.06.12.08.11.07.22.14.34.2.34.16.71.24,1.1.24,1,0,1.5-.38,1.5-1.14,0-.29-.13-.55-.38-.77-.22-.19-.58-.4-1.11-.62h-.02l-.25-.13-.13-.06-.14-.06c-.11-.05-.22-.1-.31-.15-.24-.12-.44-.26-.6-.4-.44-.38-.66-.84-.66-1.38,0-.59.2-1.05.6-1.39s.94-.51,1.63-.51c.5,0,.97.11,1.41.33.16.08.3.17.44.27.05.04.1.07.15.11.04.03.07.06.1.09.04.03.04.07,0,.1l-.3.28-.3.29s-.06.03-.1,0c-.02-.02-.04-.04-.07-.06-.03-.02-.07-.05-.1-.07-.1-.06-.19-.12-.3-.16-.29-.14-.6-.21-.93-.21-.84,0-1.26.31-1.26.94,0,.25.11.46.32.65.18.16.5.33.96.53h.02l.24.13h-.01Z" style="fill:#554b44; stroke-width:0px;"/><path d="m2.77,6.62c.07.03.12.05.15.07l.16.07c.12.06.24.12.34.17.26.14.49.29.67.44.49.42.74.92.74,1.52,0,.65-.22,1.16-.66,1.53-.44.38-1.04.57-1.8.57-.56,0-1.08-.12-1.58-.37-.17-.09-.34-.19-.49-.3-.06-.04-.11-.08-.16-.13-.04-.03-.07-.06-.11-.1-.04-.03-.04-.07,0-.1l.6-.57s.06-.03.1,0c.02.02.05.04.08.07.04.03.07.06.12.08.11.07.22.14.34.2.34.16.71.24,1.1.24,1,0,1.5-.38,1.5-1.14,0-.29-.13-.55-.38-.77-.22-.19-.58-.4-1.11-.62h-.02l-.25-.13-.13-.06-.14-.06c-.11-.05-.22-.1-.31-.15-.24-.12-.44-.26-.6-.4-.44-.38-.66-.84-.66-1.38,0-.59.2-1.05.6-1.39s.94-.51,1.63-.51c.5,0,.97.11,1.41.33.16.08.3.17.44.27.05.04.1.07.15.11.04.03.07.06.1.09.04.03.04.07,0,.1l-.3.28-.3.29s-.06.03-.1,0c-.02-.02-.04-.04-.07-.06-.03-.02-.07-.05-.1-.07-.1-.06-.19-.12-.3-.16-.29-.14-.6-.21-.93-.21-.84,0-1.26.31-1.26.94,0,.25.11.46.32.65.18.16.5.33.96.53h.02l.24.13h-.01Z" style="fill:#554b44; stroke-width:0px;"/><path d="m12.85,3.42s.07.02.07.07v.83s-.02.07-.07.07h-1.98v6.55s-.02.07-.07.07h-.83s-.07-.02-.07-.07v-6.55h-1.99s-.07-.02-.07-.07v-.83s.02-.07.07-.07h4.94Z" style="fill:#554b44; stroke-width:0px;"/><path d="m19.27,3.4s.05.01.06.04l3.1,7.46v.06s-.03.03-.06.03h-.85s-.05-.01-.06-.04l-1.21-2.92h-2.68l-1.21,2.92s-.03.04-.06.04h-.85s-.04-.01-.06-.03-.02-.04,0-.06l3.1-7.46s.04-.04.06-.04h.74-.02Zm.59,3.71l-.95-2.3-.96,2.3h1.91Z" style="fill:#554b44; stroke-width:0px;"/><path d="m31.77,3.42s.07.02.07.07v7.44s-.02.07-.07.07h-.78s-.07-.02-.07-.07v-5.61l-2.13,2.38s-.07.04-.1,0l-2.13-2.38v5.61s-.02.07-.07.07h-.78s-.07-.02-.07-.07V3.49s.02-.07.07-.07h.31s.1.02.14.06l2.58,2.89,2.59-2.89s.08-.06.14-.06h.31-.01Z" style="fill:#554b44; stroke-width:0px;"/><path d="m36.84,4.37v2.33h2.87s.07.02.07.07v.83s-.02.07-.07.07h-2.87v3.25s-.02.07-.07.07h-.83s-.07-.02-.07-.07V3.47s.02-.07.07-.07h4.6s.07.02.07.07v.83s-.02.07-.07.07c0,0-3.7,0-3.7,0Z" style="fill:#554b44; stroke-width:0px;"/><path d="m46.94,3.42c1.04,0,1.94.37,2.68,1.11s1.11,1.63,1.11,2.68-.37,1.94-1.11,2.68-1.63,1.11-2.68,1.11-1.94-.37-2.68-1.11-1.11-1.63-1.11-2.68.37-1.94,1.11-2.68c.74-.74,1.63-1.11,2.68-1.11Zm0,6.61c.78,0,1.44-.28,1.99-.83.55-.55.83-1.22.83-1.99s-.28-1.44-.83-1.99-1.22-.83-1.99-.83-1.44.28-1.99.83c-.55.55-.83,1.22-.83,1.99s.28,1.44.83,1.99,1.22.83,1.99.83Z" style="fill:#554b44; stroke-width:0px;"/><path d="m59.54,10.89v.07s-.03.03-.06.03h-.94s-.05-.01-.06-.04l-1.78-3.24h-1.31v3.2s-.02.07-.07.07h-.83s-.07-.02-.07-.07V3.48s.02-.07.07-.07h2.78c.61,0,1.12.22,1.54.65s.63.95.61,1.56c-.02.49-.19.92-.5,1.3-.31.37-.71.61-1.18.72l1.78,3.25h.02Zm-2.25-4.15c.33,0,.61-.12.84-.35s.35-.51.35-.84-.12-.61-.35-.84c-.23-.23-.51-.34-.84-.34h-1.89v2.37s1.89,0,1.89,0Z" style="fill:#554b44; stroke-width:0px;"/><path d="m65.5,3.4c1.06,0,1.96.38,2.71,1.14s1.11,1.67,1.09,2.73c-.02,1.04-.41,1.92-1.16,2.64s-1.65,1.08-2.7,1.08h-2.34s-.07-.02-.07-.07V3.46s.02-.07.07-.07h2.4Zm0,6.62c.78,0,1.45-.28,2-.83s.83-1.22.83-2-.28-1.45-.83-2-1.22-.83-2-.83h-1.5v5.66h1.5Z" style="fill:#554b44; stroke-width:0px;"/><path d="m2.77,17.23c.07.03.12.05.15.07l.16.07c.12.06.24.12.34.17.26.14.49.29.67.44.49.42.74.92.74,1.52,0,.65-.22,1.16-.66,1.53-.44.38-1.04.57-1.8.57-.56,0-1.08-.12-1.58-.37-.17-.09-.34-.19-.49-.3-.06-.04-.11-.08-.16-.13-.04-.03-.07-.06-.11-.1-.04-.03-.04-.07,0-.1l.6-.57s.06-.03.1,0c.02.02.05.04.08.07.04.03.07.06.12.08.11.07.22.14.34.2.34.16.71.24,1.1.24,1,0,1.5-.38,1.5-1.14,0-.29-.13-.55-.38-.77-.22-.19-.58-.4-1.11-.62h-.02l-.25-.13-.13-.06-.14-.06c-.11-.05-.22-.1-.31-.15-.24-.12-.44-.26-.6-.4-.44-.38-.66-.84-.66-1.38,0-.59.2-1.05.6-1.39s.94-.51,1.63-.51c.5,0,.97.11,1.41.33.16.08.3.17.44.27.05.04.1.07.15.11.04.03.07.06.1.09.04.03.04.07,0,.1l-.3.28-.3.29s-.06.03-.1,0c-.02-.02-.04-.04-.07-.06-.03-.02-.07-.05-.1-.07-.1-.06-.19-.12-.3-.16-.29-.14-.6-.21-.93-.21-.84,0-1.26.31-1.26.94,0,.25.11.46.32.65.18.16.5.33.96.53h.02l.24.13h-.01Z" style="fill:#554b44; stroke-width:0px;"/><path d="m2.77,17.23c.07.03.12.05.15.07l.16.07c.12.06.24.12.34.17.26.14.49.29.67.44.49.42.74.92.74,1.52,0,.65-.22,1.16-.66,1.53-.44.38-1.04.57-1.8.57-.56,0-1.08-.12-1.58-.37-.17-.09-.34-.19-.49-.3-.06-.04-.11-.08-.16-.13-.04-.03-.07-.06-.11-.1-.04-.03-.04-.07,0-.1l.6-.57s.06-.03.1,0c.02.02.05.04.08.07.04.03.07.06.12.08.11.07.22.14.34.2.34.16.71.24,1.1.24,1,0,1.5-.38,1.5-1.14,0-.29-.13-.55-.38-.77-.22-.19-.58-.4-1.11-.62h-.02l-.25-.13-.13-.06-.14-.06c-.11-.05-.22-.1-.31-.15-.24-.12-.44-.26-.6-.4-.44-.38-.66-.84-.66-1.38,0-.59.2-1.05.6-1.39s.94-.51,1.63-.51c.5,0,.97.11,1.41.33.16.08.3.17.44.27.05.04.1.07.15.11.04.03.07.06.1.09.04.03.04.07,0,.1l-.3.28-.3.29s-.06.03-.1,0c-.02-.02-.04-.04-.07-.06-.03-.02-.07-.05-.1-.07-.1-.06-.19-.12-.3-.16-.29-.14-.6-.21-.93-.21-.84,0-1.26.31-1.26.94,0,.25.11.46.32.65.18.16.5.33.96.53h.02l.24.13h-.01Z" style="fill:#554b44; stroke-width:0px;"/><path d="m12.85,14.03s.07.02.07.07v.83s-.02.07-.07.07h-1.98v6.55s-.02.07-.07.07h-.83s-.07-.02-.07-.07v-6.55h-1.99s-.07-.02-.07-.07v-.83s.02-.07.07-.07h4.94Z" style="fill:#554b44; stroke-width:0px;"/><path d="m19.44,14.03c1.04,0,1.94.37,2.68,1.11s1.11,1.63,1.11,2.68-.37,1.94-1.11,2.68-1.63,1.11-2.68,1.11-1.94-.37-2.68-1.11-1.11-1.63-1.11-2.68.37-1.94,1.11-2.68,1.63-1.11,2.68-1.11Zm0,6.61c.78,0,1.44-.28,1.99-.83s.83-1.22.83-1.99-.28-1.44-.83-1.99-1.22-.83-1.99-.83-1.44.28-1.99.83-.83,1.22-.83,1.99.28,1.44.83,1.99,1.22.83,1.99.83Z" style="fill:#554b44; stroke-width:0px;"/><path d="m32.31,14.02s.07.02.07.07v7.44s-.02.07-.07.07h-.38s-.04,0-.05-.03l-4.04-5.39v5.35s-.02.07-.07.07h-.78s-.07-.02-.07-.07v-7.44s.02-.07.07-.07h.35s.04,0,.05.03l4.06,5.42v-5.39s.02-.07.07-.07h.79Z" style="fill:#554b44; stroke-width:0px;"/><path d="m41.4,14.03s.07.02.07.07v.83s-.02.07-.07.07h-4.03v2.34h2.92s.07.02.07.07v.83s-.02.07-.07.07h-2.92v2.34h4.03s.07.02.07.07v.83s-.02.07-.07.07h-4.92s-.07-.02-.07-.07v-7.44s.02-.07.07-.07h4.92Z" style="fill:#554b44; stroke-width:0px;"/><path d="m50.27,20.9s.02.07-.02.1c-.62.41-1.31.61-2.07.61-.53,0-1.04-.11-1.52-.32-.47-.2-.87-.49-1.23-.87-.75-.79-1.1-1.73-1.04-2.82.05-.94.41-1.75,1.08-2.43.66-.68,1.46-1.06,2.4-1.13.86-.07,1.65.13,2.37.6.04.02.05.06.02.1l-.47.68s-.06.05-.1.02c-.53-.34-1.11-.49-1.75-.44-.72.06-1.33.35-1.84.89-.5.54-.76,1.17-.77,1.89-.01.79.26,1.46.82,2.02.55.56,1.22.84,2.01.84.56,0,1.07-.15,1.53-.45.04-.02.07-.02.1.02l.47.68h0Z" style="fill:#a59993; stroke-width:0px;"/><path d="m56.76,14.03c1.04,0,1.94.37,2.68,1.11s1.11,1.63,1.11,2.68-.37,1.94-1.11,2.68-1.63,1.11-2.68,1.11-1.94-.37-2.68-1.11-1.11-1.63-1.11-2.68.37-1.94,1.11-2.68,1.63-1.11,2.68-1.11Zm0,6.61c.78,0,1.44-.28,1.99-.83.55-.55.83-1.22.83-1.99s-.28-1.44-.83-1.99c-.55-.55-1.22-.83-1.99-.83s-1.44.28-1.99.83c-.55.55-.83,1.22-.83,1.99s.28,1.44.83,1.99,1.22.83,1.99.83Z" style="fill:#a59993; stroke-width:0px;"/><path d="m64.93,20.12c0,.82-.66,1.48-1.49,1.48s-1.49-.66-1.48-1.49c0-.83.66-1.48,1.49-1.48s1.48.66,1.48,1.49Zm-2.68,0c0,.66.54,1.2,1.2,1.2s1.2-.54,1.2-1.21-.54-1.19-1.2-1.18c-.66,0-1.2.54-1.2,1.2h0Z" style="fill:#a59993; stroke-width:0px;"/><path d="m63.79,20.27c.11.19.23.37.34.56h-.34s-.05,0-.06-.04c-.07-.13-.14-.27-.21-.4-.02-.03-.03-.05-.07-.04h-.14v.48h-.34v-1.4s.01-.06.06-.06c.17,0,.34,0,.52,0,.1,0,.19.03.28.08.27.15.3.55.07.75-.03.03-.06.05-.1.08h0Zm-.48-.2c.09,0,.17,0,.25-.02.08-.04.13-.11.12-.21,0-.09-.05-.15-.15-.17-.07-.02-.15-.02-.23,0v.41h.01Z" style="fill:#a59993; stroke-width:0px;"/><path d="m89.78,18.4c0-.13.32-.6.44-.6.25,0,.73.82,1.17,1.81.44.94,1.25,1.59,2.09,2h4.05c1.1-.64,1.81-1.81,1.81-3.3,0-1.33-.64-2.75-3.96-4.88-2.69-1.74-4.59-3.58-4.59-6.27,0-1.49.67-2.91,1.74-3.86.78-.71,1.89-1.27,3.43-1.47-.26-.33-.45-.58-.52-.67-.49-.65-3.26-1.3-3.67-1.14-.01,0-.03.01-.04.02l-1.34,4.08s-1.89,5.03-2.78,6.19c-.89,1.17-1.72,3.68-2.44,4.79-1.6,2.46-2.14,3.08-2.74,6.52h7.89c-.06-.1-.1-.19-.1-.23-.16-1.07-.47-2.47-.47-2.98h.03Z" style="fill:#a59993; stroke-width:0px;"/><path d="m93.26,6.36c0,2.25,1.61,3.23,4.4,5.1,2.44,1.65,4.37,3.3,4.37,6.15,0,1.38-.67,2.89-1.97,4h4.84s-.33-3.75-.57-5.13c-.24-1.39-1.96-5.62-2.36-6.52-.3-.67-3.54-4.91-5.34-7.27-1.97.13-3.36,1.65-3.36,3.68h0Z" style="fill:#a59993; stroke-width:0px;"/><path d="m73.62,18.4c0-.13.32-.6.44-.6.25,0,.73.82,1.17,1.81.44.94,1.25,1.59,2.09,2h4c.41-2.4.81-3.44,1.56-4.68-.43-.98-1.44-2.08-3.66-3.5-.65-.42-1.25-.85-1.79-1.29-.11.12-.19.22-.22.26-.33.41-2.36.65-3.91,1.22-1.96,1.71-4.73,7.99-4.73,7.99h5.62c-.06-.1-.09-.19-.09-.23-.16-1.07-.47-2.47-.47-2.98h0Z" style="fill:#564c45; stroke-width:0px;"/><path d="m89.36,1.31s-1.63.81-2.45,1.96c-.24.34-.81.84-1.48,1.38.06.43.1.78.1.83,0,.54,0,.86-.22.86-.26,0-.63-.22-.76-.67-.03-.09-.07-.18-.1-.26-1.36,1.01-2.75,1.94-2.75,1.94,0,0-1.19,1.33-2.34,2.63.61.46,1.33.93,2.16,1.49,1.22.82,2.31,1.65,3.09,2.62.59-1.24,1.23-2.9,1.9-3.78.89-1.17,2.78-6.19,2.78-6.19L90.63.04c-.42.21-1.27,1.28-1.27,1.28h0Z" style="fill:#564c45; stroke-width:0px;"/></svg>